<svg xmlns="http://www.w3.org/2000/svg" width="59.586" height="68.667" viewBox="0 0 59.586 68.667">
  <g id="Layer_34" data-name="Layer 34" transform="translate(-15.35 -8.264)">
    <path id="Path_20738" data-name="Path 20738" d="M90.629,71.375c-.456-.882-.888-1.782-1.368-2.652s-.967-1.746-1.527-2.579c-.389-.608-.785-1.216-1.216-1.825a69.883,69.883,0,0,0-4.525-6.185c-.371-.432-.742-.87-1.125-1.289l-1.186-1.216c-.5-.523-1.064-1-1.581-1.5-.255-.262-.535-.493-.791-.754s-.493-.535-.736-.809-.109-.48.347-.42a3.972,3.972,0,0,1,.87.231,2.913,2.913,0,0,1,1.01.608,42.611,42.611,0,0,1,6.082,6.8c.517.754,1.07,1.5,1.636,2.244s1.1,1.514,1.606,2.293c1.113,1.721,2.171,3.473,3.12,5.285.608,1.1,1.137,2.25,1.691,3.382.4.864.76,1.752,1.137,2.627l.961,2.627c.237.7.493,1.381.754,2.068s.456,1.387.681,2.086a8.041,8.041,0,0,1,.268.924c.268,1.216.219,1.587-.14,1.9a1.9,1.9,0,0,1-.243.213c-.28.158-.657-.268-.906-1.089-.736-2.433-1.5-4.963-2.475-7.463-.328-.937-.754-1.825-1.131-2.767S91,72.293,90.574,71.393Z" transform="translate(-23.94 -17.187)" fill="#426af0"/>
    <path id="Path_20739" data-name="Path 20739" d="M37.84,91.744a37.539,37.539,0,0,1-7.122-1.892,12.25,12.25,0,0,1-3.339-1.879,5.06,5.06,0,0,1-1.308-1.63c-.036-.085-.079-.164-.109-.249l-.1-.322c-.146-.249,0-.547,0-.706l.207-.924a36.074,36.074,0,0,1,1.776-5.06,86.726,86.726,0,0,1,9.4-16.105c.8-1.119,1.673-2.2,2.512-3.3l1.326-1.593.651-.791.7-.76a34.716,34.716,0,0,1,7.961-6.97c.943-.578.943-.28.353.487a11.708,11.708,0,0,1-1.3,1.429c-.56.553-1.216,1.216-1.952,1.825A75.5,75.5,0,0,0,34.118,69.727c-.286.456-.608.906-.851,1.375l-.8,1.411c-.553.937-1.04,1.916-1.539,2.9s-.937,1.983-1.411,2.974A24.956,24.956,0,0,0,28.3,81.423c-.207.566-.432,1.119-.608,1.691a14.738,14.738,0,0,0-.474,1.7,5.328,5.328,0,0,0-.134.681,2,2,0,0,0,.1.274,1.947,1.947,0,0,0,.182.328,4.452,4.452,0,0,0,1.119,1.15,12.4,12.4,0,0,0,3.09,1.563A29.923,29.923,0,0,0,35,89.816a65.392,65.392,0,0,0,8.77,1.35,106.128,106.128,0,0,0,13.472.359,74.5,74.5,0,0,0,10.212-1.113c.736-.14,1.448-.3,2.177-.48,1.35-.322,2.2-.608,2.786-.766a6.837,6.837,0,0,1,1.289-.243c.164,0,.341-.073.462-.073s.134.055.1.176a1.472,1.472,0,0,1-.353.529,5.729,5.729,0,0,1-2.19,1.265,42.087,42.087,0,0,1-9.445,1.788,95.345,95.345,0,0,1-9.8.377,94.146,94.146,0,0,1-14.646-1.216Z" transform="translate(-4.092 -16.063)" fill="#426af0"/>
    <path id="Path_20740" data-name="Path 20740" d="M64.336,50.07c1.587-.189,3.175-.389,4.714-.669a16.75,16.75,0,0,0,2.208-.547c.17-.055.335-.116.48-.176l.152-.067h.043a.137.137,0,0,0,.1-.17.213.213,0,0,0-.073-.122h0l-.073-.073c-.067-.055-.17-.1-.255-.158a8.127,8.127,0,0,0-1.308-.547c-.949-.31-1.977-.547-3-.772-1.892-.4-3.832-.742-5.76-1.283a16.275,16.275,0,0,1-2.956-1.162,7.907,7.907,0,0,1-1.417-.918,2.919,2.919,0,0,1-1.028-1.612,2.025,2.025,0,0,1,.219-1.289,4.653,4.653,0,0,1,.56-.882,13.1,13.1,0,0,1,1.308-1.4,37.054,37.054,0,0,1,2.859-2.366l1.49-1.095.249-.189c.073-.03.073-.1.067-.164v-.815c0-1.216,0-2.433-.055-3.649-.079-3.041-.249-6.119-.42-9.123-.109-1.94-.213-3.893-.322-5.839s-.164-3.9-.091-5.863c.061-1.216.237-1.052.5-.03.14.5.3,1.216.468,2.1a28.641,28.641,0,0,1,.347,3.041q.4,5.948.639,11.927c.079,1.989.164,3.984.189,6v2.317a3.621,3.621,0,0,1-.036.675,6.37,6.37,0,0,1-.5.432l-2.433,1.825a24.854,24.854,0,0,0-2.342,2.025,9.39,9.39,0,0,0-.985,1.125,1.825,1.825,0,0,0-.42.973,2.165,2.165,0,0,0,1,1.162,7.043,7.043,0,0,0,1.715.724c1.271.377,2.6.669,3.941.943,1.624.328,3.266.645,4.926,1.046a19.75,19.75,0,0,1,2.494.754,6.636,6.636,0,0,1,1.259.639l.371.28a3.774,3.774,0,0,1,.328.371,1.338,1.338,0,0,1,.249.408,1.825,1.825,0,0,1,.164.444,1.363,1.363,0,0,1,0,.566,1.5,1.5,0,0,1-.243.517,2.646,2.646,0,0,1-.918.742,6.641,6.641,0,0,1-.833.347c-.262.091-.523.164-.779.237a29.9,29.9,0,0,1-3.1.608c-3.315.517-6.629.76-9.883,1.259a23.444,23.444,0,0,0-2.585.547c-.207.061-.408.128-.608.2l-.14.061-.091.036a1.058,1.058,0,0,0-.158.091.487.487,0,0,0-.237.268.407.407,0,0,0,.1.335,1.283,1.283,0,0,0,.225.31,4.475,4.475,0,0,0,.377.383c.146.109.28.237.432.341l.468.3a10.984,10.984,0,0,0,2.135.87,30.41,30.41,0,0,0,4.647.876c3.832.468,7.651.5,11.513,1.247a18.677,18.677,0,0,1,2.53.657,7.706,7.706,0,0,1,3.1,1.825c.134.152.249.292.353.42a2.59,2.59,0,0,1,.213.4,1.435,1.435,0,0,1,.158.675,2.061,2.061,0,0,1,0,.529c-.067.2-.328.049-.693-.31a10.649,10.649,0,0,0-1.94-1.338,11.039,11.039,0,0,0-2.25-.851,24.074,24.074,0,0,0-2.433-.529c-1.685-.274-3.424-.45-5.194-.608s-3.564-.3-5.389-.517A29.492,29.492,0,0,1,57.141,57.7c-.371-.109-.742-.28-1.113-.42a9.916,9.916,0,0,1-1.095-.572,7.719,7.719,0,0,1-1.046-.772c-.158-.164-.31-.335-.468-.5-.036-.049-.085-.091-.128-.152l-.152-.225-.274-.462a2.433,2.433,0,0,1-.2-.639,1.618,1.618,0,0,1,.067-.657,1.989,1.989,0,0,1,.839-1.046,4.312,4.312,0,0,1,.608-.347,3.314,3.314,0,0,1,.42-.164c.268-.1.529-.176.791-.249a30,30,0,0,1,3.041-.608c1.989-.328,3.953-.608,5.912-.839Z" transform="translate(-14.616 0)" fill="#426af0"/>
    <path id="Path_20741" data-name="Path 20741" d="M68.393,11.918s8.667-1.216,11.045.645a1.064,1.064,0,0,1,.383,1.156c-.164.663-1.825,4.6-2.263,5.65a49.209,49.209,0,0,1-8.29.4A53.389,53.389,0,0,1,68.393,11.918Z" transform="translate(-20.778 -1.279)" fill="#426af0"/>
    <path id="Path_20742" data-name="Path 20742" d="M83.667,17.68A46.8,46.8,0,0,1,81.41,22.6c-.377.347-4.33.383-4.33.383s.1,1.539,1.107,1.587,8.235.371,8.813-.493c.383-.572-1.381-2.281-1.715-2.567,0,0,2.433-1.4,2.433-2.037C87.7,18.519,83.667,17.68,83.667,17.68Z" transform="translate(-24.185 -3.689)" fill="#426af0"/>
    <path id="Path_20743" data-name="Path 20743" d="M22.721,104.87s-7.621,2.494-7.365,4.993c0,0-.255,3.649,15.242,3.935a68.9,68.9,0,0,0,7.809,0s-14.147-1.958-15.363-5.291S22.721,104.87,22.721,104.87Z" transform="translate(0 -37.85)" fill="#426af0"/>
    <path id="Path_20744" data-name="Path 20744" d="M110.843,25.19a.608.608,0,0,1,.815.383C112.254,27.215,109.122,25.81,110.843,25.19Z" transform="translate(-37.209 -6.613)" fill="none" stroke="#231f20" strokeWidth="0.8"/>
    <path id="Path_20745" data-name="Path 20745" d="M93.474,45.018a.608.608,0,0,1,.693-.572C95.9,44.6,93.3,46.842,93.474,45.018Z" transform="translate(-30.605 -14.174)" fill="#426af0"/>
    <path id="Path_20746" data-name="Path 20746" d="M48.994,20.562A.608.608,0,0,1,49.682,20C51.427,20.149,48.818,22.387,48.994,20.562Z" transform="translate(-13.178 -4.595)" fill="#426af0"/>
    <path id="Path_20747" data-name="Path 20747" d="M57.8,36.381a.608.608,0,0,1,.724-.578C60.238,35.967,57.635,38.205,57.8,36.381Z" transform="translate(-16.63 -10.785)" fill="none" stroke="#231f20" strokeWidth="0.8"/>
  </g>
</svg>
