<svg xmlns="http://www.w3.org/2000/svg" width="66" height="61.51" viewBox="0 0 66 61.51">
  <g id="Layer_3" data-name="Layer 3" transform="translate(-7.287 -12.145)">
    <path id="Path_20782" data-name="Path 20782" d="M43.664,64.235A5.059,5.059,0,0,0,46.99,70.09a6.259,6.259,0,0,0,3.513.287,5.738,5.738,0,0,0,3.086-1.757,5.592,5.592,0,0,0,1.323-2.928,6.833,6.833,0,0,0-.761-3.952c-.193-.369.105-.586.632-.422a2.4,2.4,0,0,1,1.493,1.757,7.155,7.155,0,0,1-.668,5.106,7.4,7.4,0,0,1-1.64,2,7.091,7.091,0,0,1-2.284,1.23A7.963,7.963,0,0,1,45.655,71a6.371,6.371,0,0,1-2.477-2.342,6.71,6.71,0,0,1-.972-3.162,7.559,7.559,0,0,1,5.732-7.612,6.265,6.265,0,0,1,4.643.714,6.886,6.886,0,0,1,.867.586c1,.861,1.13,1.3,1.007,1.721a1.323,1.323,0,0,1-.094.293c-.082.129-.246.135-.463.035a4.339,4.339,0,0,1-.8-.586c-.223-.211-.48-.369-.72-.586a2.755,2.755,0,0,0-.767-.445,5.27,5.27,0,0,0-1.645-.527,5,5,0,0,0-3.32.732,6.283,6.283,0,0,0-2.928,4.333Z" transform="translate(-14.471 -18.887)" fill="#426af0"/>
    <path id="Path_20783" data-name="Path 20783" d="M32.242,59.063a12.138,12.138,0,0,0,.586,5.334,10.844,10.844,0,0,0,2.852,4.52,11.71,11.71,0,0,0,3.279,2.143,13.286,13.286,0,0,0,13.467-1.44,12.05,12.05,0,0,0,3.7-5,14.252,14.252,0,0,0,.621-7.928c-.17-.814.2-.843.738-.2a5.855,5.855,0,0,1,1.083,3.777,13.936,13.936,0,0,1-3.209,8.449A13.268,13.268,0,0,1,47.6,73.28a15.224,15.224,0,0,1-10.7-1.7,12.4,12.4,0,0,1-4.28-4.286A12.255,12.255,0,0,1,31.4,64.515a13.872,13.872,0,0,1-.381-1.47c-.082-.5-.164-1-.2-1.5a13.737,13.737,0,0,1,.2-3.7,14.17,14.17,0,0,1,1.136-3.513A15.277,15.277,0,0,1,35.374,49.8a14.568,14.568,0,0,1,4.6-3.08,12.039,12.039,0,0,1,8.449-.439A13.14,13.14,0,0,1,50.183,47c2.09,1.171,2.524,1.85,2.658,2.43a1.885,1.885,0,0,1,.076.4c0,.176-.246.158-.586,0a5.211,5.211,0,0,1-.685-.427c-.269-.152-.586-.328-.908-.545a13.21,13.21,0,0,0-3.22-1.394,11.125,11.125,0,0,0-3.513-.322,11.939,11.939,0,0,0-6.57,2.652,13.942,13.942,0,0,0-5.182,9.275Z" transform="translate(-9.735 -13.915)" fill="#426af0"/>
    <path id="Path_20784" data-name="Path 20784" d="M20.514,52.49a19.668,19.668,0,0,0,.545,8.5,19.129,19.129,0,0,0,1.663,3.941,16.624,16.624,0,0,0,2.571,3.414,18.151,18.151,0,0,0,5.082,3.63,21,21,0,0,0,10.844,2.044,19.955,19.955,0,0,0,10.37-3.788,19.03,19.03,0,0,0,6.025-7.752,21.214,21.214,0,0,0,1.171-12.431c-.275-1.276.105-1.241.738-.2a10.9,10.9,0,0,1,1.171,5.826,21.29,21.29,0,0,1-1.44,6.763,21.9,21.9,0,0,1-3.607,5.92,20.119,20.119,0,0,1-5.387,4.374,20.956,20.956,0,0,1-6.529,2.289,24.347,24.347,0,0,1-8.344,0,23.645,23.645,0,0,1-4.1-1.136,21.08,21.08,0,0,1-3.771-1.944,18.626,18.626,0,0,1-6.207-6.781,20.447,20.447,0,0,1-2.371-8.883,20.781,20.781,0,0,1,.556-5.645,24.007,24.007,0,0,1,1.967-5.27A24.288,24.288,0,0,1,26.674,38.6a22.25,22.25,0,0,1,7.313-4.333,18.567,18.567,0,0,1,6.488-1.031,17.625,17.625,0,0,1,6.406,1.394c.228.094.457.17.673.275l.644.328a12.882,12.882,0,0,1,1.276.7,18.028,18.028,0,0,1,3.033,2.342,4.5,4.5,0,0,1,.96,1.435,3.068,3.068,0,0,1,.176.527c0,.217-.275.123-.8-.24-.263-.176-.586-.422-.96-.726s-.849-.586-1.341-.984a19.592,19.592,0,0,0-4.907-2.623,17.016,17.016,0,0,0-5.5-1.013,18.006,18.006,0,0,0-10.687,3.514,22.122,22.122,0,0,0-5.855,6.259,21.612,21.612,0,0,0-3.045,8.069Z" transform="translate(-4.823 -8.741)" fill="#426af0"/>
    <path id="Path_20785" data-name="Path 20785" d="M10.433,47.771a25.207,25.207,0,0,0,2.928,15.85,22.666,22.666,0,0,0,3.267,4.368,22.109,22.109,0,0,0,3,2.629A26.033,26.033,0,0,0,23.039,72.7a27.22,27.22,0,0,0,27.075-1.44,24.593,24.593,0,0,0,8.2-9.421,27.6,27.6,0,0,0,2.547-15.669c-.234-1.645.152-1.528.749-.146a13.344,13.344,0,0,1,.773,2.986,17.742,17.742,0,0,1,0,4.409A27.35,27.35,0,0,1,55.074,68.88a25.763,25.763,0,0,1-6.927,5.141A27.578,27.578,0,0,1,39.885,76.6a33.587,33.587,0,0,1-5.211.328,31.778,31.778,0,0,1-5.27-.586A26.894,26.894,0,0,1,19.625,72.3a23.726,23.726,0,0,1-7.782-8.578A26.273,26.273,0,0,1,8.822,52.6,28.4,28.4,0,0,1,11.75,38.8a31.666,31.666,0,0,1,6.4-8.625,29,29,0,0,1,8.982-5.779,24.376,24.376,0,0,1,8.063-1.71,22.473,22.473,0,0,1,8.127,1.235l.867.287c.287.1.55.24.831.357.545.252,1.113.48,1.651.767,3.982,2.231,4.866,3.513,5.364,4.351a4.608,4.608,0,0,1,.31.586c.059.246-.293.117-.966-.322-.334-.217-.755-.515-1.235-.884l-1.757-1.171a25.178,25.178,0,0,0-6.441-2.969,22.092,22.092,0,0,0-7.1-.831,22.643,22.643,0,0,0-7.085,1.5,26.425,26.425,0,0,0-6.382,3.63l-.55.41-.521.451L19.292,31l-.972.978a11.711,11.711,0,0,0-.937,1.007l-.9,1.042c-.281.363-.55.738-.826,1.107-.586.72-1.025,1.528-1.534,2.3a28.691,28.691,0,0,0-2.342,4.995,27.374,27.374,0,0,0-.808,2.635c-.129.445-.182.9-.281,1.353a9.756,9.756,0,0,0-.234,1.353Z" transform="translate(-0.626 -4.362)" fill="#426af0"/>
    <path id="Path_20786" data-name="Path 20786" d="M69.273,49.488c-1.235.761-2.471,1.534-3.695,2.342-.445.287-.861.621-1.312.9l-4.743,3c-.7.451-1.37.949-2.026,1.446A16.94,16.94,0,0,1,54.9,58.968c-.281.141-.5-.187-.515-.673a1.885,1.885,0,0,1,.644-1.5,42.469,42.469,0,0,1,5.346-3.683c1.171-.644,2.2-1.5,3.3-2.254,1.218-.82,2.453-1.622,3.683-2.43l2.272-1.476c1.142-.755,2.313-1.481,3.425-2.266.872-.586,1.663-1.288,2.506-1.921.187-.135.357-.293.55-.422.738-.463,1.054-.486,1.476-.135.094.082.2.158.281.246.275.3.146.773-.31,1.206a33.962,33.962,0,0,1-4.579,3.513L69.3,49.564Z" transform="translate(-19.521 -12.361)" fill="#426af0"/>
    <path id="Path_20787" data-name="Path 20787" d="M92.208,43.384c-2.424.7-6.956-1.487-6.956-1.487s-.837-5.563,1.4-7.436a18.405,18.405,0,0,1,4.1-2.594c.586-.2-.89,5.779-.17,6.33,0,0,5.311.7,6.224,1.675Z" transform="translate(-32.25 -8.172)" fill="#426af0"/>
    <path id="Path_20788" data-name="Path 20788" d="M89.083,34.992c.135-.908.363-2.342.351-2.125a.252.252,0,0,0,0-.146h-.117l-.141.059h-.053l-.152.088-.3.182c-.586.369-1.171.8-1.71,1.212l-.369.269c-.1.088-.17.17-.263.246a1.658,1.658,0,0,0-.234.293,1.9,1.9,0,0,0-.211.334,5.393,5.393,0,0,0-.55,1.61,13.947,13.947,0,0,0-.2,3.642V41.1l.141.07.193.082c.193.088.392.164.586.246.4.152.8.293,1.206.416a12.829,12.829,0,0,0,3.958.586c.369,0,.48.322.152.749a2.342,2.342,0,0,1-2.085.679,14.392,14.392,0,0,1-2.594-.662c-.416-.141-.82-.3-1.224-.474l-.586-.263-.5-.234-.515-.187c-.035-.3-.07-.586-.1-.9V39.647a15.129,15.129,0,0,1,.141-1.985,9.86,9.86,0,0,1,.814-2.811,4.228,4.228,0,0,1,.943-1.288c.381-.31.738-.586,1.118-.849s.837-.586,1.276-.837l.334-.2c.123-.07.34-.2.5-.275a4.737,4.737,0,0,1,1.031-.416,1.171,1.171,0,0,1,.422,0,1.031,1.031,0,0,1,.182,0,.334.334,0,0,1,.152.146,1.569,1.569,0,0,1,.2.867,8.645,8.645,0,0,1-.111,1.171l-.111.744c-.094.586-.187,1.206-.263,1.8-.035.3-.07.586-.088.884v.4a1.575,1.575,0,0,0,0,.234c0,.088.053.2.158.187l1.031.182,1.241.252c.416.088.826.182,1.241.287a10.722,10.722,0,0,1,1.376.416l.351.129.31.164a4.761,4.761,0,0,1,.586.363c.094.076.2.146.281.223l-.217.228-.433.474-.586.5-.5.427-.8.685c-.24.2-.463.41-.708.586-.908.732-1.253.884-1.68.738a1.633,1.633,0,0,1-.287-.105c-.269-.158-.041-.638.586-1.224.463-.439.937-.867,1.429-1.294l.738-.632.088-.076h-.111l-.451-.129c-.3-.082-.621-.152-.931-.223-.48-.105-.972-.2-1.458-.293l-.738-.129-.468-.164-.755-.105c-.07-.088-.146-.141-.2-.222l-.211-.246a1.7,1.7,0,0,1-.223-.627,4.059,4.059,0,0,1-.053-.679v-.41a11.272,11.272,0,0,1,.152-1.517Z" transform="translate(-31.695 -7.801)" fill="#426af0"/>
    <path id="Path_20789" data-name="Path 20789" d="M11.516,72.313a22.725,22.725,0,0,0,8.2,8.783,26.349,26.349,0,0,0,3.993,1.973,27.52,27.52,0,0,0,15.558,1.417,23.837,23.837,0,0,0,6.6-2.342A25.928,25.928,0,0,0,49.623,79.7a35.753,35.753,0,0,0,3.314-3c.656-.656.861-.34.586.5a5.726,5.726,0,0,1-.826,1.558c-.211.293-.451.586-.726.919q-.447.453-.937.861a26.642,26.642,0,0,1-18.04,5.785,30.852,30.852,0,0,1-11.406-2.676,24.657,24.657,0,0,1-9.843-8.274c-.4-.527-.709-1.124-1.066-1.686s-.615-1.171-.925-1.757a16.2,16.2,0,0,1-.761-1.839c-.234-.615-.439-1.253-.632-1.88a27.473,27.473,0,0,1-.738-11.886,32.931,32.931,0,0,1,1-4.485A30.448,30.448,0,0,1,10.3,47.6a19.2,19.2,0,0,1,.937-1.757c1.3-2.172,1.932-2.717,2.541-2.928a2.582,2.582,0,0,1,.41-.123c.187,0,.176.234,0,.656A20.115,20.115,0,0,1,13.2,45.2a32.14,32.14,0,0,0-3.291,7.284,28.352,28.352,0,0,0-1.23,8.063,25.254,25.254,0,0,0,2.875,11.763Z" transform="translate(0 -12.701)" fill="#426af0"/>
    <path id="Path_20790" data-name="Path 20790" d="M49.607,67.99a1.054,1.054,0,0,1-.855-.99.814.814,0,0,1,.586-.79.861.861,0,0,1,.644.263.156.156,0,0,0,.164.135H50.07l.041-.041a.322.322,0,0,0,.053-.135q0-.061,0,0c0,.041,0,0-.094-.076a.445.445,0,0,0-.105-.053l-.064-.029h0a.843.843,0,0,0,.445-.076c.053-.035,0,0,0,.041a.586.586,0,0,0,0,.246.843.843,0,0,0,.07.263.786.786,0,0,0,.07.141v.035s.041.059-.076-.088l-.135-.141-.2-.123a.679.679,0,0,0-.123-.094l-.082-.064a1.213,1.213,0,0,0-.146-.076c-.17,0,.059,0,.258-.158a1.353,1.353,0,0,0,.386-.48c.029-.076,0,0,0,.164a.585.585,0,0,0,.053.252.949.949,0,0,0-.334-.234l-.105-.059h0a.639.639,0,0,0,0-.1,2.237,2.237,0,0,0,0-.345c0-.07,0-.17-.053-.2a.228.228,0,0,0-.111-.135,3.289,3.289,0,0,0-.375-.17,1.534,1.534,0,0,0-1.095.141,1.077,1.077,0,0,0-.363.31,1.856,1.856,0,0,0-.263.5.627.627,0,0,0-.035.416,6.218,6.218,0,0,0,.193,1.294,2.243,2.243,0,0,0,.334.65c.129.193.223.275.252.328a1.072,1.072,0,0,0,.644.492,2.729,2.729,0,0,0,1.224,0c.129,0,.252-.105.416-.053a1.171,1.171,0,0,0,.99-.217l1.276-.586a4.439,4.439,0,0,1,.744-.2c.228-.064.369.275.334.357-.105.228.146.24.258.334a.492.492,0,0,1,.105.117,7.359,7.359,0,0,1-1.019,1.323A6.025,6.025,0,0,1,51.9,71.34c-.029,0-.3.164-.8.334a5.885,5.885,0,0,1-1.985.375,4.485,4.485,0,0,1-2.342-.586,5.065,5.065,0,0,1-1.107-.884,2.758,2.758,0,0,1-.586-.937,7.331,7.331,0,0,1-.369-.82,5.855,5.855,0,0,1-.035-4.2,6.1,6.1,0,0,1,.808-1.341,3.068,3.068,0,0,1,1.376-.943,5.511,5.511,0,0,0,.586-.24,4.509,4.509,0,0,1,2.535-.3,3.806,3.806,0,0,1,.685.176,3.571,3.571,0,0,1,.668.3,3.928,3.928,0,0,1,.627.463,3.993,3.993,0,0,1,.509.621,3.625,3.625,0,0,1,.351.709,3.513,3.513,0,0,1,.2.749l.047.351a2.963,2.963,0,0,1,0,.316,3.753,3.753,0,0,1-.035.667,2.3,2.3,0,0,1-.158.509,4.263,4.263,0,0,1-.334.679,2.459,2.459,0,0,1-.773.826,2.494,2.494,0,0,1-1.072.4,2.828,2.828,0,0,1-1.956-.5,2.3,2.3,0,0,1-.79-.96A1.95,1.95,0,0,1,48,65.484a2.436,2.436,0,0,1,.814-.9,2.752,2.752,0,0,1,.931-.439,1.956,1.956,0,0,1,1.025,0A2,2,0,0,1,52.06,65.32a2.172,2.172,0,0,1,.059,1.417,2.828,2.828,0,0,1-.4.843,1.569,1.569,0,0,1-1.048.545,2.547,2.547,0,0,1-1.06-.135Z" transform="translate(-15.343 -20.552)" fill="#426af0"/>
    <path id="Path_20791" data-name="Path 20791" d="M96.9,17.8c.064.094-.059.17-.293.24a.691.691,0,0,1-.334,0,1.03,1.03,0,0,1-.164-.152c0-.035-.152-.55-.2-.726a1.909,1.909,0,0,1-.07-.509l-.059-1.036a.755.755,0,0,1,0-.228,2.09,2.09,0,0,0,.047-.785.2.2,0,0,0-.041-.135,2.547,2.547,0,0,1-.041-.872,7.108,7.108,0,0,0,.193-.691.119.119,0,0,1,.047-.094.341.341,0,0,0,.1-.211,1.838,1.838,0,0,1,.07-.3c0-.047.088-.094.141-.141s.217,0,.234,0h.287a2.822,2.822,0,0,1,.34.632l.047.439a2.183,2.183,0,0,0,.07.5.269.269,0,0,1-.035.146s.094.685.088.708a.573.573,0,0,1-.076.41.141.141,0,0,0,0,.082,4.139,4.139,0,0,1-.064.708v.357a.123.123,0,0,1,0,.064.52.52,0,0,0,0,.082,5.954,5.954,0,0,0,0,.855c0,.064-.111.381-.1.457S96.866,17.763,96.9,17.8Z" transform="translate(-36.651)" fill="#426af0"/>
    <path id="Path_20792" data-name="Path 20792" d="M108.13,31.105c-.029.123-.182.076-.427-.053a.849.849,0,0,1-.258-.269,1.34,1.34,0,0,1,0-.275,7.847,7.847,0,0,1,.586-.755,2.506,2.506,0,0,1,.474-.427c.351-.258.7-.509,1.054-.744a.79.79,0,0,1,.258-.117,3.2,3.2,0,0,0,.867-.445c.047-.029.1-.047.123-.111a3.162,3.162,0,0,1,.949-.545,8.783,8.783,0,0,1,.89-.135c.041,0,.076-.035.129,0a.31.31,0,0,0,.293,0,1.405,1.405,0,0,1,.386,0,.785.785,0,0,1,.211.082c.064.029.07.187.059.2a.294.294,0,0,0,.035.182.152.152,0,0,1,0,.064,7.076,7.076,0,0,1-.55.586s-.211.117-.422.263-.439.263-.48.3a.334.334,0,0,1-.17.041s-.662.439-.685.451c-.146.064-.263.182-.451.164a.164.164,0,0,0-.094.035,6.541,6.541,0,0,1-.726.375,2.8,2.8,0,0,0-.357.222h-.076a.287.287,0,0,0-.094,0,7.1,7.1,0,0,0-.808.586c-.047.053-.41.17-.463.24S108.142,31.052,108.13,31.105Z" transform="translate(-41.509 -6.246)" fill="#426af0"/>
    <path id="Path_20793" data-name="Path 20793" d="M110.289,46.839c-.129,0-.1-.182,0-.427a.908.908,0,0,1,.258-.275,1.493,1.493,0,0,1,.246-.047c.047,0,.527.193.708.223a1.845,1.845,0,0,1,.457.17c.3.135.586.281.9.4a.65.65,0,0,1,.187.123,1.487,1.487,0,0,0,.7.334c.041,0,.082.029.135,0a2.436,2.436,0,0,1,.849.2c.2.152.41.281.586.427a.094.094,0,0,1,.088.082.3.3,0,0,0,.176.182.726.726,0,0,1,.269.187.9.9,0,0,1,.1.2.375.375,0,0,1-.059.246c-.059.041-.047.135-.064.211v.076a2.213,2.213,0,0,1-.363.17,2.289,2.289,0,0,1-.392.094l-.474-.047-.533-.082c-.053,0-.094-.047-.141-.088s-.738-.135-.767-.158c-.141-.064-.3-.076-.4-.24a.094.094,0,0,0-.076-.047,3.713,3.713,0,0,1-.7-.381,3.513,3.513,0,0,0-.363-.187.257.257,0,0,1-.047-.059.259.259,0,0,0-.07-.064c-.287-.158-.515-.392-.8-.545-.07-.035-.263-.363-.34-.4S110.336,46.839,110.289,46.839Z" transform="translate(-42.655 -14.069)" fill="#426af0"/>
  </g>
</svg>
