<svg xmlns="http://www.w3.org/2000/svg" width="73.104" height="70.076" viewBox="0 0 73.104 70.076">
  <g id="Layer_55" data-name="Layer 55" transform="translate(-7.31 -9.815)">
    <path id="Path_20794" data-name="Path 20794" d="M42.626,103.648c-4.135-.948-.052-8.251,4.226-13.754a51.359,51.359,0,0,0,4.4-6.78L49.581,81.92a70.761,70.761,0,0,1-5.522,7.961c-2.045,2.213-5.161,7.219-5.309,9.167S38.7,103.648,42.626,103.648Z" transform="translate(-11.144 -25.588)" fill="#426af0"/>
    <path id="Path_20795" data-name="Path 20795" d="M76.06,91.822c-9.238-.406-31.392-28.747-31.392-28.747,1.987-.9,4.374-4.716,4.374-4.716l-.961-1.019s-3.348,4.516-5.98,4.955c0,0-.7,0,.419,1.084s10.457,11.29,12.341,13.651,13.315,14.148,16.515,15.1c3.013.9,3.013.9,3.871.258Z" transform="translate(-12.269 -16.866)" fill="#426af0"/>
    <path id="Path_20796" data-name="Path 20796" d="M29.229,59a12.754,12.754,0,0,1-5.522-.187l-.974-.271c-.323-.09-.645-.239-.942-.355a15.528,15.528,0,0,1-3.064-1.761c-.452-.374-.923-.729-1.348-1.129a16.078,16.078,0,0,1-1.219-1.29,14.4,14.4,0,0,1-.981-1.213,12.218,12.218,0,0,1-.871-1.29l-.51-.852c-.148-.3-.284-.6-.426-.9a4.251,4.251,0,0,1-.355-.929c-.084-.323-.168-.645-.226-.968s.039-.381.3-.1a5.993,5.993,0,0,1,1.019,1.419,18.276,18.276,0,0,0,4.561,6.122,13.193,13.193,0,0,0,4.109,2.355,11.889,11.889,0,0,0,5.161.69c.535-.065,1.071-.155,1.593-.271a7.8,7.8,0,0,0,1.535-.51,12.851,12.851,0,0,0,4.084-2.613A10.109,10.109,0,0,0,37.273,51.9a7.56,7.56,0,0,0,.3-.748c.348-.942.445-1.239.768-1.4a2.051,2.051,0,0,1,.206-.1c.206-.065.323.413.116,1.2a10.806,10.806,0,0,1-4.3,5.935A13.425,13.425,0,0,1,29.2,59.061Z" transform="translate(-1.939 -13.4)" fill="#426af0"/>
    <path id="Path_20797" data-name="Path 20797" d="M33.441,43.533c.1-.129.516-.645.961-1.123s.916-.929,1.006-1.006.761-.6.832-.645l.174-.129.174-.116h.052v-.232l-.045-.329c0-.058-.09-.852-.174-1.677a9.148,9.148,0,0,0-.374-1.793c-.045-.123-.168-.51-.316-.9a9.432,9.432,0,0,0-.387-.89c-.039-.09.174-.2.219-.135a6.051,6.051,0,0,1,.477.923,12.458,12.458,0,0,1,.471,1.29c.155.5.252.948.258.987.09.335.168.684.232,1.026l.09.477.123.645.071.323.116.484c0,.039.045.09,0,.116l-.1.077-.206.168-.271.226-.471.4a13.128,13.128,0,0,0-1.29,1.29c-.226.258-.439.529-.645.794-.129.161-.284.3-.419.452s-.271.1-.458,0S33.363,43.63,33.441,43.533Z" transform="translate(-9.254 -8.774)" fill="#426af0"/>
    <path id="Path_20798" data-name="Path 20798" d="M83.473,52c-3.316-.774-9.032-4.742-11.3-4.742-.923,0-.09,3.5.335,3.671s-1.29.148-1.574-1.735a14.193,14.193,0,0,1,.329-4.464,32.861,32.861,0,0,0,5.548,3.058c1.677.477,7.638,3.387,7.638,3.387S83.892,52.1,83.473,52Z" transform="translate(-22.56 -12.391)" fill="#426af0"/>
    <path id="Path_20799" data-name="Path 20799" d="M68.413,55.42s.645.168.406,1.239-3.671,8.554-3.671,8.554L64,63.613Z" transform="translate(-20.118 -16.184)" fill="#426af0"/>
    <path id="Path_20800" data-name="Path 20800" d="M63.652,26.653c-.316,1.632-1.561,2.922-2.058,2.955-.258,0-.7.11-.645-.135-.239.8.3,2.4,1.116,1.613a11.109,11.109,0,0,0,1.258-1.593c.645-.968,2.858-2.432,2.277-3.768,0,0-.8-1.787-2.89-.277a.923.923,0,0,1,.942,1.206Z" transform="translate(-19.015 -5.332)" fill="#426af0"/>
    <path id="Path_20801" data-name="Path 20801" d="M91.042,38.292A15.767,15.767,0,0,0,88.6,35.924c-.329-.264-.645-.5-1.013-.755-1.206-.884-2.477-1.69-3.774-2.458-.574-.335-1.161-.645-1.742-.981A16.412,16.412,0,0,1,79.862,30.4c-.213-.187-.129-.213.1-.142a6.4,6.4,0,0,1,1.052.419c1.535.787,3.122,1.535,4.619,2.471.9.561,1.858,1.1,2.755,1.716a18.064,18.064,0,0,1,2.774,2.31,9.1,9.1,0,0,1,1.368,1.793,4.664,4.664,0,0,1,.361.793,7.673,7.673,0,0,1,.232.813c.09.406.568.645,1.039.9a9.335,9.335,0,0,1,2.284,1.29,3.788,3.788,0,0,1,.432.419,1.381,1.381,0,0,1,.381.7.677.677,0,0,1-.045.413.587.587,0,0,1-.077.142c-.1.116-.329-.1-.645-.406a4.819,4.819,0,0,0-1.639-1.226c-.323-.168-.645-.31-1.045-.49a3.69,3.69,0,0,1-1.168-.826,2.335,2.335,0,0,1-.471-1.1,3.6,3.6,0,0,0-.258-.723,6.51,6.51,0,0,0-.871-1.368Z" transform="translate(-25.704 -7.243)" fill="#426af0"/>
    <path id="Path_20802" data-name="Path 20802" d="M38.254,43.318a11.438,11.438,0,0,1-2.477,4.232,13.548,13.548,0,0,1-3.871,2.884c-.535.258-1.064.5-1.613.71a17.728,17.728,0,0,1-1.7.5,13,13,0,0,1-6.18-.2,14.947,14.947,0,0,1-5.458-2.819,17.915,17.915,0,0,1-3.645-4.006A13.225,13.225,0,0,1,11,38.17c-.052-.716.1-.645.426-.09a10.4,10.4,0,0,1,.613,1.11,9.032,9.032,0,0,1,.729,1.542A16.87,16.87,0,0,0,16.2,46.26a14.535,14.535,0,0,0,5.361,3.735l.942.335a8.549,8.549,0,0,0,.974.232,11.756,11.756,0,0,0,2.019.252h1.529a2.666,2.666,0,0,0,.5-.084l1.006-.174.974-.3a11.819,11.819,0,0,0,6.9-5.5,9.864,9.864,0,0,0,.961-2.58,13.264,13.264,0,0,0,.29-2.768v-.529l-.052-.529c-.039-.348-.058-.7-.11-1.052a15.542,15.542,0,0,0-6.825-10.412c-.406-.226-.793-.477-1.213-.677-1.555-.761-2.058-.813-2.368-1.29a2.019,2.019,0,0,1-.219-.29c-.071-.155.077-.252.445-.3a4.141,4.141,0,0,1,.7,0c.264.052.574.129.923.232a13.367,13.367,0,0,1,5.284,3.555,17.605,17.605,0,0,1,3.529,5.49,14.709,14.709,0,0,1,.555,9.709Z" transform="translate(-1.308 -5.146)" fill="#426af0"/>
    <path id="Path_20803" data-name="Path 20803" d="M35.046,38.773a.1.1,0,0,0,0-.058l-.084-.542c-.084-.374-.174-.755-.271-1.129s-.181-.542-.239-.819c-.239-.974-.484-1.935-.768-2.922a12.715,12.715,0,0,0-.452-1.29,6.187,6.187,0,0,1-.548-1.613c0-.181.213-.252.51-.206a1.11,1.11,0,0,1,.8.516,16.773,16.773,0,0,1,1.077,3.368c.142.7.432,1.374.645,2.077l.3,1.155.284,1.226.123.548a.761.761,0,0,1,.039.258l-.245.142-.477.284-.329.2a10.206,10.206,0,0,0-1.716,1.29,10.619,10.619,0,0,0-1.045,1.29c-.071.1-.142.2-.219.29-.3.348-.452.406-.768.258a2.135,2.135,0,0,1-.213-.1c-.219-.135-.258-.413-.09-.729a8.5,8.5,0,0,1,2.116-2.477,11.336,11.336,0,0,1,1.006-.7l.264-.168.226-.142h.039Z" transform="translate(-8.499 -7.227)" fill="#426af0"/>
    <path id="Path_20804" data-name="Path 20804" d="M22.057,47.914l-1.445-.742c-.181-.09-.374-.142-.555-.232-.645-.316-1.239-.716-1.864-1.052-.277-.155-.568-.277-.845-.426a4.858,4.858,0,0,1-1.039-.645c-.1-.084,0-.194.142-.284a.942.942,0,0,1,.645-.1,9.612,9.612,0,0,1,1.155.361,8.929,8.929,0,0,1,1.09.529c.426.239.923.361,1.381.568l1.51.645.929.419c.477.206.942.432,1.426.645.374.148.768.226,1.161.361l.258.084c.31.148.361.284.239.645a.675.675,0,0,1-.084.232.542.542,0,0,1-.574.335,8.1,8.1,0,0,1-2.013-.645l-1.484-.684Z" transform="translate(-3.18 -12.278)" fill="#426af0"/>
    <path id="Path_20805" data-name="Path 20805" d="M73.891,82.017a24.573,24.573,0,0,1,2.226,3.013,8.329,8.329,0,0,1,1.29,3.748,3.916,3.916,0,0,1-.426,2.168,4.819,4.819,0,0,1-2.5,2.006l-.555.116a5.079,5.079,0,0,1-.542,0,6.193,6.193,0,0,1-1.993-.4,18.147,18.147,0,0,1-4.735-2.761,61.066,61.066,0,0,1-6.929-6.342c-2.161-2.258-4.226-4.587-6.238-6.961-1.787-2.11-3.548-4.238-5.361-6.277-1.161-1.316-2.348-2.606-3.535-3.9s-2.361-2.58-3.568-3.78c-.09-.09-.161-.174-.226-.252s-.1-.1-.135-.148-.1-.155-.071-.194.323-.084.8.1a11.677,11.677,0,0,1,3.826,2.839c2.451,2.651,4.787,5.374,7.1,8.154s4.587,5.5,7,8.167c1.439,1.6,2.987,3.155,4.6,4.651a38.534,38.534,0,0,0,5.116,4.09,12.8,12.8,0,0,0,3.1,1.548,4.477,4.477,0,0,0,1.574.187,2.432,2.432,0,0,0,.69-.2,3.4,3.4,0,0,0,.645-.419,2.58,2.58,0,0,0,1.058-2.7,8.509,8.509,0,0,0-1.413-3.09,33.7,33.7,0,0,0-2.742-3.471c-.974-1.1-2.019-2.181-3.045-3.226-3.148-3.226-6.342-6.5-9.548-9.677-2.49-2.458-5-4.793-7.5-7.18L50.2,60.27c-2.051-1.974-2.58-2.71-2.774-3.4a1.936,1.936,0,0,1-.11-.458c0-.181.245-.129.69.148a15.65,15.65,0,0,1,1.877,1.484c4.587,4.148,9.27,8.69,13.889,13.335q2.58,2.58,5.122,5.213c1.69,1.761,3.419,3.516,5.019,5.413Z" transform="translate(-11.81 -16.499)" fill="#426af0"/>
    <path id="Path_20806" data-name="Path 20806" d="M80.384,44.481c-1.852-.813-3.709-1.619-5.554-2.464-.677-.31-1.368-.587-2.039-.929a18.4,18.4,0,0,1-1.755-.993,17.711,17.711,0,0,1-1.619-1.206,7.9,7.9,0,0,1-2.51-3.226,6.013,6.013,0,0,1-.368-1.845,7.1,7.1,0,0,1,.206-1.826,9.032,9.032,0,0,1,.774-2.174,5.638,5.638,0,0,1,1.387-1.9c.4-.3.458-.1.374.342a7.329,7.329,0,0,1-.51,1.851,15.4,15.4,0,0,0-.645,1.968,5.845,5.845,0,0,0-.245,1.935,5.432,5.432,0,0,0,1.748,3.458,10.244,10.244,0,0,0,2.084,1.613,24.247,24.247,0,0,0,2.413,1.252c1.826.858,3.7,1.671,5.561,2.484l3.451,1.5c1.742.761,3.484,1.548,5.206,2.329,1.342.606,2.677,1.155,3.987,1.845.284.148.568.3.858.477,1.039.645,1.29,1.071,1.245,1.5a1,1,0,0,1-.058.265c-.135.213-.535,0-1.226-.394A34.341,34.341,0,0,0,89.706,48.6q-1.81-.842-3.69-1.664l-5.632-2.426Z" transform="translate(-21.019 -6.374)" fill="#426af0"/>
    <path id="Path_20807" data-name="Path 20807" d="M89.615,37.633a10.264,10.264,0,0,0-3.342-3.671c-.51-.381-1.077-.69-1.619-1.032a60.2,60.2,0,0,0-6.116-3.187c-.929-.432-1.89-.826-2.839-1.226A15.625,15.625,0,0,1,72.145,26.7c-.342-.258-.142-.452.3-.516a3.626,3.626,0,0,1,1.793.264c2.393,1.064,4.909,2.045,7.329,3.322,1.452.755,3.013,1.458,4.458,2.361a14.838,14.838,0,0,1,4.213,3.78A8.329,8.329,0,0,1,91.1,37.5c.123.271.194.568.29.852l.09.445.052.226V39.5a.767.767,0,0,0,.142.077l.452.226a12.436,12.436,0,0,1,1.1.645A12.3,12.3,0,0,1,95.214,42a10.6,10.6,0,0,1,2.342,3.348,7.446,7.446,0,0,1,.316.852,5.644,5.644,0,0,1,.142.7,2.812,2.812,0,0,1,0,.49.974.974,0,0,1-.3.568,2.238,2.238,0,0,1-.194.174c-.226.123-.464-.3-.787-.974a12.489,12.489,0,0,0-1.458-2.884,9.838,9.838,0,0,0-2.31-2.316,12.406,12.406,0,0,0-1.193-.748l-.316-.161-.419-.206c-.1-.045-.226-.1-.329-.161a.684.684,0,0,1-.226-.265l-.045-.071h0c.071-.052-.1.065-.084.052h0l-.058-.161-.116-.329a5.755,5.755,0,0,0-.206-1.239c-.058-.161-.1-.323-.161-.484l-.232-.516Z" transform="translate(-22.947 -5.803)" fill="#426af0"/>
    <path id="Path_20808" data-name="Path 20808" d="M70.763,43.041a5.161,5.161,0,0,1,.3,1.768c.039.768.045,1.484.052,1.619s0,1.077,0,1.168v.723a2.477,2.477,0,0,0,.135.735.367.367,0,0,1,.039.11c.039,0,0,.039.148.135a9.14,9.14,0,0,0,1.1.587l1.935.974a7.573,7.573,0,0,1,.981.587c.406.29.781.645.91.735s-.148.342-.226.3c-.316-.2-.645-.374-.974-.561a12.773,12.773,0,0,0-1.348-.645c-.535-.226-1.026-.413-1.064-.426-.381-.116-.768-.239-1.155-.381a5.477,5.477,0,0,1-.548-.226l-.2-.1-.1-.058-.071-.116a1.29,1.29,0,0,1-.355-.458,3.7,3.7,0,0,1-.277-.877,10.688,10.688,0,0,1-.194-1.522l-.058-2.142c0-.394-.077-.781-.09-1.155a2.458,2.458,0,0,1,0-.645c0-.142.155-.3.271-.452s.2-.045.381.039A1.129,1.129,0,0,1,70.763,43.041Z" transform="translate(-22.133 -11.65)" fill="#426af0"/>
    <path id="Path_20809" data-name="Path 20809" d="M42.458,104.081a3.871,3.871,0,0,1-2.2-.245,4.98,4.98,0,0,1-1.742-1.193,3.639,3.639,0,0,1-.955-1.935,5.458,5.458,0,0,1,.058-2.051A10.464,10.464,0,0,1,38.548,96a17.683,17.683,0,0,1,1.206-2.1c.439-.645.9-1.29,1.348-1.935l2.748-3.819c.813-1.129,1.606-2.284,2.38-3.426a37.8,37.8,0,0,1,3.129-4.309c.368-.413.477-.252.413.271a5.754,5.754,0,0,1-.819,2.3c-2.039,2.993-4.18,5.916-6.38,8.825A26.011,26.011,0,0,0,39.18,97.4a7.793,7.793,0,0,0-.49,1.652,3.935,3.935,0,0,0,0,1.626,3.109,3.109,0,0,0,2.168,2.168,2.78,2.78,0,0,0,1.935-.058,5.561,5.561,0,0,0,1.755-1.155,21.934,21.934,0,0,0,3.929-5.438c.845-1.542,1.522-3.129,2.258-4.722.161-.348.323-.69.5-1.039.645-1.29,1.039-1.645,1.5-1.71A1.451,1.451,0,0,1,53,88.65c.116,0,.116.129.09.413a3.413,3.413,0,0,1-.348,1.148,56.905,56.905,0,0,1-4.445,8.7,21.218,21.218,0,0,1-2.342,3.039,10.322,10.322,0,0,1-1.51,1.29,5.342,5.342,0,0,1-1.981.864Z" transform="translate(-10.711 -24.97)" fill="#426af0"/>
    <path id="Path_20810" data-name="Path 20810" d="M63.34,62.741a11.732,11.732,0,0,1,.645-1.039l.645-.981c.071-.123.426-.645.458-.735l.316-.458c.161-.232.329-.49.374-.574s1.464-2.251,1.561-2.542c.084-.187.69-1.226.787-1.387,0-.045.368-.039.368.058a1.864,1.864,0,0,1-.226.884c-.194.387-.845,1.716-.877,1.774l-.4.819-.168.374-.477,1.039c-.148.329-.271.645-.432.981L65.2,62.36c-.129.265-.252.542-.394.806a2.541,2.541,0,0,1-.335.413c-.039.052-.135.052-.252,0a3.446,3.446,0,0,0-.4-.116.361.361,0,0,1-.168-.123,1.883,1.883,0,0,1-.187-.245A.587.587,0,0,1,63.34,62.741Z" transform="translate(-19.884 -16.034)" fill="#426af0"/>
    <path id="Path_20811" data-name="Path 20811" d="M75.168,61.919c.645-.839,1.29-1.658,2.013-2.445.265-.29.5-.594.787-.858a12.135,12.135,0,0,1,3.38-2.361l1.613-.787c.335-.161.645-.348.993-.5l1-.439c.206-.09.3.071.245.355a1.606,1.606,0,0,1-.645.961c-1.393.8-2.806,1.29-4.058,2.013a10.109,10.109,0,0,0-2.032,1.806,28.633,28.633,0,0,0-1.935,2.368c-.374.51-.748,1.026-1.1,1.555-.535.781-1.09,1.561-1.593,2.406-.387.645-.716,1.29-1.135,1.935-.084.135-.174.277-.277.413a1.5,1.5,0,0,1-.49.464.574.574,0,0,1-.374.071,1.015,1.015,0,0,1-.155,0c-.148-.052-.1-.342.052-.755.271-.606.568-1.193.871-1.813s.723-1.213,1.052-1.806c.535-.9,1.155-1.755,1.768-2.619Z" transform="translate(-22.712 -15.858)" fill="#426af0"/>
    <path id="Path_20812" data-name="Path 20812" d="M64.36,32.929c.323.168.645.323.987.477l.51.226.284.1.168.045a.942.942,0,0,0,.284,0c.039,0,0-.239,0-.471l-.039-.213a.789.789,0,0,1,0-.174v-.084h-.09l-.226-.084-.464-.2c-.316-.148-.645-.3-.942-.464a.516.516,0,0,0-.077.129L64.6,32.5a3.043,3.043,0,0,0-.239.426Z" transform="translate(-20.246 -7.905)" fill="#426af0"/>
    <path id="Path_20813" data-name="Path 20813" d="M65.73,30.317l1.793.71a6.9,6.9,0,0,0,.348-.877l-1.793-.71a7.741,7.741,0,0,0-.348.877Z" transform="translate(-20.732 -6.964)" fill="#426af0"/>
    <path id="Path_20814" data-name="Path 20814" d="M64.815,26.156a1.594,1.594,0,0,0-.323.458l-.265.464-.516.929c-.348.606-.7,1.206-1.1,1.761a5.722,5.722,0,0,1-.645.755,1.839,1.839,0,0,1-.316.245c-.1.045-.123.039-.123.039a.581.581,0,0,1-.135-.181l-.039-.135a1.832,1.832,0,0,1-.039-.2,3.619,3.619,0,0,1,.045-.942,10.883,10.883,0,0,1,1.445-3.768,2.749,2.749,0,0,1,.284-.348l.071-.071H63.2s.09-.039.142-.058a1.29,1.29,0,0,1,.768.039,1.677,1.677,0,0,1,.645.406c.148.194.232.329.174.5,0,.071.574.645.742.355a1.29,1.29,0,0,0-.194-1.464,2.355,2.355,0,0,0-1.1-.729,2.219,2.219,0,0,0-1.329,0,1.536,1.536,0,0,0-.342.155,1.735,1.735,0,0,0-.174.129l-.116.123a3.058,3.058,0,0,0-.374.484,10.47,10.47,0,0,0-.987,2,10.645,10.645,0,0,0-.561,2.1,4.2,4.2,0,0,0-.045,1.181.681.681,0,0,0,.052.316c.052.11.077.232.123.342a1.206,1.206,0,0,0,.555.594,1.019,1.019,0,0,0,.91-.058,2.439,2.439,0,0,0,.542-.387,7.671,7.671,0,0,0,.748-.871c.432-.6.813-1.219,1.174-1.832a16.256,16.256,0,0,0,1.019-1.832C65.583,26.5,64.97,26.046,64.815,26.156Z" transform="translate(-18.85 -5.074)" fill="#426af0"/>
    <path id="Path_20815" data-name="Path 20815" d="M113.633,39.85c-.065.077-.148-.032-.245-.258a1.019,1.019,0,0,1-.058-.335,1.8,1.8,0,0,1,.1-.194s.4-.213.529-.29a1.206,1.206,0,0,1,.387-.135l.813-.194a.6.6,0,0,1,.187,0,1.5,1.5,0,0,0,.645-.065.1.1,0,0,0,.1-.058,1.755,1.755,0,0,1,.7-.161c.194.045.387.058.581.09h.084c.026,0,.129.077.187.077a.8.8,0,0,1,.245,0c.045,0,.09.071.135.116a.368.368,0,0,1,0,.226c0,.058,0,.135,0,.2a.291.291,0,0,1,0,.071,1.994,1.994,0,0,1-.452.381l-.335.09-.374.116h-.116c-.039,0-.516.168-.542.168a.545.545,0,0,1-.329,0h-.065a3.226,3.226,0,0,1-.561.058,2.189,2.189,0,0,0-.284.052c-.1.013-.039,0-.058,0a.11.11,0,0,0-.065,0,4.825,4.825,0,0,0-.645.129c-.052,0-.316-.045-.374,0S113.653,39.818,113.633,39.85Z" transform="translate(-37.624 -10.059)" fill="#426af0"/>
    <path id="Path_20816" data-name="Path 20816" d="M104.218,25.014c-.084-.039,0-.129.219-.258a.981.981,0,0,1,.31-.116,1.045,1.045,0,0,1,.2.065,4.688,4.688,0,0,1,.348.477,1.2,1.2,0,0,1,.161.361c.077.252.155.51.226.761a.419.419,0,0,1,0,.181,1.458,1.458,0,0,0,.084.6.1.1,0,0,0,.052.09,1.593,1.593,0,0,1,.161.645c-.039.187-.052.368-.09.561v.077a.155.155,0,0,0-.077.174.819.819,0,0,1-.045.245.535.535,0,0,1-.123.116c-.039.032-.2,0-.213,0h-.258a2.29,2.29,0,0,1-.335-.413.714.714,0,0,0-.077-.3,2.491,2.491,0,0,0-.116-.335c0-.032,0-.071,0-.11s-.168-.471-.174-.49a.422.422,0,0,1,0-.3.065.065,0,0,0,0-.058,2.627,2.627,0,0,1-.077-.51,1.8,1.8,0,0,0-.065-.252v-.052a.11.11,0,0,0,0-.065,3.869,3.869,0,0,0-.168-.594v-.335C104.16,25.137,104.257,25.034,104.218,25.014Z" transform="translate(-34.37 -5.261)" fill="#426af0"/>
    <path id="Path_20817" data-name="Path 20817" d="M29.1,14.8c.052.084-.071.129-.3.168a.69.69,0,0,1-.3-.039,1.032,1.032,0,0,1-.135-.168c0-.032-.065-.529-.084-.7a1.593,1.593,0,0,1,0-.464l.129-.89a.51.51,0,0,1,.065-.181,1.548,1.548,0,0,0,.161-.645.142.142,0,0,0,0-.11,2.006,2.006,0,0,1,0-.645,1.819,1.819,0,0,0,.168-.51v-.077a.161.161,0,0,0,.058-.181v-.239a.716.716,0,0,1,.052-.155c0-.052.123-.09.142-.084s.09-.039.129-.065a.084.084,0,0,1,.045,0,2.309,2.309,0,0,1,.561.458,4.7,4.7,0,0,1,.316.948.29.29,0,0,1,0,.148s.052.69.039.71a.451.451,0,0,1-.123.381c-.123.11,0,.052,0,.077a2.529,2.529,0,0,1-.2.645c-.039.1-.058.213-.09.316s0,0,0,.045a.387.387,0,0,0-.039.071,5.529,5.529,0,0,0-.2.71c0,.052-.168.284-.168.348S29.084,14.766,29.1,14.8Z" transform="translate(-7.44)" fill="#426af0"/>
    <path id="Path_20818" data-name="Path 20818" d="M12.31,25.935c.1-.045.129.1.129.361a.826.826,0,0,1-.1.348,1.174,1.174,0,0,1-.194.135,6.49,6.49,0,0,1-.735,0,1.748,1.748,0,0,1-.49-.11c-.31-.123-.645-.232-.923-.355a.852.852,0,0,1-.187-.123,1.935,1.935,0,0,0-.645-.355c-.039,0-.071-.039-.123,0a2.2,2.2,0,0,1-.729-.31c-.161-.155-.329-.277-.5-.413a.069.069,0,0,1-.065-.071c-.006-.071-.084-.135-.135-.174a.821.821,0,0,1-.3-.394.343.343,0,0,1,.052-.168c.019-.013.032-.09.045-.142a.155.155,0,0,0,0-.052A2.832,2.832,0,0,1,8.116,24s.793.2.884.213.077.052.116.084.645.161.645.174c.116.058.245.077.316.226a.116.116,0,0,0,.065.039,3.748,3.748,0,0,1,.568.316,2.465,2.465,0,0,0,.3.135.1.1,0,0,1,.045.045.257.257,0,0,0,.058.045,3.619,3.619,0,0,0,.7.277c.058,0,.277.213.348.219S12.271,25.935,12.31,25.935Z" transform="translate(0 -5.034)" fill="#426af0"/>
    <path id="Path_20819" data-name="Path 20819" d="M27.265,110.8c-.039-.116.09-.181.323-.194a.645.645,0,0,1,.3.084c.045.065.09.129.123.187a4.3,4.3,0,0,0,.1.645c.032.155.052.3.071.445a3.032,3.032,0,0,0,.239.858,1.077,1.077,0,0,1,.052.194,1.194,1.194,0,0,0,.316.645.18.18,0,0,0,.1.071,3.49,3.49,0,0,1,.548.523,2.645,2.645,0,0,0,.413.484.069.069,0,0,1,.065.071c.006.071.09.123.148.155s.161.09.245.148a.98.98,0,0,1,.1.148c0,.045,0,.161-.045.168s-.032.09-.045.142a.123.123,0,0,1,0,.052,2.3,2.3,0,0,1-.761,0s-.239-.084-.477-.194a4.813,4.813,0,0,1-.523-.29.374.374,0,0,1-.116-.129,4.148,4.148,0,0,1-.645-.574.864.864,0,0,1-.226-.445.142.142,0,0,0-.039-.084,2.819,2.819,0,0,1-.31-.781c-.045-.148-.077-.271-.123-.406a.31.31,0,0,1,0-.077.555.555,0,0,0,0-.1,7.193,7.193,0,0,1-.09-.987,5.058,5.058,0,0,1,.116-.523C27.1,110.978,27.277,110.862,27.265,110.8Z" transform="translate(-6.988 -35.77)" fill="#426af0"/>
  </g>
</svg>
