<svg xmlns="http://www.w3.org/2000/svg" width="64.505" height="66.565" viewBox="0 0 64.505 66.565">
  <g id="Layer_10" data-name="Layer 10" transform="translate(-12.018 -9)">
    <path id="Path_20691" data-name="Path 20691" d="M20.839,58.024c.049-2.992.086-5.953.049-8.939l-.067-3.261c-.043-3.83-.1-7.66-.239-11.49-.061-1.7-.165-3.408-.306-5.084-.2-2.154-.379-4.326-.551-6.442-.043-.661.128-.612.471-.116a6.375,6.375,0,0,1,1,2.8,66.041,66.041,0,0,1,.526,6.669q.147,3.334.159,6.687c0,2.674.153,5.457.2,8.192.055,3,.08,6.02.049,9.03,0,1.835-.037,3.671,0,5.543.031,2.8.08,5.6.306,8.364.177,2.147.5,4.234.857,6.326.086.459.165.912.251,1.37.3,1.725.33,2.282,0,2.723a1.915,1.915,0,0,1-.214.294c-.263.22-.612-.441-.942-1.7A64.069,64.069,0,0,1,20.913,67.1c-.141-3.022-.116-6.051-.11-9.067Z" transform="translate(-2.989 -5.169)" fill="#426af0"/>
    <path id="Path_20692" data-name="Path 20692" d="M34.9,102.9c2.992.153,6,.214,8.994.184,1.1,0,2.184-.086,3.279-.1,3.854-.1,7.715-.33,11.545-.771,1.7-.2,3.4-.471,5.072-.777,1.071-.214,2.141-.422,3.206-.673s2.141-.416,3.218-.612c.673-.11.612.08.135.441a9.177,9.177,0,0,1-2.661,1.291c-2.19.563-4.417.942-6.651,1.3a65.583,65.583,0,0,1-6.73.661c-2.71.165-5.506.416-8.29.5q-4.558.147-9.134,0c-1.872-.061-3.744-.141-5.617-.257l-8.468-.612c-2.184-.153-4.326-.239-6.491-.41-.471-.043-.942-.061-1.419-.116-1.774-.19-2.325-.385-2.643-.844a1.726,1.726,0,0,1-.208-.312c-.122-.343.612-.5,1.921-.416,3.836.245,7.862.569,11.931.869,3.029.22,6.039.483,9.061.612Z" transform="translate(0 -35.37)" fill="#426af0"/>
    <path id="Path_20693" data-name="Path 20693" d="M34.071,70.989v5l.067,1.835c.055,2.141.086,4.283.3,6.4a3.315,3.315,0,0,0,.1.655.234.234,0,0,0,.043.171c.043.055.043.11.1.116a.826.826,0,0,0,.177,0,2.7,2.7,0,0,0,.324,0h.7c.612-.043,1.187-.135,1.78-.214s1.224-.122,1.793-.19c.349-.037.379.153.11.441a3.157,3.157,0,0,1-1.511.85c-.612.1-1.187.2-1.793.263-.306,0-.612.055-.93.061a4.647,4.647,0,0,1-.5,0,2.135,2.135,0,0,1-.4-.067c-.135-.037-.269-.067-.4-.116-.545-.251-.612-1.224-.612-1.389-.043-.343-.073-.679-.1-1.016-.043-.667-.061-1.328-.067-1.995,0-1.511-.135-3.059-.171-4.6-.08-1.725-.08-3.414-.08-5.1l.043-3.114c0-.789.043-1.579.086-2.368a11.06,11.06,0,0,1,.086-1.187,5.274,5.274,0,0,1,.092-.679c.049-.263.135-.551.41-.612a2.086,2.086,0,0,1,.612,0l.471.037.893.08a15.362,15.362,0,0,0,1.756,0,3.328,3.328,0,0,0,.74-.055c.9-.1,1.077-.171,1.383-.08a.43.43,0,0,1,.214.037c.061.037.11.153,0,.343a1.7,1.7,0,0,1-.814.538,8.7,8.7,0,0,1-3.451.19l-.844-.073H34.3c-.031.251-.055.526-.073.8-.092,1.634-.116,3.328-.116,5Z" transform="translate(-8.145 -21.377)" fill="#426af0"/>
    <path id="Path_20694" data-name="Path 20694" d="M43.361,76.713,43.3,78.977V79.8c0,.967-.067,1.939-.08,2.906,0,.434,0,.863.043,1.291l.061.82a4.852,4.852,0,0,1-.043.8.171.171,0,0,1-.049.073H43.2l-.08.031h-.1a.416.416,0,0,1-.141-.067,1.224,1.224,0,0,1-.52-.716,18.355,18.355,0,0,1-.037-3.383c.055-.679,0-1.377,0-2.074V73.666c0-.545-.092-1.083-.135-1.627a1.441,1.441,0,0,0-.031-.361c0-.453.073-.612.373-.679a1.224,1.224,0,0,1,.2-.049c.226,0,.41.159.459.477a18.355,18.355,0,0,1,.184,2.986v2.276Z" transform="translate(-11.696 -24.048)" fill="#426af0"/>
    <path id="Path_20695" data-name="Path 20695" d="M56.27,61.888c0,1.964,0,3.934.055,5.9L56.4,69.94c.055,2.527.1,5.06.251,7.574.037.563.08,1.12.147,1.67l.055.4.037.2v.11c0,.055,0,.141.086.165a.685.685,0,0,0,.2,0h.961l1.052-.11c.7-.1,1.413-.135,2.1-.214.416-.049.441.141.11.441a3.983,3.983,0,0,1-1.835.857,15.907,15.907,0,0,1-2.288.226h-.19a2.083,2.083,0,0,1-.275,0,2.576,2.576,0,0,1-.5-.141c-.061-.049-.165-.055-.2-.147a2.265,2.265,0,0,1-.171-.171,1.536,1.536,0,0,1-.19-.483l-.049-.263v-.153l-.006-.355-.073-.532c-.116-1.493-.147-2.961-.153-4.442,0-1.774-.128-3.61-.165-5.415q-.067-2.98-.08-5.959V59.533c0-1.835,0-3.708.1-5.561a7.954,7.954,0,0,1,.11-1.224.832.832,0,0,1,.128-.33.544.544,0,0,1,.3-.141,3.218,3.218,0,0,1,.734,0c.71.067,1.395.135,2.08.153h.887a9.049,9.049,0,0,1,1.64-.092h.232c.067,0,.122.159-.043.373a1.872,1.872,0,0,1-.991.569,12.116,12.116,0,0,1-3.989,0,22.638,22.638,0,0,0-.1,2.637v5.947Z" transform="translate(-16.774 -16.791)" fill="#426af0"/>
    <path id="Path_20696" data-name="Path 20696" d="M64.987,68.554l-.043,3.23v1.175l-.055,4.118c0,.612,0,1.224.049,1.835l.067,1.162a8.64,8.64,0,0,1-.055,1.144.294.294,0,0,1-.043.11s0,.043-.177.086h-.012a.434.434,0,0,1-.147-.1,1.97,1.97,0,0,1-.52-1.022,37.81,37.81,0,0,1-.061-4.784c.055-.961,0-1.952,0-2.937v-8.3c0-.777-.1-1.536-.153-2.307a2.4,2.4,0,0,0-.037-.508c0-.612.073-.85.367-.967.067,0,.135-.061.2-.08.232-.043.41.22.459.667a36.71,36.71,0,0,1,.226,4.24v3.23Z" transform="translate(-20.1 -19.957)" fill="#426af0"/>
    <path id="Path_20697" data-name="Path 20697" d="M78.74,50.965q0,3.573.1,7.14l.092,2.588c.073,3.059.153,6.118.306,9.177.067,1.352.184,2.723.355,4.032,0,.153,0,.177.043.245s0,.122.1.122h.8a9.141,9.141,0,0,0,1.071-.092c.716-.067,1.444-.122,2.16-.208.5-.067.508.128.1.447a5.3,5.3,0,0,1-2.221.887c-.361.049-.722.086-1.1.116h-.575a3.933,3.933,0,0,1-.471-.031,4.7,4.7,0,0,1-.483-.128c-.061-.049-.141-.073-.177-.147a.428.428,0,0,1-.159-.171,1.487,1.487,0,0,1-.165-.471l-.055-.263v-.153l-.037-.275c-.049-.367-.092-.722-.116-1.083-.061-.716-.1-1.432-.135-2.141q-.092-2.147-.11-4.283c0-2.141-.159-4.362-.214-6.546-.061-2.4-.1-4.8-.122-7.207V48.083c0-2.239,0-4.491.1-6.73,0-.538.043-1.071.086-1.615l.037-.4v-.208a1.653,1.653,0,0,1,.055-.294,1.285,1.285,0,0,1,.208-.514.483.483,0,0,1,.471-.165c.563.08.789.11,1.12.147s.612.067.948.086.722.037,1.083.043a10.884,10.884,0,0,0,1.346-.055,1.949,1.949,0,0,0,.575-.049,1.1,1.1,0,0,0,.239-.08c.055,0,.1,0,.11.08a.538.538,0,0,1-.11.367,1.9,1.9,0,0,1-1.224.649,8.676,8.676,0,0,1-2.062.092,8.046,8.046,0,0,1-1.016-.1c-.337-.043-.832-.122-.716-.092v.4c-.043.428-.061.881-.086,1.34-.037.905-.055,1.835-.067,2.765v7.189Z" transform="translate(-25.508 -11.313)" fill="#426af0"/>
    <path id="Path_20698" data-name="Path 20698" d="M87.622,57.525l-.055,4.521v1.646c0,1.939-.043,3.879-.067,5.818,0,.857,0,1.719.043,2.576,0,.545.043,1.1.061,1.646a11.733,11.733,0,0,1-.055,1.621.373.373,0,0,1-.049.159l-.043.049h0l-.1.037h0c.128-.043.049,0,.061,0h-.061a.544.544,0,0,1-.147-.147A3.347,3.347,0,0,1,86.692,74c-.1-2.239-.141-4.479-.043-6.73.055-1.352,0-2.753,0-4.136V51.474c0-1.089-.1-2.16-.153-3.243a4.719,4.719,0,0,0-.037-.716c0-.887.073-1.187.367-1.364.073-.037.141-.092.208-.116.226-.067.4.294.453.936.177,1.915.214,3.952.226,5.99v4.564Z" transform="translate(-28.897 -14.373)" fill="#426af0"/>
    <path id="Path_20699" data-name="Path 20699" d="M33.577,78.023l.061-1.591.092-1.591V73.685c.086-1.37.19-2.735.232-4.105,0-.612,0-1.224-.043-1.835a6.553,6.553,0,0,1,.073-2.313c.067-.245.355-.232.7-.055a2.735,2.735,0,0,1,.557.392,1.022,1.022,0,0,1,.367.612,20.723,20.723,0,0,1,.318,2.356,19.518,19.518,0,0,1-.08,2.386,22.027,22.027,0,0,0,.092,2.906c0,1.071.037,2.141,0,3.212v1.976c0,1-.037,2,0,2.992.049.765.257,1.517.355,2.276a4.961,4.961,0,0,1,.073.5.93.93,0,0,1-.2.679,1.071,1.071,0,0,1-.612.3,2.656,2.656,0,0,1-.367.086,1.009,1.009,0,0,1-1-.612,6.981,6.981,0,0,1-.526-2.05c-.092-.7-.128-1.413-.159-2.129-.037-1.058,0-2.129,0-3.2Z" transform="translate(-8.336 -21.833)" fill="#426af0"/>
    <path id="Path_20700" data-name="Path 20700" d="M56,70.409l.049-2.092.086-2.092V64.7c.073-1.8.171-3.591.208-5.39,0-.8,0-1.591-.037-2.38a13.313,13.313,0,0,1,.055-3.059c.055-.318.306-.294.612-.043a2.484,2.484,0,0,1,.5.532,1.554,1.554,0,0,1,.367.8c.122,1.034.245,2.068.288,3.108a28.109,28.109,0,0,1-.073,3.126c-.092,1.254.055,2.551.073,3.83v4.215l-.031,2.594c0,1.315,0,2.631.031,3.928.043,1.01.226,2,.318,3,0,.22.061.434.067.661a1.548,1.548,0,0,1-.171.881.906.906,0,0,1-.508.392,2.6,2.6,0,0,1-.324.116c-.355.08-.673-.257-.887-.844A22.117,22.117,0,0,1,56,74.661c-.031-1.4,0-2.808,0-4.215Z" transform="translate(-17.068 -17.327)" fill="#426af0"/>
    <path id="Path_20701" data-name="Path 20701" d="M78.417,61.33l.055-2.735.092-2.741V53.86c.08-2.343.177-4.687.22-7.036V43.71a23.248,23.248,0,0,1,.055-3.971c.055-.41.306-.379.612-.043a3.444,3.444,0,0,1,.471.7,2.509,2.509,0,0,1,.324,1.028c.122,1.352.245,2.7.281,4.062s0,2.716-.08,4.087c-.092,1.634.049,3.328.067,5v5.506l-.031,3.389c0,1.713-.037,3.432,0,5.133.043,1.322.226,2.612.318,3.916,0,.288.055.569.067.863,0,1.077-.214,1.426-.679,1.658a2.2,2.2,0,0,1-.324.153c-.355.1-.673-.337-.887-1.114a37.614,37.614,0,0,1-.612-7.25V61.324Z" transform="translate(-25.754 -11.815)" fill="#426af0"/>
    <path id="Path_20702" data-name="Path 20702" d="M107.683,95.247a.361.361,0,0,0,.1-.049l.061-.049c.031,0,.031,0,0-.037l-.1-.049-.073-.037-.3-.1c-.373-.116-.753-.208-1.12-.343-1.285-.471-2.533-1.022-3.775-1.585l-1.67-.722a5.506,5.506,0,0,1-2.019-1.285c-.184-.214.037-.324.343-.379a1.872,1.872,0,0,1,1.071.067c1.352.569,2.753,1.224,4.16,1.878a22.44,22.44,0,0,0,2.68.948l.551.171.275.086.153.043.239.061c.324.067.612.159.948.214l.973.165v.165l-.184.257c-.128.171-.245.318-.367.471s-.3.361-.465.532l-.532.5c-.306.269-.526.441-.8.661-.789.612-1.6,1.187-2.368,1.793-.612.465-1.138.991-1.695,1.487-.122.11-.239.232-.361.337-.477.392-.685.441-1.01.245a2.006,2.006,0,0,1-.226-.135c-.214-.177-.159-.514.147-.869a19.866,19.866,0,0,1,3.139-2.79l1.26-.93.612-.471.294-.239c.055-.037.031,0,.049,0Z" transform="translate(-33.656 -31.66)" fill="#426af0"/>
    <path id="Path_20703" data-name="Path 20703" d="M55.678,27.8a49.6,49.6,0,0,1-6.2,2.753c-.777.269-1.536.612-2.313.844a62.537,62.537,0,0,1-8.4,1.909l-1.9.275c-.612.086-1.266.141-1.9.2-.808.067-1.621.116-2.447.122a11.448,11.448,0,0,1-2.447-.2c-.514-.122-.4-.2.031-.257a6.337,6.337,0,0,0,.881-.147,11.165,11.165,0,0,1,1.224-.135c.808-.031,1.615-.159,2.447-.245l1.224-.177c.4-.049.808-.1,1.224-.171,1.609-.245,3.218-.557,4.821-.9a42.142,42.142,0,0,0,5.714-1.787c1.022-.416,2.074-.765,3.059-1.254s2.037-.869,3-1.419l1.835-.954c.612-.3,1.162-.7,1.744-1.052a45.141,45.141,0,0,0,5.041-3.573c.612-.538,1.162-1.083,1.719-1.634l.844-.82c.281-.275.526-.612.789-.875s.447-.52.685-.771c.881-.942,1.224-1.156,1.762-1.077a2.643,2.643,0,0,1,.343.061c.337.128.165.7-.434,1.468a24.344,24.344,0,0,1-2.967,3.316c-.557.508-1.126,1.016-1.695,1.523s-1.224.924-1.835,1.389l-1.413,1.01c-.465.33-.973.612-1.456.912A30.514,30.514,0,0,1,55.7,27.859Z" transform="translate(-6.875 -2.89)" fill="#426af0"/>
    <path id="Path_20704" data-name="Path 20704" d="M91.181,11.178v-.245c0-.043-.049,0-.08,0a.881.881,0,0,0-.177.067c-.294.165-.612.349-.893.5a12.707,12.707,0,0,1-3.4,1.052c-.526.086-1.052.177-1.572.239a6.975,6.975,0,0,1-2.019.043c-.208,0-.177-.22,0-.428a1.413,1.413,0,0,1,.844-.489c1.3-.177,2.551-.4,3.83-.661a9.018,9.018,0,0,0,2.2-.912l.453-.245.667-.379c.245-.135.477-.269.71-.385A6.931,6.931,0,0,1,92.405,9l-.08,1.1-.08,1.224-.067.85a16.269,16.269,0,0,1-.441,2.582,11.166,11.166,0,0,1-.612,1.952,3.542,3.542,0,0,1-.19.41c-.281.5-.477.581-.783.5a.552.552,0,0,1-.208-.067c-.214-.1-.245-.4-.086-.728a13.925,13.925,0,0,0,1.028-3.169c.073-.422.147-.85.19-1.291,0-.214.043-.441.061-.661l.037-.532Z" transform="translate(-27.512)" fill="#426af0"/>
  </g>
</svg>
