<svg xmlns="http://www.w3.org/2000/svg" width="65.276" height="77.205" viewBox="0 0 65.276 77.205">
  <g id="Layer_27" data-name="Layer 27" transform="translate(-14.617 -5.705)">
    <path id="Path_20765" data-name="Path 20765" d="M83.714,68.605a20.546,20.546,0,0,1,.515-5.128A22.615,22.615,0,0,1,86,58.685c.278-.549.555-1.1.846-1.639l.443-.793c.145-.264.35-.575.515-.813.74-1.038,1.474-2.016,2.121-3.033a11.769,11.769,0,0,0,.853-1.533,2.386,2.386,0,0,0,.317-1.229.271.271,0,0,0-.172-.165l-.126-.046-.245-.04a4.8,4.8,0,0,0-1.143.04,8.2,8.2,0,0,0-2.3.707,7.2,7.2,0,0,0-2.135,1.513,10.574,10.574,0,0,0-1.527,2.174c-1.143,2.035-1.936,4.3-3.2,6.4-.41.661-.661.383-.661-.317a8.592,8.592,0,0,1,.714-3.139c.482-1.123.985-2.26,1.573-3.384a14.382,14.382,0,0,1,1.011-1.652,8.109,8.109,0,0,1,1.368-1.54,9.477,9.477,0,0,1,3.536-1.936,8.465,8.465,0,0,1,2.022-.35,4.9,4.9,0,0,1,1.1.066,2.776,2.776,0,0,1,.734.238,1.646,1.646,0,0,1,.595.509c.04.079.086.145.119.225a2.432,2.432,0,0,1,.152.925,3.185,3.185,0,0,1-.1.7c-.053.211-.126.41-.192.608l-.238.562a18.174,18.174,0,0,1-1.143,2.022c-.416.661-.846,1.256-1.275,1.864l-.621.932c-.185.271-.363.582-.549.905a27.758,27.758,0,0,0-2.1,4.355,18.187,18.187,0,0,0-1.031,4.653,20.011,20.011,0,0,0,.449,5.908,31.279,31.279,0,0,0,3.4,8.413,47.674,47.674,0,0,0,3.965,5.756l.958,1.19c1.209,1.494,1.507,2.042,1.467,2.61a2.182,2.182,0,0,1,0,.383c-.112.33-.819-.112-1.791-1.17A46.341,46.341,0,0,1,86.3,78.531a33.367,33.367,0,0,1-1.811-4.791,25.18,25.18,0,0,1-.833-5.122Z" transform="translate(-22.034 -14.309)" fill="#426af0"/>
    <path id="Path_20766" data-name="Path 20766" d="M68.618,23.213a2.035,2.035,0,0,1,.971-1.09,1.494,1.494,0,0,1,1.368.073,1.011,1.011,0,0,1,.3.211,2.035,2.035,0,0,1,.271.251c.159.211.35.41.482.628a9.912,9.912,0,0,1,.482.872,15.305,15.305,0,0,1,1.183,3.516,15.59,15.59,0,0,1,.423,2.643c.178,3.066.1,6.087.04,9.107v6.562c0,.839-.079,1.705,0,2.5,0,.238,0,.284-.046.337s-.2,0-.357-.238a4.276,4.276,0,0,1-.463-.912,4.533,4.533,0,0,1-.33-1.322,100.621,100.621,0,0,1-.093-10.475,42,42,0,0,0-.37-6.325,17.9,17.9,0,0,0-.846-3.3,13.436,13.436,0,0,0-.661-1.553,3.814,3.814,0,0,0-.192-.363l-.093-.159-.053-.093a1.011,1.011,0,0,0-.264-.291.3.3,0,0,0-.416.152.879.879,0,0,0-.106.225,2.643,2.643,0,0,0-.1.35,13.218,13.218,0,0,0-.284,2.108c-.159,2.168-.192,4.388-.264,6.609a41.7,41.7,0,0,1-.317,5.069,10.078,10.078,0,0,1-.245,1.143c-.43,1.447-1.123,1.85-1.579,1.718a.965.965,0,0,1-.284-.059c-.106-.066-.04-.192,0-.423a6.456,6.456,0,0,1,.357-.9,8.948,8.948,0,0,0,.456-2.029c.1-.727.159-1.474.2-2.24.079-1.527.1-3.093.119-4.679,0-1.176.04-2.366.093-3.569a17.2,17.2,0,0,1,.139-1.824,6.015,6.015,0,0,1,.112-.952,2.893,2.893,0,0,1,.086-.5,6,6,0,0,1,.238-.8Z" transform="translate(-17.671 -5.523)" fill="#426af0"/>
    <path id="Path_20767" data-name="Path 20767" d="M66.392,61.345a38.059,38.059,0,0,0-1.923-4.316c-.264-.515-.588-.991-.879-1.487a17.592,17.592,0,0,0-3.655-4.712c-.661-.515-1.474-.892-2.062-.562a2.141,2.141,0,0,0-.919,1.057,3.364,3.364,0,0,0-.317,1.474c0,.3-.185.383-.509.106a1.864,1.864,0,0,1-.4-1.824A3.39,3.39,0,0,1,57.047,49.2a2.677,2.677,0,0,1,1.275-.416,2.3,2.3,0,0,1,.661.059,2.472,2.472,0,0,1,.568.159,7.27,7.27,0,0,1,3.086,2.564,41.685,41.685,0,0,1,2.643,3.741,37.16,37.16,0,0,1,2.227,4.441c.39.938.747,1.9,1.064,2.868a17.354,17.354,0,0,1,.582,2.273,5.756,5.756,0,0,1,0,2.5,2.4,2.4,0,0,1-.615.965,1.778,1.778,0,0,1-1.123.5,3.3,3.3,0,0,1-2.022-.661,6.57,6.57,0,0,1-.661-.515,2.419,2.419,0,0,1-.661-.892.866.866,0,0,1,.079-.661,1.56,1.56,0,0,1,.126-.258c.079-.119.225-.126.436-.079a1.665,1.665,0,0,1,.734.357,9.913,9.913,0,0,0,1.137.76,1.322,1.322,0,0,0,.806.245c.04,0,0,0,.079-.073a.555.555,0,0,0,.086-.119c.059-.059,0-.059.046-.079a3.139,3.139,0,0,0,0-1.1,19.826,19.826,0,0,0-1.249-4.408Z" transform="translate(-13.911 -14.609)" fill="#426af0"/>
    <path id="Path_20768" data-name="Path 20768" d="M58.774,65.2a24.32,24.32,0,0,0-3.139-5.082c-.463-.575-.965-1.117-1.461-1.659a27.59,27.59,0,0,0-2.789-2.7,11.776,11.776,0,0,0-1.566-1.077,3.357,3.357,0,0,0-1.632-.5.905.905,0,0,0-.549.218,2.855,2.855,0,0,0-.225.258c-.046.112-.119.2-.159.324a4.19,4.19,0,0,0-.231,1.566,10.818,10.818,0,0,0,.317,2.135c.185.707.317,1.427.522,2.135.126.43-.1.482-.489.211a3.555,3.555,0,0,1-1.229-1.778,11.81,11.81,0,0,1-.383-2.439,4.818,4.818,0,0,1,.535-2.643,2.683,2.683,0,0,1,.509-.661,2.088,2.088,0,0,1,.806-.436A2.8,2.8,0,0,1,48.438,53a4.91,4.91,0,0,1,.727.119,7.4,7.4,0,0,1,2.28,1.15,27.42,27.42,0,0,1,4.382,3.853,28.662,28.662,0,0,1,3.741,5.175,11.42,11.42,0,0,1,1.408,3.793,3.258,3.258,0,0,1-.178,1.7,1.256,1.256,0,0,1-.225.41,1.428,1.428,0,0,1-.3.357,1.718,1.718,0,0,1-.879.469,2.835,2.835,0,0,1-1.712-.35,9.252,9.252,0,0,1-1.322-.806,33.56,33.56,0,0,1-3.489-2.934,9.423,9.423,0,0,1-.661-.707c-.833-.905-.932-1.322-.846-1.758a1.883,1.883,0,0,1,.066-.3c.119-.278.661-.079,1.394.456l1.513,1.275,1.494,1.322c.509.436,1,.872,1.5,1.262a5.948,5.948,0,0,0,1.447.886.906.906,0,0,0,.291.066l.079-.059a.892.892,0,0,0,.258-.661,6.331,6.331,0,0,0-.661-2.538Z" transform="translate(-10.556 -16.036)" fill="#426af0"/>
    <path id="Path_20769" data-name="Path 20769" d="M38.591,65.025a78.473,78.473,0,0,0-5.366-8.248c-.661-1-1.4-1.983-2.069-3.007a25.471,25.471,0,0,1-1.606-2.848,12.458,12.458,0,0,1-.621-1.566,6.014,6.014,0,0,1-.344-1.718,2.789,2.789,0,0,1,0-.469q0-.119,0-.238l.079-.311a1.4,1.4,0,0,1,.714-.978,1.771,1.771,0,0,1,1.223-.079,4.223,4.223,0,0,1,.853.39,16.793,16.793,0,0,1,2.61,2.035,36.666,36.666,0,0,1,3.9,4.216,22.377,22.377,0,0,1,3.7,6.3c.238.734.053.661-.377.178a29.079,29.079,0,0,1-1.936-2.518A45.6,45.6,0,0,0,34.8,50.6,27.406,27.406,0,0,0,32.16,48.18a11.413,11.413,0,0,0-1.394-.991,3.25,3.25,0,0,0-.337-.172l-.231-.093a.192.192,0,0,0-.2,0,2.285,2.285,0,0,0-.053,1.441,8.3,8.3,0,0,0,.72,1.983,31.921,31.921,0,0,0,2.313,3.833c1.831,2.762,3.846,5.432,5.6,8.314.542.886,1.051,1.791,1.513,2.729s.872,1.91,1.322,2.815a28.966,28.966,0,0,0,5.062,7.66,32.33,32.33,0,0,0,5.287,4.586c.416.3.833.582,1.262.859A11.159,11.159,0,0,1,55.4,82.915a2.572,2.572,0,0,1,.192.258c.126.218-.714.112-2.069-.482a20.349,20.349,0,0,1-2.862-1.626,30.112,30.112,0,0,1-2.643-2.088A33.255,33.255,0,0,1,43.4,73.94a30.056,30.056,0,0,1-2.71-4.382c-.2-.377-.363-.78-.549-1.17s-.35-.786-.509-1.15a22.389,22.389,0,0,0-1.071-2.194Z" transform="translate(-4.733 -13.492)" fill="#426af0"/>
    <path id="Path_20770" data-name="Path 20770" d="M70.532,109.785c-.443-.786-.879-1.566-1.322-2.339-.165-.284-.363-.535-.529-.819-.582-1-1.157-1.983-1.791-2.941a12.862,12.862,0,0,0-.912-1.209c-.423-.482-.866-.945-1.236-1.427-.112-.159.059-.35.363-.43a1.117,1.117,0,0,1,1.038.231,13.712,13.712,0,0,1,1.388,1.54,17.223,17.223,0,0,1,1.11,1.712c.4.714.932,1.361,1.388,2.049s.985,1.527,1.467,2.293l.886,1.414c.456.7.886,1.434,1.375,2.115.377.522.833.985,1.256,1.467.093.112.192.211.278.324a2.029,2.029,0,0,1,.185.311.582.582,0,0,1,0,.258.892.892,0,0,1-.2.449,2.249,2.249,0,0,1-.139.185c-.139.165-.515.159-.905-.04a11.9,11.9,0,0,1-2.306-2.776c-.5-.747-.938-1.546-1.414-2.313Z" transform="translate(-16.987 -32.173)" fill="#426af0"/>
    <path id="Path_20771" data-name="Path 20771" d="M79.944,107.538l-1.507.264c-.5.066-1,.145-1.507.2-.363,0-.727.1-1.1.132a25.518,25.518,0,0,1-3.886-.046c-.575,0-1.15-.106-1.718-.139l-1.1-.165a5.121,5.121,0,0,1-1.064-.344c-.211-.093-.106-.3.145-.469a1.361,1.361,0,0,1,1.011-.231,39.935,39.935,0,0,0,4.236.35,8.057,8.057,0,0,0,1.322-.04c.443-.04.886-.086,1.322-.152s.971-.112,1.454-.2.965-.152,1.441-.264c.595-.112,1.176-.271,1.758-.43.436-.132.866-.291,1.322-.423a6.366,6.366,0,0,0,1.242-.542,7.653,7.653,0,0,0,1.632-1.183,2.465,2.465,0,0,1,.3-.291c.39-.337.515-.423.846-.357a2.02,2.02,0,0,1,.211,0c.218.059.231.357,0,.826a3.886,3.886,0,0,1-.661.886,8.364,8.364,0,0,1-.833.661,10.878,10.878,0,0,1-1.877,1,18.418,18.418,0,0,1-2.974.925Z" transform="translate(-18.086 -33.059)" fill="#426af0"/>
    <path id="Path_20772" data-name="Path 20772" d="M83.224,110.565c-.033-.073-.106-.185-.225-.178s-.059.106-.053.185a.99.99,0,0,0,0,.132v.073h0v.1l.066.2c.178.555.377,1.11.555,1.745.04.165.079.33.112.529a1.311,1.311,0,0,0,.033.337,1.156,1.156,0,0,1,0,.225,1.594,1.594,0,0,1-.053.324,1.986,1.986,0,0,1-.073.211,1.54,1.54,0,0,1-.2.3,1.183,1.183,0,0,1-.661.37,1.494,1.494,0,0,1-.489,0,.776.776,0,0,1-.264-.079,2.9,2.9,0,0,1-.35-.172l-.284-.2c-.059,0-.1-.093-.159-.132a5.037,5.037,0,0,1-.661-.932l-.443-.767-.833-1.5c-.245-.43-.5-.859-.747-1.249a5.239,5.239,0,0,0-.377-.515,1.03,1.03,0,0,0-.073-.079h0a.582.582,0,0,0,.1-.126,1.09,1.09,0,0,0,.2-.482h0a.112.112,0,0,0,.04.04l.079.053a.661.661,0,0,0,.258.119,1.1,1.1,0,0,1,.192.066h.053v.053a1.691,1.691,0,0,0,0,.278v.33a2.3,2.3,0,0,0,.033.258,12.554,12.554,0,0,0,.383,1.375l.456,1.454a9.981,9.981,0,0,1,.383,1.626,2.036,2.036,0,0,1,0,.621,1.585,1.585,0,0,1-.093.264,1.1,1.1,0,0,1-.251.317.985.985,0,0,1-.747.2,1.459,1.459,0,0,1-.231-.053l-.152-.059a1.712,1.712,0,0,1-.251-.139,2.174,2.174,0,0,1-.443-.344,3.444,3.444,0,0,1-.522-.826c-.112-.251-.211-.5-.311-.734-.344-.853-.661-1.692-1.024-2.485a8.049,8.049,0,0,0-.588-1.09,1.321,1.321,0,0,0-.278-.3v-.066a.337.337,0,0,0,.046-.112.43.43,0,0,1,0-.066s0-.053,0,0v.04a.463.463,0,0,0,.059.112.3.3,0,0,0,.046.046h0c-.059.066-.079.152-.066.337a1.982,1.982,0,0,0,.185.608,8.44,8.44,0,0,0,.8,1.322c.311.449.661.886,1,1.322s.661.912,1.011,1.361c.423.568.165.707-.515.522a6.516,6.516,0,0,1-1.322-.529,5.287,5.287,0,0,1-1.427-1.249,9.913,9.913,0,0,1-1.09-1.632,5.167,5.167,0,0,1-.41-1.071,2.643,2.643,0,0,1,.059-1.553,2.069,2.069,0,0,1,.542-.806,1.586,1.586,0,0,1,.278-.2,1.19,1.19,0,0,1,.39-.172,1.461,1.461,0,0,1,.879,0,1.91,1.91,0,0,1,.853.568,5.066,5.066,0,0,1,.383.489,11.717,11.717,0,0,1,.925,1.725c.258.555.482,1.1.707,1.632l.337.773c.112.238.238.5.3.621v.04h.04l-.053.112-.079.245a.78.78,0,0,0-.079.324.278.278,0,0,0,0,.185s0,.033,0,0a.932.932,0,0,0-.192-.086c-.059,0-.245-.066-.37-.066a1.454,1.454,0,0,1-.231,0h.132v-.086a9.291,9.291,0,0,0-.324-1.533q-.3-1.031-.595-2.082a5.287,5.287,0,0,1-.238-1.249,5.022,5.022,0,0,1,0-.661,2.8,2.8,0,0,1,.04-.383l.059-.245a1.322,1.322,0,0,1,.172-.35,1.236,1.236,0,0,1,.245-.251.826.826,0,0,1,.344-.159,1.044,1.044,0,0,1,.39,0,1.883,1.883,0,0,1,.258.073,1.427,1.427,0,0,1,.489.317,3.456,3.456,0,0,1,.463.522,11.388,11.388,0,0,1,.661.971c.39.661.747,1.282,1.1,1.91l.555.958c.093.152.185.311.271.443a.8.8,0,0,0,.172.225l.1.066.073.04h0l-.04.112c0,.066,0,.178-.046.218a.509.509,0,0,0,0,.258s.046.079,0,0,0,0-.053,0a.6.6,0,0,0-.139-.053c-.066,0-.258-.04-.416-.04h0a.741.741,0,0,0,0-.126,1.729,1.729,0,0,0-.086-.357c-.139-.522-.337-1.084-.515-1.652l-.159-.5q-.106-.337-.2-.661a7.562,7.562,0,0,1-.238-1.269,2.306,2.306,0,0,1,.529-1.883,1.038,1.038,0,0,1,.2-.053,1.983,1.983,0,0,1,1.606.317,5.366,5.366,0,0,1,1.262,1.546l.311.456.218.344.4.6a6.067,6.067,0,0,0,.826,1.024,1.447,1.447,0,0,0,.41.278.522.522,0,0,0,.165.033h.119c-.126-.476.178.661.145.535h-.126a1.421,1.421,0,0,0-.218.04h-.2v-.04l-.059-.119-.165-.3-.39-.615-.813-1.256c-.139-.211-.271-.43-.4-.661a3.694,3.694,0,0,1-.37-.806c-.059-.238-.126-.476-.185-.747a2.347,2.347,0,0,1-.053-.463,1.117,1.117,0,0,1,.178-.661.872.872,0,0,1,.383-.311,1,1,0,0,1,.363-.079,1.738,1.738,0,0,1,.522.053,3.217,3.217,0,0,1,.4.119,2.174,2.174,0,0,1,.449.218c.469.324.826.615,1.223.886a8.1,8.1,0,0,0,1.17.707,2.445,2.445,0,0,0,1.084.291.707.707,0,0,0,.595-.377l.238,1.13-.819-.456c-.443-.258-.879-.5-1.322-.78a6.3,6.3,0,0,1-1.586-1.322,1.718,1.718,0,0,1-.291-.568,1.547,1.547,0,0,1,0-.555.661.661,0,0,1,.165-.357c.066-.04.126,0,.225,0h.33a1.222,1.222,0,0,1,.535.211c.2.112.443.258.714.43.932.582,1.983,1.157,2.994,1.718l1.229.661-.872,1.018a3.251,3.251,0,0,1-.661.661,4.156,4.156,0,0,1-.423.271,3.768,3.768,0,0,1-.482.165,3.205,3.205,0,0,1-1.718-.073,8.188,8.188,0,0,1-2.273-1.223l-.9-.661c-.119-.093-.291-.2-.291-.2h-.046l-.159-.04h-.046v-.145a1.883,1.883,0,0,0-.04-.747.238.238,0,0,1,0-.073h0l.086.053H85.1a.866.866,0,0,0,.178.04,4.446,4.446,0,0,0,.5,0h.132a.533.533,0,0,0,0,.059,1.321,1.321,0,0,0,0,.178l.139.5v.033a7.653,7.653,0,0,0,.489.853l.661.978c.225.337.443.661.661,1.064l.172.317a2.512,2.512,0,0,1,.225.522,1.718,1.718,0,0,1,.059.4,1.279,1.279,0,0,1,0,.159,1.243,1.243,0,0,1-.073.337,1.209,1.209,0,0,1-.178.344,1.236,1.236,0,0,1-.383.35.932.932,0,0,1-.245.119H87.2l-.126.1a2.174,2.174,0,0,1-.661,0,3.04,3.04,0,0,1-1.725-.985,9.636,9.636,0,0,1-.866-1.1l-.6-.932a.258.258,0,0,1,0-.059Z" transform="translate(-19.991 -33.773)" fill="#426af0"/>
    <path id="Path_20773" data-name="Path 20773" d="M34.575,77.36a.661.661,0,0,1,.826-.522C37.139,77.479,34.013,79.58,34.575,77.36Z" transform="translate(-6.745 -24.115)" fill="#426af0"/>
    <path id="Path_20774" data-name="Path 20774" d="M110.7,65.692a.833.833,0,0,1,1.064-.661C114,65.851,109.977,68.508,110.7,65.692Z" transform="translate(-32.555 -20.107)" fill="#426af0"/>
    <path id="Path_20775" data-name="Path 20775" d="M39.829,102.839a.872.872,0,0,0,.37-.469.568.568,0,0,0,0-.211.661.661,0,0,0-.436-.615.231.231,0,0,0-.264.073,1.784,1.784,0,0,0-.139.436c0,.053-.185.059-.337,0a.363.363,0,0,1-.271-.39.925.925,0,0,1,.238-.476.866.866,0,0,1,.522-.291,1.057,1.057,0,0,1,.919.344,1.652,1.652,0,0,1,.443.945,1.322,1.322,0,0,1-.41,1.024,1.982,1.982,0,0,1-.5.377,1.322,1.322,0,0,1-1.011.152.793.793,0,0,1-.522-.7.879.879,0,0,1,0-.185c.04-.2.112-.258.291-.251H38.8a.357.357,0,0,1,.278.231c.046.178.112.264.132.238s0,0,.04,0a1.1,1.1,0,0,0,.542-.238Z" transform="translate(-8.073 -32.279)" fill="#426af0"/>
    <path id="Path_20776" data-name="Path 20776" d="M16.7,70.418a.866.866,0,0,0,.37-.469.568.568,0,0,0,0-.211.661.661,0,0,0-.436-.615.245.245,0,0,0-.264.066,1.785,1.785,0,0,0-.139.436c0,.053-.185.059-.337,0s-.311-.2-.271-.383a1.1,1.1,0,0,1,.238-.482.859.859,0,0,1,.522-.284,1.038,1.038,0,0,1,.919.344,1.632,1.632,0,0,1,.443.945,1.394,1.394,0,0,1-.4,1.038,2.161,2.161,0,0,1-.509.377,1.322,1.322,0,0,1-1,.145.773.773,0,0,1-.529-.661,1.758,1.758,0,0,1,0-.185c.046-.2.112-.258.3-.251h.119a.35.35,0,0,1,.278.231c.046.172.112.258.132.231s0,0,.046,0a1.157,1.157,0,0,0,.535-.231Z" transform="translate(-0.23 -21.284)" fill="#426af0"/>
    <path id="Path_20777" data-name="Path 20777" d="M65.783,7.57c-.086-.073,0-.178.152-.311a.6.6,0,0,1,.271-.079,1.236,1.236,0,0,1,.185.106s.291.463.4.6a2.333,2.333,0,0,1,.238.436c.139.3.291.608.449.905a.8.8,0,0,1,.073.211,2.425,2.425,0,0,0,.311.707.178.178,0,0,0,.086.1,3.232,3.232,0,0,1,.43.78c.059.225.086.469.145.7v.33a1.427,1.427,0,0,1,.093.284.509.509,0,0,1,0,.172c0,.053-.1.079-.119.073a.1.1,0,0,0-.106.053h0a6.034,6.034,0,0,1-.549-.416l-.291-.344a4.524,4.524,0,0,1-.311-.4.35.35,0,0,1-.053-.145l-.4-.6a.753.753,0,0,1-.132-.4.185.185,0,0,0,0-.079,3.918,3.918,0,0,1-.271-.661c-.04-.119-.1-.225-.145-.337s0-.046,0-.066a.178.178,0,0,0,0-.086c-.119-.264-.192-.549-.324-.813-.033-.059-.053-.39-.093-.463S65.816,7.6,65.783,7.57Z" transform="translate(-17.34 -0.5)" fill="#426af0"/>
    <path id="Path_20778" data-name="Path 20778" d="M81.435,5.814c0-.093.1-.119.3-.106A.661.661,0,0,1,82,5.814,1.117,1.117,0,0,1,82.083,6s-.066.5-.093.661a1.983,1.983,0,0,1-.126.443c-.119.284-.231.575-.363.859a.661.661,0,0,1-.106.172,2.194,2.194,0,0,0-.357.608.172.172,0,0,0,0,.119,2.194,2.194,0,0,1-.344.661c-.145.152-.33.284-.482.43,0,0,0,.053-.079.053s-.126.073-.165.119l-.185.2a1.382,1.382,0,0,1-.139.066.182.182,0,0,1-.119-.066c0-.013-.066-.046-.106-.066h-.04a2.936,2.936,0,0,1,.046-.608l.106-.377a3.159,3.159,0,0,1,.139-.416c0-.046.053-.073.079-.106s.211-.555.225-.575.086-.218.218-.284a.119.119,0,0,0,.04-.059,4.229,4.229,0,0,1,.317-.522c.053-.086.093-.185.139-.278s0,0,.04-.04l.046-.059a5.385,5.385,0,0,0,.3-.661c0-.059.211-.271.225-.33S81.442,5.854,81.435,5.814Z" transform="translate(-21.963 0)" fill="#426af0"/>
    <path id="Path_20779" data-name="Path 20779" d="M19.434,27.937c-.106-.033-.079-.159,0-.344a.542.542,0,0,1,.211-.185,2.088,2.088,0,0,1,.211,0,6.686,6.686,0,0,1,.615.449,1.983,1.983,0,0,1,.377.363c.231.271.463.535.661.813a.72.72,0,0,1,.119.2,3.4,3.4,0,0,0,.43.661c.033.033.053.073.106.093a2.921,2.921,0,0,1,.509.727c.079.225.126.469.2.694a.108.108,0,0,1,0,.106.251.251,0,0,0,0,.225,2.175,2.175,0,0,1,.106.291.661.661,0,0,1,0,.165c0,.053-.1.086-.112.079a.1.1,0,0,0-.106.059h-.033a5.485,5.485,0,0,1-.562-.39l-.311-.317c-.165-.152-.3-.337-.337-.37a.4.4,0,0,1-.059-.132s-.436-.515-.449-.542a.826.826,0,0,1-.178-.363.2.2,0,0,0-.04-.073,5.841,5.841,0,0,1-.363-.588c-.059-.1-.139-.185-.211-.284s0-.04,0-.059a.258.258,0,0,0-.04-.073,5.472,5.472,0,0,0-.515-.661c-.046-.046-.172-.337-.231-.383S19.474,27.951,19.434,27.937Z" transform="translate(-1.61 -7.359)" fill="#426af0"/>
    <path id="Path_20780" data-name="Path 20780" d="M14.8,41.6c-.086.046-.145-.066-.178-.271a.582.582,0,0,1,.046-.278.661.661,0,0,1,.152-.119c.033,0,.482-.066.661-.1a1.93,1.93,0,0,1,.436,0H16.8a.661.661,0,0,1,.2,0,1.824,1.824,0,0,0,.661.059.2.2,0,0,0,.112,0,2.386,2.386,0,0,1,.753,0c.2.053.4.152.6.2a.084.084,0,0,1,.086.04.369.369,0,0,0,.192.086,1.811,1.811,0,0,1,.258.059.476.476,0,0,1,.126.086c.04,0,0,.126,0,.139v.119a.086.086,0,0,1,0,.04,4.335,4.335,0,0,1-.555.278l-.383.1a3.828,3.828,0,0,1-.436.086.3.3,0,0,1-.132,0l-.661.073a.712.712,0,0,1-.363-.066.132.132,0,0,0-.073,0,3.378,3.378,0,0,1-.628-.066,2.583,2.583,0,0,0-.324,0h-.126c-.258,0-.509-.079-.76-.073-.059,0-.33-.119-.4-.112S14.87,41.6,14.8,41.6Z" transform="translate(0 -11.909)" fill="#426af0"/>
    <path id="Path_20781" data-name="Path 20781" d="M102.719,80.116a.833.833,0,0,0,0,.595.78.78,0,0,0,.853.377.245.245,0,0,0,.165-.225,1.817,1.817,0,0,0-.159-.423c0-.059.1-.165.258-.211a.363.363,0,0,1,.449.132,1.051,1.051,0,0,1,.119.522.839.839,0,0,1-.231.549,1.018,1.018,0,0,1-.932.3,1.639,1.639,0,0,1-.938-.456,1.4,1.4,0,0,1-.317-1.057,1.983,1.983,0,0,1,.159-.615,1.322,1.322,0,0,1,.694-.74.786.786,0,0,1,.846.218.833.833,0,0,1,.132.132c.093.185.073.271-.073.377a.6.6,0,0,1-.106.073.363.363,0,0,1-.357,0c-.145-.112-.251-.132-.251-.106v.04a1.15,1.15,0,0,0-.271.522Z" transform="translate(-29.626 -24.796)" fill="#426af0"/>
  </g>
</svg>
