<svg xmlns="http://www.w3.org/2000/svg" width="59.566" height="58.267" viewBox="0 0 59.566 58.267">
  <g id="Layer_50" data-name="Layer 50" transform="translate(-14.756 -15.506)">
    <path id="Path_20705" data-name="Path 20705" d="M28.3,103.4c.091,0,0,.158-.14.322a.923.923,0,0,1-.279.164h-.206a1.823,1.823,0,0,0-.182-.079h-.1a.85.85,0,0,0,.061-.1c.036-.061.055-.073.073-.109a.8.8,0,0,0,.03-.091.389.389,0,0,0,0-.043c0-.049,0,0,0,0a.346.346,0,0,0,.067.1c.049.073.085.085.17.158a.486.486,0,0,0,.128.091c.042,0,.1.049.079.049h0a.188.188,0,0,1-.03.1,1.422,1.422,0,0,0-.067.285.255.255,0,0,1-.067.134.862.862,0,0,0-.146.528.15.15,0,0,0,.03.091,1.366,1.366,0,0,1,0,.607,4.475,4.475,0,0,0-.231.492.081.081,0,0,1-.049.073.247.247,0,0,0-.115.152.735.735,0,0,1-.085.225c0,.036-.091.067-.146.1a.407.407,0,0,1-.237,0c-.055-.036-.14,0-.206,0h-.079a1.822,1.822,0,0,1-.316-.474l-.036-.334a1.611,1.611,0,0,0-.049-.383.107.107,0,0,1,.043-.115,2.813,2.813,0,0,0-.049-.559.53.53,0,0,1,.1-.322.061.061,0,0,0,0-.061,1.876,1.876,0,0,1,.146-.607c.036-.1.049-.206.085-.322,0,0,.03,0,.043-.049s.043-.049.049-.073a1.044,1.044,0,0,1,.31-.474,1.056,1.056,0,0,1,.431-.237.965.965,0,0,1,.553.036.643.643,0,0,1,.146.091,1.7,1.7,0,0,1,.134.152,2.369,2.369,0,0,0,.134.225C28.315,103.191,28.261,103.4,28.3,103.4Z" transform="translate(-4.479 -34.221)" fill="#426af0"/>
    <path id="Path_20706" data-name="Path 20706" d="M46.007,34.022c.1.413.134.844.237,1.263.036.152.109.3.146.449a7.826,7.826,0,0,0,.546,1.536,1.9,1.9,0,0,0,.431.54c.225.188.437.267.607.419.061.055.055.279-.079.486a.607.607,0,0,1-.7.273,2.508,2.508,0,0,1-.959-.838,3.1,3.1,0,0,1-.48-1.026c-.115-.425-.322-.814-.437-1.214a10.984,10.984,0,0,1-.285-1.384c0-.291-.042-.607-.067-.862V32.358a7.005,7.005,0,0,1,0-1.008A1.335,1.335,0,0,1,45,31.125c.085-.279.176-.352.31-.358a.237.237,0,0,1,.091,0c.1,0,.128.14.14.322a13.74,13.74,0,0,0,.231,1.639c.073.425.152.85.255,1.269Z" transform="translate(-11.861 -5.993)" fill="#426af0"/>
    <path id="Path_20707" data-name="Path 20707" d="M21.508,23.861c.043-.152.237-.067.474.17a1.409,1.409,0,0,1,.243.407,2.155,2.155,0,0,1,0,.273s-.067.128-.115.243a.716.716,0,0,0-.055.279.814.814,0,0,1-.049.328l-.128.571a2.3,2.3,0,0,1-.383.82.929.929,0,0,1-.291.267,4.184,4.184,0,0,0-.82.607c-.036,0-.079.049-.085.121s-.14.188-.261.316a1.579,1.579,0,0,1-.267.261,1.973,1.973,0,0,0-.516.358s0,.055-.091.049a.244.244,0,0,0-.2.128,1.828,1.828,0,0,1-.219.225.9.9,0,0,1-.219.1.413.413,0,0,1-.267-.079c-.043-.067-.152-.055-.231-.073h-.085a1.718,1.718,0,0,1-.121-.431,1.111,1.111,0,0,1,0-.486,4.93,4.93,0,0,1,.261-.546c.146-.267.34-.522.37-.607a.322.322,0,0,1,.176-.115s.158-.188.316-.352l.316-.316c.14-.091.225-.219.407-.2a.1.1,0,0,0,.073-.043c.164-.152.291-.225.358-.285s.049-.109.079-.194,0,0,.036-.049a.14.14,0,0,0,.049-.067,5.968,5.968,0,0,1,.376-1.111c.043-.109.461-.407.534-.48S21.49,23.915,21.508,23.861Z" transform="translate(-1.194 -3.252)" fill="#426af0"/>
    <path id="Path_20708" data-name="Path 20708" d="M44.687,83.25l.267.049h.085a1.82,1.82,0,0,0,.267.061h.03c-.012,0-.042-.067,0-.061a1.821,1.821,0,0,1,.358.115c.176.073.334.188.316.255s0,.109-.085.182a.7.7,0,0,1-.182.146.413.413,0,0,1-.3.055,2.018,2.018,0,0,0-.255.042,1.822,1.822,0,0,1-.249,0H44.8c-.067,0-.134,0-.164.03a.036.036,0,0,0,0,.055h0l-.03-.024h-.261a.31.31,0,0,1-.322-.14.455.455,0,0,1,.085-.474.826.826,0,0,1,.134-.128l.128-.073a.747.747,0,0,1,.322-.067Z" transform="translate(-11.483 -26.612)" fill="#426af0"/>
    <path id="Path_20709" data-name="Path 20709" d="M31.446,81.937a12.143,12.143,0,0,0,2,.213,4.945,4.945,0,0,1,.735,0,13.892,13.892,0,0,0,2.6-.273c.34-.085.814-.243.838-.376a1.439,1.439,0,0,0,.128-.607,1.408,1.408,0,0,1,.036-.376,1.154,1.154,0,0,1,.17-.5c.194-.17.3.067.395.237a.759.759,0,0,1,.376.607,2.374,2.374,0,0,1-.206.99,1.493,1.493,0,0,1-.152.267,1.366,1.366,0,0,1-.322.285,3.1,3.1,0,0,1-.461.219,6.369,6.369,0,0,1-1.633.358c-.65.055-1.311.206-1.973.231a13.826,13.826,0,0,1-2.186-.073c-.449-.061-.893-.115-1.33-.219a9.108,9.108,0,0,1-.99-.255,10.05,10.05,0,0,1-.965-.334,14.069,14.069,0,0,1-1.481-.607,2.185,2.185,0,0,1-.3-.176c-.352-.267-.413-.419-.3-.692.03-.067.049-.128.079-.188a.516.516,0,0,1,.644-.134c.206.067.389.164.607.237s.395.152.607.237.407.14.607.219a5.963,5.963,0,0,0,.607.206,8,8,0,0,0,.941.273,7.25,7.25,0,0,0,.971.2Z" transform="translate(-4.562 -25.317)" fill="#426af0"/>
    <path id="Path_20710" data-name="Path 20710" d="M84.488,89.62a17.29,17.29,0,0,1-.243,1.749c-.049.206-.067.425-.115.607a10.808,10.808,0,0,1-.844,2.113c-.194.279-.328.607-.528.856-.128.17-.237.358-.376.516a4.044,4.044,0,0,1-.474.437c-.1.079-.182-.03-.206-.213a.783.783,0,0,1,.134-.607,13.522,13.522,0,0,0,1.141-2.058,5.684,5.684,0,0,0,.358-1.439,12.291,12.291,0,0,0,.182-1.6V88.946a13.641,13.641,0,0,0-.1-1.566c-.049-.4-.188-.783-.267-1.178a2.292,2.292,0,0,0-.061-.261c-.049-.328,0-.443.237-.546a1.253,1.253,0,0,1,.158-.073c.176-.055.352.055.455.285a6.418,6.418,0,0,1,.5,2.24,14.282,14.282,0,0,1,.036,1.767Z" transform="translate(-26.292 -27.42)" fill="#426af0"/>
    <path id="Path_20711" data-name="Path 20711" d="M106.941,97.831c0-.109.152-.128.328-.121.055,0,.188.079.194.115s.036.152.049.219-.073.607-.061.85a1.3,1.3,0,0,1-.152.534l-.213.51-.1.255v.1c0,.03,0,0-.036.042a.134.134,0,0,0,.043.231h.273a.656.656,0,0,1,.194,0,5.967,5.967,0,0,1,.9.316.1.1,0,0,1,.121.085c.055.158.152.164.231.225a1.214,1.214,0,0,1,.285.291.644.644,0,0,1,.061.231c0,.067-.115.176-.14.182s-.085.1-.128.158l-.042.061a1.593,1.593,0,0,0-.346.043,1.215,1.215,0,0,0-.213.073.316.316,0,0,1-.1,0,1.536,1.536,0,0,0-.322,0,3.7,3.7,0,0,0-.455.049.079.079,0,0,1-.073,0l-.14-.036a2.028,2.028,0,0,1-.662-.109,1.779,1.779,0,0,1-.607-.346,1.032,1.032,0,0,1-.383-.686.322.322,0,0,0-.049-.146,1.585,1.585,0,0,1,.091-1.287c.055-.115.085-.146.115-.213l.1-.176a.665.665,0,0,0,.061-.049.383.383,0,0,0,.067-.073c.152-.273.34-.534.486-.814.042-.061.358-.285.395-.358S106.941,97.885,106.941,97.831Z" transform="translate(-35.569 -32.292)" fill="#426af0"/>
    <path id="Path_20712" data-name="Path 20712" d="M92.193,45.7a13.431,13.431,0,0,0-1.469-.395c-.182-.036-.37-.042-.559-.079a16.261,16.261,0,0,0-1.973-.291,6.338,6.338,0,0,0-.9,0,4,4,0,0,1-1.141,0c-.243-.055.036-.959.48-.99a9.412,9.412,0,0,1,2.429.164c.48.1.984.1,1.475.176a14.172,14.172,0,0,1,1.6.37c.328.091.644.206.959.316a15.148,15.148,0,0,1,1.409.607c.358.164.716.31,1.063.5a1.312,1.312,0,0,1,.219.134c.255.2.3.31.249.5l-.036.128c-.061.128-.237.158-.461.1a9.435,9.435,0,0,1-.965-.31,8.281,8.281,0,0,1-.935-.364c-.461-.194-.935-.364-1.415-.516Z" transform="translate(-28.011 -11.166)" fill="#426af0"/>
    <path id="Path_20713" data-name="Path 20713" d="M98.315,24.224c-.128-.049-.152-.194-.146-.383,0-.067.085-.194.134-.194a2.15,2.15,0,0,1,.279,0c.049,0,.808.3,1.075.395a2.69,2.69,0,0,1,.662.407,7.711,7.711,0,0,1,1.166,1.063,1.282,1.282,0,0,1,.2.3c.182.395.437.692.692,1.178.036.073.055.152.127.2a2.132,2.132,0,0,1,.273.577,2.028,2.028,0,0,1,.121.34,2.593,2.593,0,0,0,.383.808c0,.049.085.079.067.164-.036.182.055.267.115.376a1.36,1.36,0,0,1,.158.5.555.555,0,0,1-.146.3.231.231,0,0,1-.219.079c-.073-.043-.14.036-.188.055a.127.127,0,0,1-.067,0,.607.607,0,0,1-.206-.049l-.231-.146c-.164-.091-.328-.146-.352-.17a6.952,6.952,0,0,1-1.069-1.093.656.656,0,0,1-.091-.285l-.243-.528-.14-.273-.061-.109a1.087,1.087,0,0,0-.061-.158.364.364,0,0,1-.036-.237.146.146,0,0,0-.042-.1c-.17-.225-.322-.5-.5-.765a4.441,4.441,0,0,0-.316-.37.315.315,0,0,1-.036-.079.413.413,0,0,0-.055-.1,7.092,7.092,0,0,0-.765-.85,4.857,4.857,0,0,0-.34-.553C98.418,24.467,98.364,24.236,98.315,24.224Z" transform="translate(-32.767 -3.196)" fill="#426af0"/>
    <path id="Path_20714" data-name="Path 20714" d="M48.676,53.756a15.5,15.5,0,0,1-1.645,1.415l-.1.079-.049.03s-.055.073-.085.1a1.481,1.481,0,0,0-.182.3,3.643,3.643,0,0,0-.279.814,13.674,13.674,0,0,0-.2,1.378,29.921,29.921,0,0,0-.1,5.173,22.466,22.466,0,0,0,.279,2.313c.091.486.17.978.237,1.469.036.243.061.486.085.735V68.3c0,.121-.061.17-.188.243a.516.516,0,0,1-.364-.1,1.985,1.985,0,0,1-.965-1.214,15.507,15.507,0,0,1-.492-3.072,25.725,25.725,0,0,1-.061-3.139c.061-1.257,0-2.562.158-3.886a6.8,6.8,0,0,1,.656-2.192,3.346,3.346,0,0,1,.376-.54,1.749,1.749,0,0,1,.267-.249l.206-.164c.267-.206.522-.413.777-.607a12.7,12.7,0,0,0,1.682-1.822,10.194,10.194,0,0,0,1.743-3.273,9.174,9.174,0,0,0,.346-2.8c0-.206,0-.413,0-.607a1.743,1.743,0,0,1,.067-.814,1.075,1.075,0,0,1,.431-.395c.085-.043.158-.1.225-.128s.219,0,.364.152a1.123,1.123,0,0,1,.346.729,9.848,9.848,0,0,1-.959,5.732A13.115,13.115,0,0,1,48.7,53.8Z" transform="translate(-11.701 -11.01)" fill="#426af0"/>
    <path id="Path_20715" data-name="Path 20715" d="M16.307,40.347a35.58,35.58,0,0,0,1.129,4.76c.176.607.389,1.141.577,1.724.644,2.034,1.251,4.117,1.767,6.23.225.935.455,1.882.607,2.835a8.846,8.846,0,0,1-.036,3.764c-.091.389-.322.267-.54-.085a3.989,3.989,0,0,1-.468-1.566,22.8,22.8,0,0,0-.577-3.485c-.249-1.178-.607-2.356-.88-3.558-.389-1.439-.953-2.89-1.415-4.353a47.93,47.93,0,0,1-1.305-4.936L15.02,40.9,14.9,40.11a15.324,15.324,0,0,1-.14-1.591,10.176,10.176,0,0,1,.194-2.429,17.061,17.061,0,0,1,.607-2.332,9.435,9.435,0,0,1,1.706-3.4,4.068,4.068,0,0,1,.668-.607,3.273,3.273,0,0,1,.674-.334,2.21,2.21,0,0,1,.522-.049.765.765,0,0,1,.553.3,1.087,1.087,0,0,1,.134.188c.036.1-.055.194-.2.31a2.2,2.2,0,0,1-.267.152,2.49,2.49,0,0,1-.322.219,4.633,4.633,0,0,0-1.664,2.137,14.572,14.572,0,0,0-.959,2.987,11.8,11.8,0,0,0-.291,2.307c0,.376.043.783.061,1.178s.109.8.158,1.214Z" transform="translate(0 -5.446)" fill="#426af0"/>
    <path id="Path_20716" data-name="Path 20716" d="M23.277,25.989a13.254,13.254,0,0,0-.856,2.125c-.079.273-.115.553-.188.826a21.621,21.621,0,0,0-.607,2.969,11.4,11.4,0,0,0-.067,1.36,5.853,5.853,0,0,1-.109,1.749c-.049.182-.3.158-.571,0a1.214,1.214,0,0,1-.607-.783,12.04,12.04,0,0,1,.3-3.643c.176-.723.219-1.5.407-2.24a16.023,16.023,0,0,1,.814-2.386,11.263,11.263,0,0,1,.729-1.421,5.4,5.4,0,0,1,1.7-1.779,4.4,4.4,0,0,1,1.858-.65,2.951,2.951,0,0,1,.4,0c.48,0,.54.1.692.413.03.073.073.14.1.206a.328.328,0,0,1-.061.34.783.783,0,0,1-.443.261c-.273.073-.534.134-.747.206a4.6,4.6,0,0,0-.607.164,2.544,2.544,0,0,0-.959.607,5.6,5.6,0,0,0-1.148,1.706Z" transform="translate(-2.155 -2.594)" fill="#426af0"/>
    <path id="Path_20717" data-name="Path 20717" d="M30.691,22.171l-.176.255-.152.285c-.1.188-.213.37-.3.571-.164.407-.352.8-.5,1.214a9.453,9.453,0,0,0-.267.947,24.22,24.22,0,0,0-.789,3.485,15.689,15.689,0,0,0-.115,1.6,8.045,8.045,0,0,1-.134,2.095c-.055.225-.261.17-.486,0a1.6,1.6,0,0,1-.565-.911,12.7,12.7,0,0,1-.073-2.149,10.984,10.984,0,0,1,.279-2.168c.194-.85.273-1.761.492-2.647a10.966,10.966,0,0,1,1.117-2.8,6.533,6.533,0,0,1,.51-.8,5.349,5.349,0,0,1,.607-.741,2.775,2.775,0,0,1,.522-.51,6.583,6.583,0,0,1,.607-.455,4.007,4.007,0,0,1,1.4-.51A4.366,4.366,0,0,1,35,19.062a1.536,1.536,0,0,1,.492.261,1.251,1.251,0,0,1,.443.607.735.735,0,0,1-.091.455,1.3,1.3,0,0,1-.1.164c-.061.079-.158.091-.3.079a1.755,1.755,0,0,1-.48-.079,5.1,5.1,0,0,0-1.348-.213,3.643,3.643,0,0,0-1.372.279,1.069,1.069,0,0,0-.346.249c-.14.128-.291.237-.431.376l-.383.455a5.726,5.726,0,0,0-.34.51Z" transform="translate(-4.858 -1.308)" fill="#426af0"/>
    <path id="Path_20718" data-name="Path 20718" d="M41.551,22.475a12.071,12.071,0,0,1,.8-1.275,6.164,6.164,0,0,1,.474-.607l.249-.279.128-.1a.059.059,0,0,0,.049-.085.231.231,0,0,0,0-.061.364.364,0,0,0-.043-.109,1.87,1.87,0,0,0-.522-.7,2.368,2.368,0,0,0-1.336-.407,1.694,1.694,0,0,0-1.014.492,7.079,7.079,0,0,0-1.02,1.087,14.117,14.117,0,0,0-2.532,5.513c-.273,1.214-.364,2.429-.516,3.643-.049.376-.346.34-.607,0a2.429,2.429,0,0,1-.474-1.761,16.649,16.649,0,0,1,.886-3.916A15.143,15.143,0,0,1,37.9,20.308a12.848,12.848,0,0,1,1.615-1.949,3.643,3.643,0,0,1,1.214-.789,1.822,1.822,0,0,1,.419-.109H41.9l.352.061a3.248,3.248,0,0,1,1.913,1.148,4.014,4.014,0,0,1,.316.474l.121.249.134.34a1.73,1.73,0,0,1,.049.692.607.607,0,0,1-.049.158v.043h.036l-.049.067-.213.267c-.115.109-.255.237-.346.34l-.225.273a3.388,3.388,0,0,0-.419.607A10.37,10.37,0,0,0,42.3,24.959a13.224,13.224,0,0,0-.419,4.651,12.247,12.247,0,0,0,.971,3.412c.1.243.237.461.34.7.407.868.443,1.214.273,1.573a2.253,2.253,0,0,1-.115.243c-.14.213-.546,0-1.1-.607a11.087,11.087,0,0,1-2.083-7,13.631,13.631,0,0,1,.109-1.4,7.771,7.771,0,0,1,.279-1.384,13.412,13.412,0,0,1,.953-2.678Z" transform="translate(-8.019 -0.768)" fill="#426af0"/>
    <path id="Path_20719" data-name="Path 20719" d="M60.339,45.813a6.758,6.758,0,0,1-1.16-1.864.2.2,0,0,1,0-.085c0-.049-.036,0-.055-.049h-.17l-.486-.03H57.091c-1.627-.061-3.267-.091-4.9,0a18.028,18.028,0,0,0-2.149.225c-.455.079-.9.176-1.348.261s-.886.14-1.324.2c-.273.036-.352-.237-.206-.607a1.749,1.749,0,0,1,1.087-1.008,16.1,16.1,0,0,1,2.914-.437,25.8,25.8,0,0,1,2.908-.055c1.16.049,2.362-.061,3.552-.036.316,0,.607,0,.947.03h.48a3.414,3.414,0,0,1,.723.055l.237.2.115.1.055.115a4.463,4.463,0,0,0,.3.5c.1.176.14.285.219.431a3.764,3.764,0,0,0,.267.419,9.108,9.108,0,0,0,1.524,1.658,11.639,11.639,0,0,0,2.92,1.876,7.894,7.894,0,0,0,1.257.431c.437.085.862.2,1.3.243a3.126,3.126,0,0,1,.571.073c.7.085.917.194,1.038.607a2.632,2.632,0,0,1,.085.291c.049.316-.285.534-.88.553a10.322,10.322,0,0,1-5.2-1.494,13.012,13.012,0,0,1-3.236-2.623Z" transform="translate(-12.702 -10.535)" fill="#426af0"/>
    <path id="Path_20720" data-name="Path 20720" d="M61.231,16.85l2.429-.534,1.214-.279c.425-.085.856-.194,1.281-.255a18.276,18.276,0,0,1,1.888-.249,17.2,17.2,0,0,1,3.352.14,12.617,12.617,0,0,1,3.248.874,14.709,14.709,0,0,1,1.366.644,10.256,10.256,0,0,1,1.251.844,8.5,8.5,0,0,1,1.433,1.354c.188.267.352.553.516.832a4.724,4.724,0,0,1,.316.923c.091.395-.128.413-.534.255a3.813,3.813,0,0,1-1.409-.911A9.636,9.636,0,0,0,71.9,17.093a13.078,13.078,0,0,0-4.384-.115,18.355,18.355,0,0,0-2.429.413l-2.471.565-3.036.656c-1.548.328-3.109.607-4.651.886-1.214.206-2.368.461-3.564.607-.261.043-.522.091-.789.121a3.406,3.406,0,0,1-1.056,0,.771.771,0,0,1-.492-.261,1.961,1.961,0,0,1-.158-.14c-.1-.121.273-.431.971-.607l3.194-.716c1.081-.243,2.174-.486,3.279-.686,1.633-.328,3.279-.662,4.912-1.038Z" transform="translate(-13.394)" fill="#426af0"/>
    <path id="Path_20721" data-name="Path 20721" d="M92.861,25.113a11.172,11.172,0,0,0-1.822-.868c-.243-.1-.474-.14-.71-.213a17.929,17.929,0,0,0-2.647-.534,11.536,11.536,0,0,0-1.214-.1,5.416,5.416,0,0,1-1.542-.194c-.164-.043-.146-.146,0-.291a1.621,1.621,0,0,1,.7-.419,2.647,2.647,0,0,1,.814-.079h.814a8.744,8.744,0,0,1,1.621.255c.644.164,1.324.213,2,.413a12.866,12.866,0,0,1,2.083.838,9.586,9.586,0,0,1,1.214.716A7.547,7.547,0,0,1,95.726,26.1a5.829,5.829,0,0,1,.9,1.457,2.078,2.078,0,0,1,.134.37c.115.474,0,.644-.358.741a1.942,1.942,0,0,1-.255.061.571.571,0,0,1-.607-.376,6.472,6.472,0,0,0-1.1-2.052,5.871,5.871,0,0,0-1.524-1.214Z" transform="translate(-27.519 -2.713)" fill="#426af0"/>
    <path id="Path_20722" data-name="Path 20722" d="M99.607,32.615a7.183,7.183,0,0,0-1.822-1.135c-.243-.115-.5-.2-.747-.3a25.823,25.823,0,0,0-2.757-.941c-.419-.109-.85-.188-1.275-.255a10.729,10.729,0,0,1-1.627-.328c-.17-.055-.128-.225.043-.395a1.111,1.111,0,0,1,.8-.328,8.743,8.743,0,0,1,1.724.243,12.885,12.885,0,0,1,1.682.48c.656.243,1.372.395,2.052.656A11.075,11.075,0,0,1,99.856,31.4c.206.14.4.31.607.461a6.631,6.631,0,0,1,.546.546,4.372,4.372,0,0,1,1.026,2.1,7.408,7.408,0,0,1,.109,1.822,1.61,1.61,0,0,1-.049.383c-.109.468-.291.565-.607.607H101.3a.31.31,0,0,1-.243-.17.771.771,0,0,1-.128-.413,11.48,11.48,0,0,1,0-1.372,4.092,4.092,0,0,0-.2-1.214A3.643,3.643,0,0,0,99.607,32.615Z" transform="translate(-30.057 -5.273)" fill="#426af0"/>
    <path id="Path_20723" data-name="Path 20723" d="M94.3,42.633c.808.383,1.609.771,2.429,1.111a10.072,10.072,0,0,0,1.184.437,2.089,2.089,0,0,0,.971.121A.17.17,0,0,0,99,44.236c.036,0,.036-.055.055-.164a1.975,1.975,0,0,0,0-.334,1.746,1.746,0,0,0-.067-.383,5.592,5.592,0,0,0-1.694-2.593,14.22,14.22,0,0,0-2.714-1.925c-.443-.231-.9-.437-1.36-.65s-.935-.352-1.4-.528c-.607-.213-1.214-.358-1.822-.565a16.782,16.782,0,0,1-1.822-.607c-.376-.164-.285-.316.1-.443a3.643,3.643,0,0,1,1.822-.085c.662.152,1.305.376,1.955.571a13.4,13.4,0,0,1,1.907.759,14.858,14.858,0,0,1,3.54,2.174l.48.419c.158.146.3.3.455.455a9.108,9.108,0,0,1,.856,1,4.359,4.359,0,0,1,.959,2.593,1.658,1.658,0,0,1-.273.941,1.457,1.457,0,0,1-.893.54,3.588,3.588,0,0,1-1.566-.152,22.2,22.2,0,0,1-2.647-.959c-1.026-.431-2.034-.886-3.036-1.3a27.651,27.651,0,0,0-4.724-1.53,14.572,14.572,0,0,0-3.728-.255c-.267,0-.528.055-.8.067-1,.091-1.318.085-1.609-.255-.061-.079-.146-.152-.194-.231-.152-.249.231-.607,1.032-.771a15.179,15.179,0,0,1,7.377.577,43.638,43.638,0,0,1,5.149,1.985Z" transform="translate(-25.919 -8.005)" fill="#426af0"/>
    <path id="Path_20724" data-name="Path 20724" d="M106.169,72.7a28.537,28.537,0,0,0-.364-5.064c-.091-.607-.237-1.214-.346-1.822-.2-1.087-.437-2.162-.668-3.267s-.383-2.234-.5-3.352c-.1-1-.2-2-.237-3.036a12.452,12.452,0,0,1,.079-1.955,3.959,3.959,0,0,1,.729-1.87c.273-.346.352-.176.376.206,0,.176.043.437.073.71,0,.134.049.291.049.443a2.58,2.58,0,0,1-.03.474,35.435,35.435,0,0,0,.437,7.45c.237,1.5.729,3.078,1.014,4.651a34.949,34.949,0,0,1,.607,5.276,24.723,24.723,0,0,1-.121,3.285,15.787,15.787,0,0,1-1.251,4.821c-.134.3-.249.607-.389.886l-.48.844a10.93,10.93,0,0,1-1.111,1.585,3.346,3.346,0,0,1-.607.668,1.937,1.937,0,0,1-1.257.516.565.565,0,0,1-.607-.692c0-.121.17-.146.291-.206s.213-.164.443-.291a3.583,3.583,0,0,0,.971-1.02,9.375,9.375,0,0,0,.9-1.318l.413-.692.328-.747a7.585,7.585,0,0,0,.322-.753l.249-.783a18.294,18.294,0,0,0,.656-4.948Z" transform="translate(-34.094 -14.395)" fill="#426af0"/>
    <path id="Path_20725" data-name="Path 20725" d="M98.152,95.525a9.028,9.028,0,0,0,1.081-1.907c.091-.255.158-.51.231-.771a13.863,13.863,0,0,0,.51-2.872,11.865,11.865,0,0,0,.036-1.312,7.286,7.286,0,0,1,.14-1.694c.036-.176.164-.152.322,0a1.39,1.39,0,0,1,.413.747c.036.291.079.607.091.868s0,.607,0,.874a13.535,13.535,0,0,1-.231,1.767c-.146.7-.225,1.445-.443,2.155a9.715,9.715,0,0,1-1.858,3.455,5.841,5.841,0,0,1-1.822,1.421,7.833,7.833,0,0,1-1.67.607c-.127.03-.255.067-.383.085-.486.079-.644-.061-.747-.334a.736.736,0,0,0-.067-.194c-.042-.219.14-.419.449-.516a8.112,8.112,0,0,0,2.514-.965,5.337,5.337,0,0,0,1.433-1.469Z" transform="translate(-31.031 -28.025)" fill="#426af0"/>
    <path id="Path_20726" data-name="Path 20726" d="M90.935,98.064a6.886,6.886,0,0,0,.674-.941,6.3,6.3,0,0,0,.528-1.014c.091-.267.152-.559.237-.844.285-1.008.546-2.04.759-3.078a13.43,13.43,0,0,0,.194-1.39,8.939,8.939,0,0,1,.267-1.779c.055-.182.176-.158.328,0a1.554,1.554,0,0,1,.407.838,12.891,12.891,0,0,1-.522,3.752c-.219.729-.328,1.5-.546,2.253-.061.206-.121.413-.2.607a2.95,2.95,0,0,1-.14.346l-.152.279c-.2.376-.425.747-.668,1.111a6.072,6.072,0,0,1-1.056,1.251,4.809,4.809,0,0,1-2.228,1.111,8.312,8.312,0,0,1-1.888.255h-.413a1.02,1.02,0,0,1-.528-.158.607.607,0,0,1-.17-.383.834.834,0,0,0-.036-.164c-.006-.043.043-.14.158-.255a.565.565,0,0,1,.431-.194l1.5-.079a6.072,6.072,0,0,0,1.39-.285,3.9,3.9,0,0,0,1.682-1.214Z" transform="translate(-27.9 -28.828)" fill="#426af0"/>
    <path id="Path_20727" data-name="Path 20727" d="M83.106,99.074a3.643,3.643,0,0,1-2.313.225A2.362,2.362,0,0,1,79.3,98.084a4.348,4.348,0,0,1-.279-.7,1,1,0,0,1,.079-.65,1.524,1.524,0,0,1,.194-.291c.067-.079.164-.2.2-.237.389-.419.7-.814,1.032-1.214a10.826,10.826,0,0,0,2.222-5.027,12.86,12.86,0,0,0,.152-2.508c0-.534-.055-1.075-.1-1.609s-.042-1.087-.061-1.633c0-.346.14-.328.358-.073a3.643,3.643,0,0,1,.753,1.4,12.684,12.684,0,0,1-.607,6.946,13.443,13.443,0,0,1-2.131,3.777l-.607.692-.182.194a.127.127,0,0,0-.03.152.607.607,0,0,0,.049.134l.121.225.152.188.182.146a1.518,1.518,0,0,0,1,.188,3.467,3.467,0,0,0,2.137-1.154,10.535,10.535,0,0,0,1.913-3.6,18.373,18.373,0,0,0,.668-3.115c.036-.237.055-.461.1-.692.14-.868.395-1.111.65-1.263a1.415,1.415,0,0,1,.17-.1c.085-.036.152.043.219.219a2.319,2.319,0,0,1,.158.783,13.3,13.3,0,0,1-.383,3.036,17.153,17.153,0,0,1-.984,3.036,10.929,10.929,0,0,1-1.214,2.137l-.4.5a4.858,4.858,0,0,1-.516.486,5.325,5.325,0,0,1-1.166.7Z" transform="translate(-25.238 -26.886)" fill="#426af0"/>
    <path id="Path_20728" data-name="Path 20728" d="M79.2,58.886c.437-.431.9-.832,1.342-1.214.219-.182.431-.358.607-.522a1.056,1.056,0,0,0,.237-.316c0-.194.049-.431.067-.656.043-.5,0-1,.067-1.506.115-1.773.2-3.558.194-5.337,0-.789-.061-1.585-.115-2.362-.073-1-.237-1.985-.3-2.969,0-.31.158-.328.419-.109a2.2,2.2,0,0,1,.741,1.263,25.13,25.13,0,0,1,.37,6.284c-.067,1.251,0,2.556-.043,3.843,0,.559-.055,1.093-.109,1.694a1.676,1.676,0,0,1-.389.85,4.6,4.6,0,0,1-.5.522l-.959.856a10.8,10.8,0,0,0-1.658,1.822,10.322,10.322,0,0,0-1.56,3.412,13.182,13.182,0,0,0-.3,2.884c0,.213,0,.419,0,.607,0,.8-.1,1.044-.516,1.214a1.511,1.511,0,0,1-.279.115c-.31.085-.565-.255-.644-.88a12.2,12.2,0,0,1,0-2.86,12.489,12.489,0,0,1,.771-2.908,11.609,11.609,0,0,1,2.5-3.8Z" transform="translate(-23.976 -11.095)" fill="#426af0"/>
    <path id="Path_20729" data-name="Path 20729" d="M55.594,78.9c.225.273.437.546.644.826l.291.419c.061.085.049.067.055.085h.043l.188.036.468.073c.316.049.644.079.965.115.474.049.947.055,1.427.1,1.682.146,3.37.267,5.064.316.747,0,1.5,0,2.24-.036A14,14,0,0,0,68.4,80.72l.7-.043a6.327,6.327,0,0,0,.692-.043c.279,0,.316.17.115.437a2.174,2.174,0,0,1-1.214.741,23.879,23.879,0,0,1-2.993.249,28.922,28.922,0,0,1-2.987-.127c-1.214-.109-2.429-.085-3.643-.164-.674-.049-1.336-.1-2.016-.182a2.723,2.723,0,0,1-.522-.079,2.671,2.671,0,0,1-.334-.067.925.925,0,0,1-.625-.425l-.164-.225-.3-.383a12.877,12.877,0,0,0-1.615-1.737,9.769,9.769,0,0,0-2.969-1.888,7.133,7.133,0,0,0-1.311-.364,9.915,9.915,0,0,0-1.336-.115H47.27c-.729,0-.965-.091-1.154-.443a2.259,2.259,0,0,1-.127-.237c-.1-.267.206-.516.82-.644a8.385,8.385,0,0,1,2.8.1,10.049,10.049,0,0,1,2.714,1.044A11.955,11.955,0,0,1,55.6,78.868Z" transform="translate(-12.262 -23.335)" fill="#426af0"/>
    <path id="Path_20730" data-name="Path 20730" d="M16.581,79.116a4.754,4.754,0,0,1,.152-1.6,2.829,2.829,0,0,1,1.02-1.542,2.277,2.277,0,0,1,1.075-.431,1.445,1.445,0,0,1,1,.5,2.647,2.647,0,0,1,.188.194l.121.134.219.249c.14.164.279.322.425.474a10.17,10.17,0,0,0,1.384,1.154,14.007,14.007,0,0,0,6.072,2.368,18.738,18.738,0,0,0,2.975.249h3.837c.4,0,.37.231.049.48a3.437,3.437,0,0,1-1.694.644,20.51,20.51,0,0,1-4.05.043,15.738,15.738,0,0,1-4.019-.826,14.463,14.463,0,0,1-4.548-2.35,10.424,10.424,0,0,1-1.032-.965l-.789-.856c-.061-.061-.146-.134-.231-.085a.686.686,0,0,0-.255.152,1.573,1.573,0,0,0-.468.874,4.074,4.074,0,0,0,0,1.463,3.26,3.26,0,0,0,.516,1.336,6.873,6.873,0,0,0,1.645,1.658,12.483,12.483,0,0,0,2.07,1.214,18.968,18.968,0,0,0,3.534,1.214c.267.073.534.121.8.188.99.237,1.257.37,1.421.753l.134.255a.176.176,0,0,1,0,.194.5.5,0,0,1-.249.158,2.222,2.222,0,0,1-.959.061,17.365,17.365,0,0,1-6.9-2.477,9.369,9.369,0,0,1-2.253-1.937,5.8,5.8,0,0,1-.838-1.378,4.718,4.718,0,0,1-.243-.82,7.086,7.086,0,0,1-.1-.771Z" transform="translate(-0.711 -23.583)" fill="#426af0"/>
    <path id="Path_20731" data-name="Path 20731" d="M20.245,89.848a6.964,6.964,0,0,0,1.864,1.135c.261.121.534.2.783.3a28.418,28.418,0,0,0,2.9.923,12.449,12.449,0,0,0,1.342.255,6.527,6.527,0,0,1,1.724.34c.17.073.115.3-.073.534a1.172,1.172,0,0,1-.856.455,14.317,14.317,0,0,1-3.576-.71c-.7-.255-1.457-.376-2.2-.662a11.2,11.2,0,0,1-2.283-1.154,4.858,4.858,0,0,1-1.214-1.141,4.973,4.973,0,0,1-.85-2.319,12.556,12.556,0,0,1-.17-1.822v-.4c.055-.5.182-.607.546-.674a1.214,1.214,0,0,1,.249,0c.279,0,.474.231.516.571a17.729,17.729,0,0,0,.334,2.835,3.078,3.078,0,0,0,1,1.506Z" transform="translate(-1.133 -27.26)" fill="#426af0"/>
    <path id="Path_20732" data-name="Path 20732" d="M23.819,97.84a11.8,11.8,0,0,0,1.907.826c.243.079.528.127.747.188a16.551,16.551,0,0,0,2.738.431c.425.036.85.036,1.275.036a4.25,4.25,0,0,1,1.652.176c.17.061.121.249-.043.455a1.078,1.078,0,0,1-.729.48,16.521,16.521,0,0,1-3.321-.067c-.674-.121-1.409-.1-2.143-.273a12.607,12.607,0,0,1-2.216-.765A8.7,8.7,0,0,1,22.4,98.6a4.736,4.736,0,0,1-1.536-1.724,4.062,4.062,0,0,1-.522-1.761v-.407c.073-.492.213-.607.607-.607a1.135,1.135,0,0,1,.249,0,.607.607,0,0,1,.5.553,4.013,4.013,0,0,0,.735,2.064,4.548,4.548,0,0,0,1.439,1.105Z" transform="translate(-2.193 -30.874)" fill="#426af0"/>
    <path id="Path_20733" data-name="Path 20733" d="M39.992,105.673c.765-.146,1.524-.346,2.307-.546s1.591-.383,2.386-.546c.607-.121,1.16-.261,1.743-.364a59.424,59.424,0,0,1,6.236-.723c.929-.042,1.858-.1,2.787-.1h.9l.9.091a5.319,5.319,0,0,1,1.755.522c.352.164.213.322-.146.443a3.94,3.94,0,0,1-.68.152,2.21,2.21,0,0,1-.874.049,33.946,33.946,0,0,0-3.437-.067c-1.166.036-2.344.121-3.534.206a37.039,37.039,0,0,0-4.3.729c-.783.164-1.567.334-2.35.522s-1.536.413-2.344.607a25.651,25.651,0,0,1-2.981.607,14.086,14.086,0,0,1-4.651-.115,9.108,9.108,0,0,1-3.364-1.4,4.249,4.249,0,0,1-.65-.492,2.113,2.113,0,0,1-.662-.85,1,1,0,0,1-.073-.3,1.148,1.148,0,0,1,.067-.285,1.348,1.348,0,0,1,.067-.219c.067-.158.607-.085,1.069.346a10.771,10.771,0,0,0,2.429,1.475,8.628,8.628,0,0,0,2.835.644,16.587,16.587,0,0,0,4.566-.431Z" transform="translate(-5.58 -34.524)" fill="#426af0"/>
    <path id="Path_20734" data-name="Path 20734" d="M106.684,31.146c.085.1,0,.219-.121.364-.043.042-.206.1-.243.073a1.16,1.16,0,0,1-.194-.146,5.8,5.8,0,0,1-.461-.85,2.969,2.969,0,0,1-.249-.607,11.191,11.191,0,0,1-.346-1.305,1.215,1.215,0,0,1,0-.3,3.9,3.9,0,0,0-.109-1,.328.328,0,0,0-.067-.158,5.064,5.064,0,0,1-.231-1.069v-1a.612.612,0,0,0,0-.279,1.554,1.554,0,0,1,0-.376.468.468,0,0,1,.091-.219.1.1,0,0,1,.14-.043c.049.042.085,0,.121-.03h.043c.1,0,.553.607.571.692s.352,1.05.376,1.166a.419.419,0,0,1,0,.194c0,.042.219.862.231.893a1.287,1.287,0,0,1,0,.528.152.152,0,0,0,0,.1,8.7,8.7,0,0,1,.1.88l.061.443a.4.4,0,0,1,0,.085.606.606,0,0,0,0,.1,6.678,6.678,0,0,0,.194,1.038,1.811,1.811,0,0,0,.061.565A.4.4,0,0,1,106.684,31.146Z" transform="translate(-35.313 -3.415)" fill="#426af0"/>
    <path id="Path_20735" data-name="Path 20735" d="M96.306,105.106c-.115.109-.273.079-.461,0-.061-.036-.14-.188-.109-.231a2.429,2.429,0,0,1,.2-.237,6.873,6.873,0,0,1,1.214-.607,4.543,4.543,0,0,1,.893-.255,15.969,15.969,0,0,1,1.822-.231,3.034,3.034,0,0,1,.407,0,11.856,11.856,0,0,0,1.39.036.607.607,0,0,0,.231,0,8.02,8.02,0,0,1,1.524,0c.395.085.789.146,1.178.213a.389.389,0,0,1,.17.042.644.644,0,0,0,.358.091,4.755,4.755,0,0,1,.5.061.868.868,0,0,1,.249.1c.073.036,0,.158,0,.17v.2a6.842,6.842,0,0,1-1.111.231h-1.621a1.214,1.214,0,0,1-.255-.036h-1.214a2.677,2.677,0,0,1-.692-.067.364.364,0,0,0-.14,0H99.628a2.538,2.538,0,0,0-.607.049h-.091a.528.528,0,0,0-.14,0,7.523,7.523,0,0,0-1.384.255c-.055,0-.206.036-.364.061a2.233,2.233,0,0,0-.364.1C96.61,105.082,96.355,105.033,96.306,105.106Z" transform="translate(-31.808 -34.582)" fill="#426af0"/>
    <path id="Path_20736" data-name="Path 20736" d="M24.9,100.47c-.091-.067-.043-.182.073-.34.036-.055.188-.14.225-.121a1.354,1.354,0,0,1,.2.121,4.159,4.159,0,0,1,.474.808,2.568,2.568,0,0,1,.194.607c.1.419.158.838.213,1.251a1.421,1.421,0,0,1,0,.279,4.857,4.857,0,0,0,0,.941.267.267,0,0,0,.036.152,4.42,4.42,0,0,1,.036,1.026c-.055.267-.073.528-.121.783v.115a.279.279,0,0,0-.061.237v.352a.953.953,0,0,1-.03.164.115.115,0,0,1-.121.067.094.094,0,0,0-.1.055h-.036a1.111,1.111,0,0,1-.255-.334,2.72,2.72,0,0,1-.2-.413,11.251,11.251,0,0,1-.194-1.123.534.534,0,0,1,0-.17s-.1-.8-.1-.826a1.081,1.081,0,0,1,.043-.48.231.231,0,0,0,0-.091c0-.273,0-.54,0-.808a3.067,3.067,0,0,0-.036-.407.3.3,0,0,1,0-.073.456.456,0,0,0,0-.091,4.19,4.19,0,0,0-.164-.929,3.242,3.242,0,0,0-.079-.486C24.887,100.682,24.942,100.494,24.9,100.47Z" transform="translate(-3.966 -33.194)" fill="#426af0"/>
    <path id="Path_20737" data-name="Path 20737" d="M24.828,23.4c.079-.061.164,0,.255.2a.455.455,0,0,1,0,.261.771.771,0,0,1-.128.152s-.5.188-.662.243a1.894,1.894,0,0,1-.48.109c-.328.043-.656.085-.99.115a.88.88,0,0,1-.219,0,2.368,2.368,0,0,0-.747,0,.206.206,0,0,0-.128.036,2.641,2.641,0,0,1-.826.061c-.213-.067-.431-.109-.644-.158a.1.1,0,0,1-.091-.036.213.213,0,0,0-.2-.085,1.214,1.214,0,0,1-.279-.055.425.425,0,0,1-.134-.109c-.043-.043,0-.182,0-.2v-.17a.2.2,0,0,1,0-.061,2.429,2.429,0,0,1,.607-.285l.407-.042a2.022,2.022,0,0,0,.461-.061.291.291,0,0,1,.14.03s.607-.067.656-.067a.9.9,0,0,1,.376.055.128.128,0,0,0,.079,0,4.645,4.645,0,0,1,.65,0,2.957,2.957,0,0,0,.328,0h.061a.194.194,0,0,0,.079,0,5.671,5.671,0,0,0,.783-.061,3.109,3.109,0,0,0,.419,0C24.676,23.319,24.8,23.422,24.828,23.4Z" transform="translate(-1.879 -3.05)" fill="#426af0"/>
  </g>
</svg>
