<svg xmlns="http://www.w3.org/2000/svg" width="368" height="262" viewBox="0 0 368 262">
  <g id="Group_3676" data-name="Group 3676" transform="translate(-535 -854)">
    <rect id="victoria-kubiaki-t0Aio60jD4Q-unsplash" width="368" height="262" rx="20" transform="translate(535 854)" fill="#eae9e4"/>
    <path id="Intersection_23" data-name="Intersection 23" d="M-6300.72,6915.692c-20.035-5.368-35.834-21.183-43.348-43.393l-64.128-189.566h65.2l57.42,169.76a17.3,17.3,0,0,0,1.1,2.56,15.1,15.1,0,0,0,2.2-1.675l194.182-170.646h1.78a15,15,0,0,1,15,15v52.5l-170.177,149.556c-13.308,11.694-28.888,17.862-44.352,17.862A57.4,57.4,0,0,1-6300.72,6915.692Z" transform="translate(6974.306 -5828.732)" fill="#fff" opacity="0.34"/>
  </g>
</svg>
