<svg xmlns="http://www.w3.org/2000/svg" width="919.546" height="1210.243" viewBox="0 0 919.546 1210.243">
  <path id="Path_20593" data-name="Path 20593" d="M61.1,1075.037A61.1,61.1,0,0,1,22.523,966.551L533.076,551.685c5.607-4.51,8.715-9.508,8.715-14.14,0-4.571-3.108-9.63-8.715-14.2L22.523,108.54A61.09,61.09,0,0,1,99.56,13.706L610.113,428.511c34.192,27.731,53.816,67.529,53.816,109.034S644.3,618.788,610.113,646.58L99.56,1061.384A60.635,60.635,0,0,1,61.1,1075.037" transform="matrix(-0.966, 0.259, -0.259, -0.966, 919.546, 1038.406)" fill="#fff" opacity="0.058"/>
</svg>
