<svg xmlns="http://www.w3.org/2000/svg" width="1065.679" height="1224.55" viewBox="0 0 1065.679 1224.55">
  <path id="Path_20591" data-name="Path 20591" d="M93.439,1053.393a84.674,84.674,0,0,1-40.42-10.039C22.218,1026.9,4.61,993.262,4.61,951.108V108.334c0-42.154,17.608-75.794,48.409-92.246,30.749-16.452,68.54-12.51,103.6,10.88L774.9,439.157c33.272,22.181,52.352,55.19,52.352,90.564S808.173,598.1,774.9,620.285L156.618,1032.473c-20.814,13.876-42.522,20.92-63.179,20.92m16.5-930.92v814.5l606.509-404.3a29.84,29.84,0,0,0,3.732-2.944,25.843,25.843,0,0,0-3.732-2.891Z" transform="matrix(0.966, -0.259, 0.259, 0.966, -6.024, 208.244)" fill="#f8f8f8" opacity="0.058"/>
</svg>
