<svg xmlns="http://www.w3.org/2000/svg" width="30" height="30" viewBox="0 0 30 30">
  <g id="Group_3656" data-name="Group 3656" transform="translate(630.792 1643.792) rotate(180)">
    <circle id="Ellipse_408" data-name="Ellipse 408" cx="15" cy="15" r="15" transform="translate(630.792 1613.792) rotate(90)" fill="#426af0"/>
    <g id="Group_3514" data-name="Group 3514" transform="translate(623.05 1625.75) rotate(90)">
      <path id="Path_10" data-name="Path 10" d="M.843,14.832a.843.843,0,0,1-.532-1.5L7.355,7.612a.271.271,0,0,0,.12-.2.275.275,0,0,0-.12-.2L.311,1.5A.843.843,0,0,1,1.374.189L8.418,5.912a1.9,1.9,0,0,1,0,3.009L1.374,14.644a.837.837,0,0,1-.531.188" transform="translate(0 0)" fill="#fff"/>
    </g>
  </g>
</svg>
