<svg xmlns="http://www.w3.org/2000/svg" width="79.844" height="75.865" viewBox="0 0 79.844 75.865">
  <g id="Layer_38" data-name="Layer 38" transform="translate(-7.793 -10.876)">
    <path id="Path_20871" data-name="Path 20871" d="M33.988,59.2A9.516,9.516,0,0,1,35.1,60.427c.121.163.256.305.369.476a19.985,19.985,0,0,1,1.072,1.8c.149.277.3.54.447.81a10.361,10.361,0,0,1,.526,1.051c.085.227-.355.114-.582-.277-.4-.71-.753-1.42-1.129-2.1a9.183,9.183,0,0,0-.8-1.207,10.028,10.028,0,0,0-1.044-1.207,8.986,8.986,0,0,0-.71-.639,5.681,5.681,0,0,0-1.293-.71,3.551,3.551,0,0,0-.54-.149l-.554-.078h-.241c-.305,0-.4-.043-.469-.185a.369.369,0,0,1-.043-.092c0-.1.1-.178.348-.192a4.133,4.133,0,0,1,2.18.5,6.548,6.548,0,0,1,1.42.966Z" transform="translate(-6.468 -13.578)" fill="#231f20"/>
    <path id="Path_20872" data-name="Path 20872" d="M100.531,59.519a7.955,7.955,0,0,0-.753.859c-.078.121-.156.234-.227.355a8,8,0,0,0-.71,1.3,3.417,3.417,0,0,0-.213.625,5.348,5.348,0,0,1-.227.817c-.064.17-.362-.1-.341-.455a5.078,5.078,0,0,1,.632-1.712c.2-.312.362-.653.575-.959a7.619,7.619,0,0,1,.767-.952,7.52,7.52,0,0,1,.54-.526,7.2,7.2,0,0,1,.923-.71,4.261,4.261,0,0,1,.774-.412l.185-.071c.241,0,.327,0,.391.043l.043.05c0,.05-.057.121-.206.2a10.851,10.851,0,0,0-1.264.781,7.1,7.1,0,0,0-.859.746Z" transform="translate(-26.161 -13.565)" fill="#231f20"/>
    <path id="Path_20873" data-name="Path 20873" d="M38.917,38.543c.107.412.2.831.284,1.257a2.793,2.793,0,0,0,.107.455c.085.547.149,1.094.213,1.64l.085.71a3.231,3.231,0,0,1,0,.945c0,.192-.305-.064-.376-.4-.107-.6-.234-1.207-.284-1.832a9.154,9.154,0,0,0-.241-1.129c-.085-.412-.178-.831-.277-1.243-.071-.249-.128-.5-.206-.753-.114-.376-.227-.76-.376-1.122a5.952,5.952,0,0,0-.419-.788l-.1-.163c-.114-.206-.107-.3,0-.419a.312.312,0,0,1,.057-.078c.064-.078.192-.036.348.1a4.389,4.389,0,0,1,.817,1.577c.149.412.27.831.383,1.25Z" transform="translate(-8.536 -7.161)" fill="#231f20"/>
    <path id="Path_20874" data-name="Path 20874" d="M80.509,43.3a11.644,11.644,0,0,1-.305-1.285l-.092-.462c-.078-.561-.114-1.115-.163-1.669a5.591,5.591,0,0,0-.071-.71,6.916,6.916,0,0,1-.057-.937c0-.2.348,0,.391.383.064.632.128,1.257.163,1.9a10.468,10.468,0,0,0,.178,1.15,12.233,12.233,0,0,0,.277,1.25c.078.256.156.5.249.746a8.807,8.807,0,0,0,.511,1.079c.149.27.327.526.49.788l.107.17c.128.227.135.312.05.412a.277.277,0,0,1-.057.071c-.071.064-.185,0-.291-.142A11.455,11.455,0,0,1,81,44.566a8.559,8.559,0,0,1-.5-1.243Z" transform="translate(-20.875 -7.908)" fill="#231f20"/>
    <path id="Path_20875" data-name="Path 20875" d="M17.394,50.485c.881,1.712,1.861,3.409,2.841,5.1s2,3.38,2.841,5.191c.632,1.293,1.278,2.578,1.839,3.913A36.276,36.276,0,0,1,27.2,72.018a24.018,24.018,0,0,1,.433,3.835,26.674,26.674,0,0,1-.213,3.849,38.555,38.555,0,0,1-1.47,6.626,32.824,32.824,0,0,1-3.508,7.883c-.476.76-.653.518-.547-.277a15.794,15.794,0,0,1,1.065-3.643,42.61,42.61,0,0,0,2.748-8.053,25.794,25.794,0,0,0,.554-8.444A33.8,33.8,0,0,0,23.09,63.773q-.611-1.342-1.257-2.663c-.419-.881-.895-1.719-1.378-2.578l-2.94-5.149c-.469-.838-.93-1.683-1.364-2.557-.213-.44-.426-.874-.618-1.335-.092-.234-.178-.469-.256-.71a1.5,1.5,0,0,1,0-.959,2.791,2.791,0,0,1,1.165-1.42A2.713,2.713,0,0,1,18,46.075a5.014,5.014,0,0,1,1.463.355,8.124,8.124,0,0,1,2.4,1.6A11.725,11.725,0,0,1,24.9,52.779l.142.433c.036.121.071.249.1.369a.234.234,0,0,0,.149.2l.128.064.206.085.881.355a15.4,15.4,0,0,1,1.761.845A11.256,11.256,0,0,1,32.4,59.249a8.771,8.771,0,0,1,.959,2.365,1.974,1.974,0,0,1,0,1.179,2.13,2.13,0,0,1-.142.369c-.2.277-.625-.589-1.285-2.052a11.022,11.022,0,0,0-3.025-3.927,10.894,10.894,0,0,0-2.131-1.342c-.391-.192-.788-.348-1.207-.533-.213-.085-.433-.17-.71-.291a2.365,2.365,0,0,1-.561-.362.71.71,0,0,1-.2-.27,1.924,1.924,0,0,1-.142-.3l-.092-.4a.862.862,0,0,0-.078-.263c-.028-.085-.1-.348-.163-.518a8.827,8.827,0,0,0-.426-1,10.113,10.113,0,0,0-1.158-1.868,8,8,0,0,0-2.976-2.457,2.628,2.628,0,0,0-1.612-.234,1.186,1.186,0,0,0-.561.312,1.009,1.009,0,0,0-.213.263c0,.05-.064.1-.092.156l-.107.071h0a1.712,1.712,0,0,0,.057.241c.071.206.156.433.256.66.2.455.426.923.668,1.42Z" transform="translate(-2.146 -10.198)" fill="#231f20"/>
    <path id="Path_20876" data-name="Path 20876" d="M109.923,55.82c-.98,1.335-1.981,2.649-2.841,4-.213.334-.426.71-.611,1.016a5.682,5.682,0,0,0-.462,1.058,16.745,16.745,0,0,0-.71,2.28,15.569,15.569,0,0,0-.355,1.712l-.22,1.74a32.7,32.7,0,0,0,.128,6.235,43.077,43.077,0,0,0,1.214,6.186,51.988,51.988,0,0,0,1.747,5.333c.852,2.237,1.868,4.417,2.606,6.718.234.71,0,.71-.526.227a9.367,9.367,0,0,1-1.79-2.713,59.278,59.278,0,0,1-4.261-14.274,32.788,32.788,0,0,1-.206-9.232,21.369,21.369,0,0,1,1.349-4.971,11.959,11.959,0,0,1,1.25-2.258c.469-.71.959-1.385,1.456-2.059l1.818-2.479a19.131,19.131,0,0,0,1.626-2.443,2.35,2.35,0,0,0,.149-.391.256.256,0,0,0,0-.256c-.043-.05-.142-.206-.234-.305a2.1,2.1,0,0,0-.334-.277,2.311,2.311,0,0,0-.4-.2l-.433-.121a3.593,3.593,0,0,0-1.839.256,6.732,6.732,0,0,0-2.976,2.464,5.64,5.64,0,0,0-.391.618,4.311,4.311,0,0,0-.341.646c-.092.22-.213.433-.284.66l-.263.71-.085.17c-.057,0-.078.1-.128.135a1.25,1.25,0,0,1-.305.213l-.433.263c-.284.17-.547.362-.81.554a11.448,11.448,0,0,0-1.42,1.314A12.276,12.276,0,0,0,99.7,59.52c-1.037,1.534-1.236,2.131-1.747,2.336a2.322,2.322,0,0,1-.312.17c-.142.043-.185-.135-.149-.511a4.815,4.815,0,0,1,.554-1.6,11.413,11.413,0,0,1,2.131-2.9,10.894,10.894,0,0,1,1.42-1.193c.256-.178.518-.348.781-.5l.327-.192h0a1.469,1.469,0,0,1,.092-.263l.142-.391c.1-.263.241-.511.362-.767a6.349,6.349,0,0,1,.419-.71,5.872,5.872,0,0,1,.483-.71,8.21,8.21,0,0,1,2.571-2.336,5.376,5.376,0,0,1,2.784-.76,3.423,3.423,0,0,1,1.534.4,2.613,2.613,0,0,1,.71.469,1.285,1.285,0,0,1,.291.3l.312.4a1.761,1.761,0,0,1,.149.575,2.131,2.131,0,0,1-.078.582,4.218,4.218,0,0,1-.284.71,10.1,10.1,0,0,1-.675,1.158c-.469.71-.959,1.42-1.456,2.1Z" transform="translate(-25.995 -11.102)" fill="#231f20"/>
    <path id="Path_20877" data-name="Path 20877" d="M29.052,24.941a6.945,6.945,0,0,0-1.129-1.15,4.872,4.872,0,0,0-.625-.4,2.579,2.579,0,0,0-.277-.107h-.114a.142.142,0,0,0-.121.107,1.854,1.854,0,0,0-.1.618,8.991,8.991,0,0,0,.149,1.648c.071.412.163.824.263,1.243s.213.874.3,1.278c.66,2.969,1.42,5.98,1.96,9.026.249,1.349.469,2.72.639,4.076a11.524,11.524,0,0,1-.27,5.355c-.2.547-.44.348-.611-.163a7.613,7.613,0,0,1-.334-2.251,30.963,30.963,0,0,0-.426-5.127c-.27-1.726-.6-3.459-.923-5.213-.391-2.088-1.058-4.261-1.513-6.392a14,14,0,0,1-.49-3.728,2.393,2.393,0,0,1,.32-1.136,1.229,1.229,0,0,1,1.207-.589,3.956,3.956,0,0,1,1.9.916,13.621,13.621,0,0,1,2.841,3.608,37.845,37.845,0,0,1,2.841,6.193,42.058,42.058,0,0,1,1.548,4.971c.078.376.156.753.22,1.136a5.511,5.511,0,0,1,0,1.555,1.172,1.172,0,0,1-.362.71,2.428,2.428,0,0,1-.192.192c-.17.114-.447-.455-.618-1.42a47.134,47.134,0,0,0-2.72-8.849,34.159,34.159,0,0,0-1.491-3.182c-.263-.526-.582-1-.874-1.506a14.2,14.2,0,0,0-1.008-1.371Z" transform="translate(-5.112 -3.232)" fill="#231f20"/>
    <path id="Path_20878" data-name="Path 20878" d="M39.688,23.972a24.2,24.2,0,0,0-1.172-2.748A10.6,10.6,0,0,0,36.9,18.838a2.088,2.088,0,0,0-1.342-.774.391.391,0,0,0-.284.17,1.733,1.733,0,0,0-.078.653,11.8,11.8,0,0,0,.234,1.861c.241,1.271.568,2.557.888,3.849.284,1.143.589,2.294.852,3.451a17.045,17.045,0,0,1,.369,2.273,5.781,5.781,0,0,1-.227,2.372c-.213.49-.376.3-.5-.121a12.782,12.782,0,0,1-.476-1.875c-.469-2.841-1.42-5.774-2.017-8.849a20.986,20.986,0,0,1-.44-2.919,3.217,3.217,0,0,1,.085-.874,1.52,1.52,0,0,1,.6-.945,1.641,1.641,0,0,1,1.016-.362,2.131,2.131,0,0,1,.959.213,4.5,4.5,0,0,1,1.42,1.094,9.184,9.184,0,0,1,.98,1.321,18.991,18.991,0,0,1,1.484,2.841A31.425,31.425,0,0,1,41.7,25.9a49.854,49.854,0,0,1,1.214,5.731c.234,1.484.49,2.947.639,4.431.043.327.078.646.1.98.092,1.229,0,1.619-.376,1.889a1.35,1.35,0,0,1-.249.178c-.27.114-.526-.376-.625-1.25-.334-2.6-.625-5.312-1.158-8.011a37.639,37.639,0,0,0-1.6-5.866Z" transform="translate(-7.56 -1.702)" fill="#231f20"/>
    <path id="Path_20879" data-name="Path 20879" d="M50.921,34.053c-.085-.71-.185-1.42-.305-2.088s-.249-1.42-.4-2.131c-.107-.5-.263-.994-.383-1.5a22.015,22.015,0,0,0-.767-2.578,7.03,7.03,0,0,0-.547-1.165,1.569,1.569,0,0,0-.71-.71.376.376,0,0,0-.284.05,1.364,1.364,0,0,0-.327.284,2.393,2.393,0,0,0-.412.945,24.118,24.118,0,0,1-.476,3.075c-.128.341-.3.22-.462-.085a3.238,3.238,0,0,1-.44-1.42,12.144,12.144,0,0,1,.128-1.7,3.388,3.388,0,0,1,.866-1.861,2.89,2.89,0,0,1,.49-.376,1.754,1.754,0,0,1,.71-.22,1.783,1.783,0,0,1,1.293.5,4.6,4.6,0,0,1,1.016,1.6,32.823,32.823,0,0,1,1.3,3.856c.362,1.42.639,2.841.888,4.3.149.895.263,1.79.355,2.684.135,1.356.192,2.727.241,4.083,0,1.051.107,2.088.085,3.139a5.682,5.682,0,0,1,0,.71c-.078.866-.291,1.122-.639,1.25a1.513,1.513,0,0,1-.234.078c-.121,0-.213-.064-.3-.234a1.683,1.683,0,0,1-.156-.71c-.071-1.8-.05-3.672-.17-5.575-.085-1.42-.213-2.841-.412-4.261Z" transform="translate(-10.902 -3.389)" fill="#231f20"/>
    <path id="Path_20880" data-name="Path 20880" d="M56.248,60.4c.078-2.308-.114-4.659-.2-7.045,0-.874-.078-1.747-.043-2.628.135-3.047.213-6.072.057-9.083a17.264,17.264,0,0,0-.568-3.892,3,3,0,0,0-.2-.526.483.483,0,0,0-.1-.156.334.334,0,0,0-.107-.092.227.227,0,0,0-.249,0,.625.625,0,0,0-.107.085,1.37,1.37,0,0,0-.17.178,7.486,7.486,0,0,0-1,2.2c-.22.518-.376.369-.462-.121a5.028,5.028,0,0,1-.1-1,2.784,2.784,0,0,1,.376-1.506,3.061,3.061,0,0,1,.568-.71L54.2,35.9c.092-.057.192-.092.284-.142a1.129,1.129,0,0,1,.6-.121,1.42,1.42,0,0,1,1.051.6l.192.256.107.192a2.2,2.2,0,0,1,.17.376,11.214,11.214,0,0,1,.561,2.777,39.9,39.9,0,0,1,.078,5.369c0,1.072-.064,2.131-.092,3.245s-.043,2.209-.043,3.267c0,2.351.241,4.73.277,7.137a25.453,25.453,0,0,1-.277,4.46,14.991,14.991,0,0,1-.888,3.3A15.944,15.944,0,0,1,54.6,69.6a17.549,17.549,0,0,1-1.633,2.038,14.332,14.332,0,0,1-1.939,1.768c-.305.241-.625.447-.952.668-1.264.71-1.783.753-2.173.547a1.158,1.158,0,0,1-.263-.149c-.206-.206.263-.568,1.1-1.051a14.978,14.978,0,0,0,6.029-6.392,15.574,15.574,0,0,0,1.42-6.612Z" transform="translate(-11.535 -7.176)" fill="#231f20"/>
    <path id="Path_20881" data-name="Path 20881" d="M51.335,96.895c-.114.959-.249,1.91-.327,2.841,0,.348-.036.71-.057,1.051-.107,1.243-.2,2.486-.234,3.728v1.648c0,.71.085,1.42.064,2.06,0,.163-.163.263-.391.107a1.42,1.42,0,0,1-.533-.923,19.658,19.658,0,0,1-.057-4.382c.078-.874.05-1.783.092-2.677s.128-1.967.22-2.947l.22-1.8c.114-.916.284-1.825.419-2.727.128-.71.185-1.42.348-2.131a3.643,3.643,0,0,1,.092-.469c.213-.568.4-.71.71-.71a1.73,1.73,0,0,1,.192,0c.192.036.277.327.249.71-.178,1.179-.433,2.407-.6,3.693-.149.945-.277,1.9-.376,2.841Z" transform="translate(-12.147 -22.804)" fill="#231f20"/>
    <path id="Path_20882" data-name="Path 20882" d="M33.575,104.429a27.193,27.193,0,0,0,2.784.824c.348.071.71.114,1.044.178a16.114,16.114,0,0,0,3.686.369,7.1,7.1,0,0,0,1.6-.241,18.358,18.358,0,0,0,1.925-.71c.206-.071.312.128.263.426a1.307,1.307,0,0,1-.71.923,6.569,6.569,0,0,1-2.287.646,9.467,9.467,0,0,1-2.329,0c-.916-.107-1.861-.142-2.777-.312a27.605,27.605,0,0,1-2.954-.71c-.6-.185-1.186-.391-1.775-.589-.888-.32-1.761-.71-2.621-1.044-.675-.277-1.364-.5-2.031-.817a4.261,4.261,0,0,1-.433-.227c-.518-.355-.625-.618-.518-.923a.952.952,0,0,1,.092-.192c.142-.163.383-.156.76-.043,1.122.376,2.294.952,3.508,1.42.9.362,1.811.71,2.741,1.008Z" transform="translate(-5.395 -26.382)" fill="#231f20"/>
    <path id="Path_20883" data-name="Path 20883" d="M71.328,50.4c.391,1.115.8,2.223,1.257,3.317s.966,2.23,1.328,3.395c.277.845.554,1.69.781,2.535.4,1.5.76,2.99,1.243,4.417a18.983,18.983,0,0,0,1.889,4.091,12.279,12.279,0,0,0,2.592,2.976,12.577,12.577,0,0,0,4.453,2.2c.483.241.419.355-.092.547a2.557,2.557,0,0,1-1.051.17,6.5,6.5,0,0,1-.71-.064,6.71,6.71,0,0,1-.71-.22,11.547,11.547,0,0,1-4.488-3.48A17.044,17.044,0,0,1,75.177,65.4c-.71-2.088-1.3-4.261-1.939-6.335a29.593,29.593,0,0,0-1.179-3.345c-.462-1.1-.994-2.216-1.42-3.352-.277-.71-.54-1.42-.774-2.131S69.4,48.813,69.2,48.1c-.156-.547-.263-1.115-.4-1.669a12.257,12.257,0,0,1-.277-1.7,10.467,10.467,0,0,1,.064-3.487A4.19,4.19,0,0,1,69.1,39.9a1.314,1.314,0,0,1,1.541-.71,1.882,1.882,0,0,1,.71.554,4.545,4.545,0,0,1,.412.6,11.775,11.775,0,0,1,.618,1.193l.462,1.051c.263.639.44,1.023.533,1.278a1.577,1.577,0,0,1,.1.589.71.71,0,0,0,.114.27.128.128,0,0,1-.05.192.554.554,0,0,1-.447,0,2.131,2.131,0,0,1-1.016-1.016c-.4-.71-.71-1.42-1.03-2.131a8.954,8.954,0,0,0-.511-.945,2.13,2.13,0,0,0-.234-.305h0s.043-.043-.057.1a2.84,2.84,0,0,0-.305.845,7.854,7.854,0,0,0-.107,2.131,27.129,27.129,0,0,0,1.534,6.8Z" transform="translate(-17.567 -8.193)" fill="#231f20"/>
    <path id="Path_20884" data-name="Path 20884" d="M74.535,30.205a38.681,38.681,0,0,0,.121,4.339c.043.533.135,1.058.192,1.584a55.161,55.161,0,0,0,.859,5.6c.185.817.4,1.633.639,2.422.156.511.341,1.008.526,1.5a14.714,14.714,0,0,0,.561,1.42c.135.256,0,.369-.32.241a2.514,2.514,0,0,1-1.129-1.079,20.538,20.538,0,0,1-1.158-3.174,28.781,28.781,0,0,1-.66-3.3c-.185-1.321-.5-2.684-.71-4.041a36.843,36.843,0,0,1-.327-4.517,20.885,20.885,0,0,1,.142-2.841,8.046,8.046,0,0,1,.526-2.131,2.961,2.961,0,0,1,.71-1,1.889,1.889,0,0,1,1.221-.5,1.42,1.42,0,0,1,1.023.447,3.416,3.416,0,0,1,.547.8,14.547,14.547,0,0,1,.589,1.548c.078.22.163.433.234.653.27.817.227,1.1-.064,1.42a1.278,1.278,0,0,1-.192.2q-.17.114-.4-.064a1.555,1.555,0,0,1-.469-.632c-.4-.874-.71-1.889-1.016-2.613a1.016,1.016,0,0,0-.227-.348h0c-.128,0-.234.043-.412.305a4.453,4.453,0,0,0-.554,1.7,14.379,14.379,0,0,0-.178,2.131Z" transform="translate(-18.935 -4.015)" fill="#231f20"/>
    <path id="Path_20885" data-name="Path 20885" d="M83.419,20.775a10.014,10.014,0,0,0-.256-1.456,2.13,2.13,0,0,0-.1-.32L83,18.843a.08.08,0,0,0-.085-.071h0a.362.362,0,0,0-.156.036,1.555,1.555,0,0,0-.305.107,2.131,2.131,0,0,0-.547.426,4.261,4.261,0,0,0-.8,1.42,11.732,11.732,0,0,0-.511,2.372,34.9,34.9,0,0,0,.156,8.934,36.468,36.468,0,0,0,.746,3.927c.433,1.648.937,3.267,1.42,4.879.163.5-.036.533-.447.22a4.545,4.545,0,0,1-1.42-1.96,29.564,29.564,0,0,1-1.307-5.184,36.305,36.305,0,0,1-.554-5.34,33.072,33.072,0,0,1,.249-6.626,8.792,8.792,0,0,1,.952-2.77,4.1,4.1,0,0,1,1.023-1.207,2.99,2.99,0,0,1,.71-.391,3.836,3.836,0,0,1,.4-.128l.511-.057a1.129,1.129,0,0,1,1.03.625,3.4,3.4,0,0,1,.241.5c.057.149.1.3.142.44a21.618,21.618,0,0,1,.568,4.467c.057,1.122,0,2.244.064,3.338a27.623,27.623,0,0,0,.263,3.267,24.231,24.231,0,0,0,1.271,4.815l.4,1.023c.5,1.271.54,1.726.327,2.131a1.591,1.591,0,0,1-.149.27c-.192.227-.639-.206-1.115-1.129a23.726,23.726,0,0,1-1.626-4.424,27.356,27.356,0,0,1-.71-4.865c-.085-1.214-.071-2.45-.1-3.593s-.121-2.336-.249-3.473Z" transform="translate(-20.675 -1.9)" fill="#231f20"/>
    <path id="Path_20886" data-name="Path 20886" d="M95.18,29.933c-.1-1.136-.206-2.258-.341-3.38a20.169,20.169,0,0,0-.6-3.231,2.84,2.84,0,0,0-.327-.71.163.163,0,0,0-.206-.071.781.781,0,0,0-.192.107,2.983,2.983,0,0,0-1.03,1.42,10.148,10.148,0,0,0-.554,1.988,25.191,25.191,0,0,0-.341,4.261,31.438,31.438,0,0,0,.241,3.842c.107.81.234,1.626.348,2.436s.263,1.6.369,2.415c.085.49-.092.5-.447.142a5.171,5.171,0,0,1-.582-.746,4.78,4.78,0,0,1-.49-1.25,27.228,27.228,0,0,1-.646-5.127,26.8,26.8,0,0,1,.249-5.213,17.754,17.754,0,0,1,.646-2.89,6.178,6.178,0,0,1,.71-1.42l.263-.341c.1-.107.213-.206.32-.312a3.46,3.46,0,0,1,.369-.263.81.81,0,0,1,.206-.107l.3-.128a1.179,1.179,0,0,1,.767,0,1.463,1.463,0,0,1,.561.412,2.265,2.265,0,0,1,.327.5,5.6,5.6,0,0,1,.341.895,15.971,15.971,0,0,1,.383,1.74c.2,1.158.327,2.3.447,3.444l.412,4.218c.206,2.131.383,4.261.71,6.349A31.66,31.66,0,0,0,98.582,43.6c.121.334.249.646.376.973.49,1.193.71,1.52.568,1.932a1.372,1.372,0,0,1-.064.27c-.085.249-.639-.085-1.143-1.008-1.42-2.734-1.875-5.866-2.379-8.927-.178-1.143-.327-2.287-.469-3.43s-.227-2.294-.341-3.43Z" transform="translate(-23.928 -3.018)" fill="#231f20"/>
    <path id="Path_20887" data-name="Path 20887" d="M91.674,100.062c-.213-.824-.44-1.648-.71-2.464-.092-.305-.22-.589-.305-.888-.305-1.058-.632-2.131-.98-3.16-.149-.462-.341-.916-.533-1.364a14.71,14.71,0,0,1-.71-1.712c-.057-.178.142-.27.412-.22a1.151,1.151,0,0,1,.781.568,17.279,17.279,0,0,1,1.42,3.593c.2.753.533,1.491.788,2.237s.533,1.662.774,2.5l.483,1.569c.206.8.412,1.584.611,2.372.149.611.376,1.193.5,1.825a3.039,3.039,0,0,0,.085.412c.043.54-.043.71-.334.838a1.641,1.641,0,0,1-.2.071c-.22.05-.426-.156-.54-.49-.369-.994-.632-2.074-.923-3.174-.22-.824-.426-1.655-.66-2.479Z" transform="translate(-23.37 -23.002)" fill="#231f20"/>
    <path id="Path_20888" data-name="Path 20888" d="M101.8,101.706a14.011,14.011,0,0,1-2.386.788c-.291.078-.582.156-.881.213a19.743,19.743,0,0,1-3.16.249H93.95a5.625,5.625,0,0,1-1.783-.206c-.178-.064-.114-.277.071-.476a1.136,1.136,0,0,1,.8-.383h3.437a4.864,4.864,0,0,0,1.058-.107c.348-.057.71-.149,1.044-.227a15.546,15.546,0,0,0,2.237-.668,10.881,10.881,0,0,0,1.3-.618,8.292,8.292,0,0,0,.916-.582,5.206,5.206,0,0,0,.831-.71,7.948,7.948,0,0,0,1.016-1.278c.064-.1.107-.213.17-.312.227-.383.391-.447.71-.412h.192c.192.05.249.3.135.66a5.965,5.965,0,0,1-2.038,2.72,8.379,8.379,0,0,1-1.065.71l-.561.327-.582.27Z" transform="translate(-24.424 -24.952)" fill="#231f20"/>
    <path id="Path_20889" data-name="Path 20889" d="M44.026,53.031a13.254,13.254,0,0,0-1.42,0c-.17,0-.341.043-.511.057a15.626,15.626,0,0,0-1.8.249,5.632,5.632,0,0,0-.767.234,6.576,6.576,0,0,1-.966.362c-.213.05-.192-.54.178-.71a6.853,6.853,0,0,1,2.131-.668c.44-.057.888-.163,1.335-.22a14.016,14.016,0,0,1,1.477-.085h.909l1.342.036h1.278c.284,0,.369.085.412.291v.142c0,.163-.121.284-.327.312a11.2,11.2,0,0,1-1.9.092c-.469,0-.945-.043-1.42-.043Z" transform="translate(-8.879 -11.991)" fill="#231f20"/>
    <path id="Path_20890" data-name="Path 20890" d="M83.712,52.53c.391-.227.8-.44,1.221-.632.149-.078.3-.163.455-.227a7.77,7.77,0,0,1,1.747-.483c.263-.036.526-.085.8-.107a1.96,1.96,0,0,1,1.03.121c.107.043.05.213-.064.383s-.284.341-.44.348c-.575.064-1.143.078-1.768.185a3.806,3.806,0,0,0-1.072.412,12.783,12.783,0,0,0-1.158.6c-.234.135-.469.277-.71.426a10.006,10.006,0,0,0-1.016.71c-.241.2-.462.433-.71.632-.057.05-.1.1-.156.142-.206.163-.32.149-.476.057a.71.71,0,0,1-.1-.071.476.476,0,0,1,0-.419,6.6,6.6,0,0,1,.547-.71,7.812,7.812,0,0,1,.71-.6,12.846,12.846,0,0,1,1.136-.781Z" transform="translate(-21.288 -11.646)" fill="#231f20"/>
    <path id="Path_20891" data-name="Path 20891" d="M16.416,13.245a11.981,11.981,0,0,1,3.792,3.309.7.7,0,0,0,1.193-.71,13.789,13.789,0,0,0-4.261-3.814c-.71-.5-1.42.71-.71,1.2Z" transform="translate(-2.418 -0.3)" fill="#231f20"/>
    <path id="Path_20892" data-name="Path 20892" d="M8.65,30.225a53.251,53.251,0,0,1,5.326-.078.71.71,0,0,0,0-1.385A50.466,50.466,0,0,0,8.3,28.89c-.881.128-.5,1.463.369,1.335Z" transform="translate(0 -5.179)" fill="#231f20"/>
    <path id="Path_20893" data-name="Path 20893" d="M105.415,11.184a13.342,13.342,0,0,0-2.642,4.893c-.178.866,1.158,1.243,1.335.369a12.618,12.618,0,0,1,2.5-4.566c.518-.71-.71-1.42-1.193-.71Z" transform="translate(-27.523)" fill="#231f20"/>
    <path id="Path_20894" data-name="Path 20894" d="M116.679,22.933a49.108,49.108,0,0,0-5.213,1.8c-.838.284-.476,1.619.369,1.335a49.11,49.11,0,0,1,5.213-1.8c.874-.178.5-1.513-.369-1.335Z" transform="translate(-29.909 -3.49)" fill="#231f20"/>
    <path id="Path_20895" data-name="Path 20895" d="M34.611,110.45a.653.653,0,0,0,.057-.178c0-.071-.05-.114-.085-.107a.4.4,0,0,0-.178.156l-.092.149a3.153,3.153,0,0,0-.256.476,7.968,7.968,0,0,1-.71,1.143,1.939,1.939,0,0,1-.81.668,1.094,1.094,0,0,1-.49.078,1.03,1.03,0,0,1-.5-.142,1.344,1.344,0,0,1-.2-.121l-.121-.114a1.555,1.555,0,0,1-.192-.234c-.05-.085-.114-.178-.149-.256l-.135-.284a2.23,2.23,0,0,1,0-1.214,6.263,6.263,0,0,1,.249-.845c.192-.511.4-.98.6-1.42a7.464,7.464,0,0,0,.476-1.264,1.874,1.874,0,0,0,0-.213s0-.043,0,0a1.2,1.2,0,0,0,.17-.05.27.27,0,0,0,.092-.043h.036v.064h0l-.078.185H32.2a.291.291,0,0,0-.22.078,1.116,1.116,0,0,0-.178.156,1.492,1.492,0,0,0-.178.22,6.087,6.087,0,0,0-.589,1.179l-.511,1.364a6.179,6.179,0,0,1-.312.71,1.989,1.989,0,0,1-.71.788,3.841,3.841,0,0,1-.49.206,1.228,1.228,0,0,1-.277.064,1.016,1.016,0,0,1-.369,0,.916.916,0,0,1-.469-.185.888.888,0,0,1-.291-.412,1.371,1.371,0,0,1-.078-.639,7.18,7.18,0,0,1,.433-1.712c.305-.859.625-1.7.895-2.521a5.334,5.334,0,0,0,.256-1.165v-.107a.206.206,0,0,1,0-.064h0l.1-.064h0a.114.114,0,0,0,0,.057h0v.064h0a.213.213,0,0,0-.092,0,3.274,3.274,0,0,0-.781,1.165c-.234.49-.447,1.016-.668,1.541s-.433,1.058-.71,1.591a6.116,6.116,0,0,1-.483.781,2.358,2.358,0,0,1-.788.71.9.9,0,0,1-.369.107.639.639,0,0,1-.234-.05c-.121-.064-.156-.128-.142-.192s.291-.213.376-.49a22.932,22.932,0,0,1,.76-2.727,16.853,16.853,0,0,1,1.463-2.976,2.841,2.841,0,0,1,.874-.817,1.676,1.676,0,0,1,.4-.17,1.889,1.889,0,0,1,.49-.057,1.463,1.463,0,0,1,1.079.547,1.655,1.655,0,0,1,.249.5,2.842,2.842,0,0,1,.071.391,3.032,3.032,0,0,1,0,.582,6.115,6.115,0,0,1-.185.9,24.922,24.922,0,0,1-1.079,2.969,6.1,6.1,0,0,0-.362,1.243v.043l-.234.057a.518.518,0,0,0-.178.057.653.653,0,0,1-.092.05s-.043.057,0,0a.092.092,0,0,0,0-.057.49.49,0,0,0,.036-.2v-.241h.263c.05,0,.057,0,.185-.22a5.325,5.325,0,0,0,.3-.646c.263-.625.5-1.314.831-2.01a6.129,6.129,0,0,1,.639-1.065,2.564,2.564,0,0,1,.561-.54l.4-.2.44-.114h.455a1.158,1.158,0,0,1,.5.192,1.179,1.179,0,0,1,.447.526,1.42,1.42,0,0,1,.121.518,3.757,3.757,0,0,1-.234,1.356c-.256.71-.561,1.42-.81,2.052-.2.5-.412,1.094-.32,1.179h0v.071s.043.092.036.064a1.761,1.761,0,0,0-.163.185.249.249,0,0,0-.078.142h0a.241.241,0,0,0-.043-.142c0-.057-.107-.234-.114-.213h0a.362.362,0,0,0,.1-.092,2.565,2.565,0,0,0,.227-.312c.156-.234.305-.5.455-.781l.646-1.257a9.233,9.233,0,0,1,1.314-2.216,3.366,3.366,0,0,1,.625-.554,1.285,1.285,0,0,1,.788-.27.959.959,0,0,1,.71.312,1,1,0,0,1,.234.575,4.119,4.119,0,0,1-.085,1.278,11.952,11.952,0,0,1-.589,1.925,10.737,10.737,0,0,0-.341,1.058,2.635,2.635,0,0,0-.078.589v.142a.4.4,0,0,0,.057.107c0,.078.078,0-.085.185-.043.036-.05.142-.05.092h0a.213.213,0,0,0,0-.114c0-.043-.036,0-.071-.114h0l.043-.043a.71.71,0,0,0,.114-.149,3.971,3.971,0,0,0,.249-.426c.327-.632.6-1.278.93-2.01a13.924,13.924,0,0,1,.71-1.335,5.319,5.319,0,0,1,.8-1.016,1.669,1.669,0,0,1,.987-.5,1.307,1.307,0,0,1,1.044.547,3.032,3.032,0,0,1,.078,1.74c-.057.362-.163.753-.256,1.15l-.241.987a4.488,4.488,0,0,0-.128.71.845.845,0,0,0,0,.135h-.078a.774.774,0,0,0-.17.05c-.156,0-.234.163-.185.071a.71.71,0,0,0,0-.178,1.3,1.3,0,0,0-.064-.284l.163-.128a.8.8,0,0,0,.185-.192,2.663,2.663,0,0,0,.334-.561,11.93,11.93,0,0,0,.44-1.293,5.106,5.106,0,0,1,.895-1.932,1.981,1.981,0,0,1,.291-.27,1.661,1.661,0,0,1,.312-.163.852.852,0,0,1,.554,0,.81.81,0,0,1,.32.234c.085.149-.092.291-.163.483a8.856,8.856,0,0,0-.305,1.065c-.107.44-.22.93-.369,1.42a7.1,7.1,0,0,1-.653,1.648,3.445,3.445,0,0,1-.71.845,3.486,3.486,0,0,1-.533.362,1.606,1.606,0,0,1-.185.078l-.263.078a1.79,1.79,0,0,1-.44,0,1.274,1.274,0,0,1-.966-.7c0-.071-.064-.142-.092-.213l-.036-.142a2.421,2.421,0,0,1-.043-.447,3.715,3.715,0,0,1,.057-.561,8.381,8.381,0,0,1,.185-.866l.078-.305h0l-.511,1.15c-.156.376-.312.753-.518,1.158a4.2,4.2,0,0,1-.383.66,1.554,1.554,0,0,1-.156.192,1.278,1.278,0,0,1-.22.22,1.449,1.449,0,0,1-1.768.178.788.788,0,0,1-.206-.163,1.547,1.547,0,0,1-.149-.156,1.953,1.953,0,0,1-.334-.533,2.315,2.315,0,0,1-.17-1.108,3.443,3.443,0,0,1,.05-.412v-.234h0s.043-.078.071-.128Z" transform="translate(-4.968 -26.793)" fill="#231f20"/>
    <path id="Path_20896" data-name="Path 20896" d="M102.3,103.519a1.739,1.739,0,0,0-.107-.256h0a.789.789,0,0,0,.2-.206.384.384,0,0,0,.107-.149.228.228,0,0,0,0-.064.135.135,0,0,0,0,.071v-.064h0a.419.419,0,0,0,.135.1,1.065,1.065,0,0,0,.241.114h0a.826.826,0,0,0,0,.114,2.839,2.839,0,0,0,0,.355v.561l.234,1.783a8.579,8.579,0,0,1,.085,1.513,2.9,2.9,0,0,1-.17.909,2.031,2.031,0,0,1-.305.575,1.023,1.023,0,0,1-.284.256,1.136,1.136,0,0,1-.5.149.831.831,0,0,1-.462-.178,1.746,1.746,0,0,1-.3-.227,3.281,3.281,0,0,1-.71-1.143c-.227-.618-.44-1.42-.632-2.131-.1-.327-.227-.71-.327-.937a1.924,1.924,0,0,0-.2-.369l-.064-.078a.526.526,0,0,1,.057-.114s0-.1,0-.064h0a.291.291,0,0,0,0,.071c0,.05.05.107,0,.092l-.085.064-.064.071-.036.036h0l-.383-.305h0a.135.135,0,0,0,.064,0,1.812,1.812,0,0,0,.22.057h.142v.064a4.174,4.174,0,0,0,.078.483A17.9,17.9,0,0,1,99.665,107a2.954,2.954,0,0,1-.227,1.562,1.456,1.456,0,0,1-1.307.76,1.008,1.008,0,0,1-.788-.334,2.734,2.734,0,0,1-.54-1.42c-.057-.383-.092-.753-.135-1.108s-.085-.71-.156-1.037a2.038,2.038,0,0,0-.312-.8.27.27,0,0,0-.234-.121h0v-.092h0a.384.384,0,0,0,.128.078v.043a4.4,4.4,0,0,0,.142,1.179,13.606,13.606,0,0,1,.256,1.42,3.949,3.949,0,0,1,0,.774,1.42,1.42,0,0,1-.327.881.575.575,0,0,1-.447.2c-.1,0-.135,0-.142-.085s.17-.241.192-.455a22.074,22.074,0,0,0-.76-2.088c-.1-.327-.192-.668-.27-1.051a3.353,3.353,0,0,1-.078-.646,1.513,1.513,0,0,1,.355-1.087,1.264,1.264,0,0,1,.71-.391,1.278,1.278,0,0,1,.312,0,1.752,1.752,0,0,1,.27.036,1.69,1.69,0,0,1,.923.526,2.947,2.947,0,0,1,.625,1.328,18.571,18.571,0,0,1,.27,2.131v.4a.1.1,0,0,0,.05.092.121.121,0,0,0,.163-.1h0a.605.605,0,0,0,0-.107c0-.107,0-.227,0-.348a3.889,3.889,0,0,0-.1-.71c-.085-.547-.227-1.079-.341-1.733a1.861,1.861,0,0,1,0-.71.866.866,0,0,1,.178-.327l.092-.107a1.421,1.421,0,0,1,.234-.213,1.25,1.25,0,0,1,.8-.305,1.186,1.186,0,0,1,.817.348,2.287,2.287,0,0,1,.391.483l.128.227.078.142c0,.092.071.178.1.27s.114.362.17.568a2.2,2.2,0,0,0,.114.348c.05.121.1.284.234.256s.149-.149.163-.241a1.576,1.576,0,0,0,0-.32c0-.22-.043-.455-.064-.71v-.469a3.651,3.651,0,0,1,.092-1.136,1.257,1.257,0,0,1,.227-.462.952.952,0,0,1,.589-.348.923.923,0,0,1,.653.149,1.286,1.286,0,0,1,.355.355,4.261,4.261,0,0,1,.526,1.257c.227.788.383,1.562.6,2.308a5.724,5.724,0,0,0,.6,1.484c.142.178.22.227.305.22s.057.092.114-.121a4.211,4.211,0,0,0-.341-1.52c-.2-.533-.455-1.072-.71-1.626a12.684,12.684,0,0,1-.526-1.364,1.953,1.953,0,0,1-.071-.923,1.207,1.207,0,0,1,.142-.334,1.136,1.136,0,0,1,.305-.277,2.207,2.207,0,0,1,.433-.185,1.378,1.378,0,0,1,1.1.142,2.272,2.272,0,0,1,.668.66,8.457,8.457,0,0,1,.71,1.314l.5,1.065c.632,1.271.781,1.314.774,1.91,0,.121.057.249.064.362s-.149.3-.54.249a2.088,2.088,0,0,1-1.264-.937,13.237,13.237,0,0,1-1.193-2.336,5.411,5.411,0,0,0-.476-.888l-.078-.078c-.043,0,.078-.121.092-.185a.341.341,0,0,0,0,.085.362.362,0,0,0,0,.156h-.05c-.589-1.087-.163-.305-.291-.547h0c-.043-.043.043.043.1.05a2.323,2.323,0,0,0,.32.071h.206v.05a1.952,1.952,0,0,0,.05.192,10.92,10.92,0,0,0,.426,1.051l.547,1.172a11.15,11.15,0,0,1,.5,1.342,3.991,3.991,0,0,1,.213,1.3,1.967,1.967,0,0,1-.362,1.094,1.655,1.655,0,0,1-1.214.632,1.8,1.8,0,0,1-1.143-.27,2.365,2.365,0,0,1-.66-.632,4.147,4.147,0,0,1-.547-1.143,17.491,17.491,0,0,1-.5-2,14,14,0,0,0-.433-1.733Z" transform="translate(-25.175 -26.225)" fill="#231f20"/>
  </g>
</svg>
