<svg xmlns="http://www.w3.org/2000/svg" width="95.127" height="86.693" viewBox="0 0 95.127 86.693">
  <g id="Layer_5" data-name="Layer 5" transform="translate(-7.2 -11.62)">
    <path id="Path_20824" data-name="Path 20824" d="M48.015,43.853A44.813,44.813,0,0,0,43,39.747a5.972,5.972,0,0,0-.636-.393c-.284-.142-.176-.134-.3-.134l-1.572.092-.836.059-.786.142-1.581.284A32.769,32.769,0,0,0,32.835,41.3l-.97.385-.945.452c-.627.318-1.263.6-1.882.928-1.2.711-2.442,1.372-3.6,2.183a52.575,52.575,0,0,0-6.691,5.2L17.37,51.74c-.452.435-.878.9-1.313,1.355-.887.887-1.673,1.865-2.509,2.8A87.987,87.987,0,0,0,8.12,63.709c-.544.836-.92.493-.92-.485a6.524,6.524,0,0,1,.335-1.907,10.4,10.4,0,0,1,1.171-2.308,53.987,53.987,0,0,1,6.5-7.728,55.744,55.744,0,0,1,7.787-6.49,48.242,48.242,0,0,1,10.948-5.913,27.14,27.14,0,0,1,6.775-1.413l.836-.059h.477c.192,0,.443-.092.627.075l.928.418c.268.151.485.326.728.485.493.326.953.669,1.4,1.029s.9.7,1.33,1.071c2.133,1.8,4.182,3.705,6.122,5.654,2.986,2.952,5.855,6.055,8.6,9.2,2.133,2.425,4.265,4.784,6.281,7.285.443.544.836,1.1,1.3,1.673,1.6,2.108,1.915,2.919,1.823,3.655a2.65,2.65,0,0,1-.075.5c-.192.427-1.071-.276-2.233-1.773C65.3,62.287,61.472,57.72,57.4,53.3c-3.028-3.253-6.131-6.473-9.434-9.434Z" transform="translate(0 -4.215)" fill="#231f20"/>
    <path id="Path_20825" data-name="Path 20825" d="M74.924,16.3c-1.121.309-2.208.711-3.3,1.1s-2.141.836-3.22,1.33c-.786.318-1.489.836-2.25,1.171a36.391,36.391,0,0,0-7.46,4.868l-.761.644c-.243.217-.452.468-.686.711l-1.33,1.455-1.405,2.057a24.013,24.013,0,0,1-1.347,2.091c-.318.418-.761.151-.979-.485a3.237,3.237,0,0,1,.284-2.576,25.091,25.091,0,0,1,7.9-7.527c.9-.611,1.857-1.171,2.8-1.756s1.924-1.129,2.894-1.673,2.208-1.012,3.345-1.522,2.267-.836,3.4-1.288l2.133-.661c.7-.234,1.422-.427,2.141-.6l1.673-.41c.552-.134,1.1-.226,1.673-.335s1.1-.234,1.673-.326l1.673-.251c.836-.159,1.715-.259,2.568-.376.427-.05.836-.125,1.288-.167l1.3-.084c.385,0,.761-.059,1.146-.067,1.447.084,1.907.268,2.133.836a2.024,2.024,0,0,1,.151.385c.075.418-.527.711-1.514.753a69.753,69.753,0,0,0-9.058,1.062c-1.129.251-2.275.435-3.4.761l-1.673.435-1.673.519Z" transform="translate(-7.338 0)" fill="#231f20"/>
    <path id="Path_20826" data-name="Path 20826" d="M109.172,36.9l-2.626-4.625c-.326-.56-.677-1.112-.987-1.673-1.079-2.016-2.124-4.056-3.061-6.164-.41-.928-.836-1.865-1.213-2.819a8.263,8.263,0,0,1-.836-3.923c0-.435.318-.335.611,0a4.483,4.483,0,0,1,.836,1.48,69.667,69.667,0,0,0,3.028,7.092c.644,1.439,1.531,2.827,2.333,4.224l2.7,4.6,1.673,2.819c.836,1.422,1.673,2.869,2.584,4.265.686,1.087,1.439,2.108,2.116,3.195.151.251.3.477.435.728.519.928.452,1.355.243,1.673a1.889,1.889,0,0,1-.159.234c-.192.2-.594-.084-1.1-.652-1.355-1.79-2.568-3.814-3.847-5.855-.937-1.505-1.857-3.036-2.777-4.575Z" transform="translate(-15.258 -0.946)" fill="#231f20"/>
    <path id="Path_20827" data-name="Path 20827" d="M100.979,57.484a30.268,30.268,0,0,0-5.018,2.241c-.6.318-1.137.736-1.673,1.079a31.112,31.112,0,0,0-5.612,4.475,18.4,18.4,0,0,0-2.007,2.509c-.753,1.129-1.372,2.333-2.175,3.437-.259.343-.7.067-.97-.493a2.308,2.308,0,0,1,.067-2.149,22.749,22.749,0,0,1,5.921-6.616c1.413-1.062,2.81-2.258,4.349-3.212A32.953,32.953,0,0,1,99.156,56.1a34.942,34.942,0,0,1,3.463-1.146,29.323,29.323,0,0,1,5.453-.895,17.463,17.463,0,0,1,4.324.109,5.085,5.085,0,0,1,.962.209c1.188.376,1.472.769,1.413,1.347a2.97,2.97,0,0,1-.05.393c-.151.41-.677.435-1.388.268a18.216,18.216,0,0,0-6.925-.167,27.467,27.467,0,0,0-5.328,1.338Z" transform="translate(-12.451 -6.931)" fill="#231f20"/>
    <path id="Path_20828" data-name="Path 20828" d="M102.033,59.214a29.943,29.943,0,0,0-4.449,2.308c-.519.326-1.012.686-1.514,1.037A38.807,38.807,0,0,0,91,66.641a27.6,27.6,0,0,0-1.957,2.124,25.609,25.609,0,0,0-2.116,2.952c-.184.318-.335.226-.368-.159a3,3,0,0,1,.452-1.673A21.67,21.67,0,0,1,92.23,64.14c1.213-.97,2.434-2.024,3.747-2.919a34.006,34.006,0,0,1,4.525-2.668,28.1,28.1,0,0,1,3-1.2,20.449,20.449,0,0,1,4.792-1,14.812,14.812,0,0,1,3.8.084,5.671,5.671,0,0,1,.836.159,2.961,2.961,0,0,1,1.037.435.761.761,0,0,1,.335.477.928.928,0,0,1,.042.251c0,.259-.468.3-1.146.134a19.7,19.7,0,0,0-3.145-.376,18.584,18.584,0,0,0-3.245.259,21.528,21.528,0,0,0-4.742,1.447Z" transform="translate(-12.986 -7.306)" fill="#231f20"/>
    <path id="Path_20829" data-name="Path 20829" d="M100.968,63.091c-.652.276-1.313.519-1.949.836a21.266,21.266,0,0,0-1.9.962,12.462,12.462,0,0,0-1.321.836,34.994,34.994,0,0,0-4.491,3.161,18.618,18.618,0,0,0-1.756,1.673c-.351.385-.711.753-1.045,1.146a13.779,13.779,0,0,1-1.062,1.146c-.477.452-.711-.769.05-1.773a23.084,23.084,0,0,1,4.859-4.391c.552-.351,1.1-.744,1.673-1.146L95.7,64.429c.636-.36,1.28-.736,1.932-1.079a21.806,21.806,0,0,1,2-.945l1.255-.527,1.28-.468c.644-.243,1.321-.393,1.974-.6a16.664,16.664,0,0,1,2.016-.443,18.333,18.333,0,0,1,3.178-.385h.719c.9.109,1.154.36,1.255.669a.752.752,0,0,1,.067.209c0,.1-.075.176-.251.243a1.539,1.539,0,0,1-.7.117,21.377,21.377,0,0,0-5.395.636c-.686.142-1.355.385-2.032.56a12.821,12.821,0,0,0-2,.744Z" transform="translate(-13.058 -7.913)" fill="#231f20"/>
    <path id="Path_20830" data-name="Path 20830" d="M27.119,84.848q3.228,2.509,6.315,5.135c.753.644,1.539,1.246,2.267,1.915,1.3,1.171,2.509,2.4,3.772,3.647.611.619,1.2,1.28,1.8,1.915l.836,1,.41.468.184.234.142.184.318.4s.05.075.084.084V99.7l.059-.243c.042-.167.092-.335.142-.485l.075-.234.217-.493a8.464,8.464,0,0,1,1.84-2.643,6.1,6.1,0,0,1,2.869-1.522c.677-.125.661.418.343,1.037a6.783,6.783,0,0,1-1.514,1.932,6.833,6.833,0,0,0-1.79,2.459l-.142.343c-.059.142-.109.284-.159.443-.1.293-.184.611-.268.928l-.134.477a2.335,2.335,0,0,1-.276.159l-.477.059h-.385c0-.125.226,1.129.117.594H43.7l-.243-.1L42.5,102c-.477-.585-.92-1.163-1.413-1.74l-.736-.836c-.468-.585-.979-1.137-1.472-1.673a57.114,57.114,0,0,0-5.311-5.018c-2.024-1.765-4.107-3.488-6.231-5.144-1.313-1.02-2.626-2.032-3.981-3-2.024-1.48-4.14-2.885-6.206-4.332-1.614-1.121-3.237-2.158-4.809-3.345-.343-.251-.694-.493-1.029-.769-1.246-1.029-1.522-1.514-1.4-2.133a1.614,1.614,0,0,1,.092-.418c.184-.4.836-.192,1.79.477,2.752,1.907,5.712,4.015,8.665,6,2.233,1.48,4.508,3.1,6.691,4.734Z" transform="translate(-0.44 -10.107)" fill="#231f20"/>
    <path id="Path_20831" data-name="Path 20831" d="M51.758,103.176c.309-.4.627-.836.953-1.188.117-.142.217-.293.343-.435a11.149,11.149,0,0,1,1.489-1.313c.243-.167.485-.351.753-.51a1.531,1.531,0,0,1,1.229-.209c.134,0,.059.243-.05.443s-.209.4-.335.46a7.987,7.987,0,0,0-1.581.945,5.018,5.018,0,0,0-.836.945c-.309.36-.611.744-.895,1.137-.176.243-.343.493-.51.744a12.669,12.669,0,0,0-.694,1.171c-.159.318-.243.661-.368.987a2.089,2.089,0,0,1-.075.209c-.125.259-.226.318-.477.268h-.167a.376.376,0,0,1-.259-.452,5.445,5.445,0,0,1,.677-1.9c.251-.435.535-.836.836-1.28Z" transform="translate(-7.047 -14.376)" fill="#231f20"/>
    <path id="Path_20832" data-name="Path 20832" d="M30.633,95.831l-4.809-3.805c-.594-.443-1.2-.836-1.807-1.288-1.054-.769-2.133-1.514-3.22-2.241s-2.166-1.472-3.3-2.133c-1-.6-2.007-1.188-3.011-1.756-1.3-.719-2.584-1.472-3.814-2.308-.376-.268-.243-.393.184-.36a5.311,5.311,0,0,1,1.932.577c1.372.677,2.693,1.439,4.006,2.208s2.635,1.547,3.889,2.434c1.505,1.045,3.136,2.057,4.667,3.153,1.673,1.221,3.279,2.509,4.909,3.764l3,2.35c1.505,1.2,2.977,2.451,4.408,3.722,1.112,1,2.233,1.932,3.262,2.994.234.226.46.452.686.694.836.92.953,1.288.928,1.673a1.079,1.079,0,0,1,0,.243c-.075.209-.527-.05-1.171-.644-1.932-1.748-3.872-3.621-5.963-5.395q-2.333-1.982-4.776-3.864Z" transform="translate(-0.533 -11.506)" fill="#231f20"/>
    <path id="Path_20833" data-name="Path 20833" d="M30.655,98.022c-1.531-1.062-3.069-2.116-4.633-3.136-.56-.376-1.154-.7-1.731-1.079q-3.011-1.965-6.089-3.839c-.912-.552-1.84-1.079-2.76-1.606-1.188-.669-2.392-1.3-3.529-2.083-.351-.251-.192-.376.209-.36a4.592,4.592,0,0,1,1.773.527c1.229.644,2.459,1.3,3.663,1.991s2.392,1.439,3.571,2.208c1.4.92,2.927,1.765,4.374,2.685,1.6,1.02,3.178,2.057,4.734,3.128.962.644,1.9,1.338,2.852,2.007,1.422,1.029,2.835,2.108,4.182,3.212.544.4,1.045.836,1.572,1.28l.786.652.728.711.644.636c.7.9.836,1.271.761,1.6a1.145,1.145,0,0,1,0,.209c-.067.159-.527-.075-1.037-.644a59.122,59.122,0,0,0-5.52-4.767l-2.241-1.673-2.3-1.623Z" transform="translate(-0.739 -12.158)" fill="#231f20"/>
    <path id="Path_20834" data-name="Path 20834" d="M78.486,30.021a24.339,24.339,0,0,1,2.727-.928c.326-.109.661-.217,1-.3a29.6,29.6,0,0,1,3.613-.6l1.614-.209c.343,0,.686-.075,1.029-.1a7.175,7.175,0,0,1,1.037.05c.427.05-.117.836-.836.953-1.355.125-2.685.284-4.048.452a14.043,14.043,0,0,0-2.434.619,26.086,26.086,0,0,0-2.609.92c-.527.217-1.045.443-1.556.7a16.836,16.836,0,0,0-2.225,1.3,14.72,14.72,0,0,0-1.472,1.313l-.3.309c-.385.368-.569.418-.887.251l-.243-.084c-.226-.151-.209-.468.05-.836a10.037,10.037,0,0,1,2.919-2.509,21.144,21.144,0,0,1,2.6-1.33Z" transform="translate(-10.725 -2.66)" fill="#231f20"/>
    <path id="Path_20835" data-name="Path 20835" d="M81.863,38.735c.661-.335,1.347-.627,2.024-.9.251-.1.485-.226.744-.318.887-.318,1.8-.585,2.7-.836.4-.109.836-.226,1.2-.351A5.16,5.16,0,0,1,90.084,36c.335,0,.084.836-.46,1.062-1,.309-1.991.594-3.019.836a10.262,10.262,0,0,0-1.79.719c-.644.284-1.288.585-1.915.92-.393.2-.778.41-1.146.644a14.953,14.953,0,0,0-1.673,1.112,13.009,13.009,0,0,0-1.062,1.087l-.234.309c-.293.293-.443.318-.744.134l-.176-.134a.493.493,0,0,1-.05-.711,7.527,7.527,0,0,1,2.116-2.066,21.387,21.387,0,0,1,1.915-1.179Z" transform="translate(-11.534 -3.989)" fill="#231f20"/>
    <path id="Path_20836" data-name="Path 20836" d="M31.641,58.334c.945-.719,1.915-1.422,2.919-2.066.368-.234.719-.493,1.1-.711.669-.385,1.355-.728,2.007-1.087s1.33-.719,2.024-1.062a17.7,17.7,0,0,1,1.865-.836,4.5,4.5,0,0,1,2.676-.393c.293.067.192.3-.05.527a2.241,2.241,0,0,1-1,.544,20.14,20.14,0,0,0-4.541,1.957,30.4,30.4,0,0,0-2.718,1.673c-.878.585-1.915,1.3-2.844,2.016q-.836.652-1.673,1.355A28.977,28.977,0,0,0,29,62.466c-.585.6-1.1,1.255-1.673,1.89-.117.134-.226.284-.351.418-.46.5-.669.611-1,.51a1.674,1.674,0,0,1-.217-.067c-.217-.109-.176-.443.1-.887a18.968,18.968,0,0,1,3.036-3.621,33.6,33.6,0,0,1,2.718-2.367Z" transform="translate(-3.013 -6.627)" fill="#231f20"/>
    <path id="Path_20837" data-name="Path 20837" d="M68.891,80.364a11.417,11.417,0,0,0,.234,2.676,4.808,4.808,0,0,0,.176.619,3.1,3.1,0,0,0,.226.569,2.928,2.928,0,0,0,.293.5l.067.1.059.059c.059.05.117.125.167.142s.134.1.184.092a.343.343,0,0,0,.176-.059,2.71,2.71,0,0,0,.719-.836,17.923,17.923,0,0,0,1.221-2.509c.552-1.3.987-2.676,1.673-4.031a7.527,7.527,0,0,1,.836-1.422A1.765,1.765,0,0,1,77,75.513a3.58,3.58,0,0,1,1.974,3.228,12,12,0,0,1-.3,3.228c-.217,1.029-.51,2.024-.778,2.994-.067.243-.125.468-.176.7a7.393,7.393,0,0,1-.217.786c-.159.51-.343,1-.51,1.472a12.7,12.7,0,0,0-.979,6.306,10.187,10.187,0,0,0,1.405,3.764l.552.937a7.393,7.393,0,0,1,.493,1.054,16.729,16.729,0,0,0,.786,1.89c.192.326.251.477.159.577s-.368.084-.744-.159a4.734,4.734,0,0,1-1.171-1.246c-.192-.276-.376-.577-.569-.836-.092-.151-.184-.276-.276-.4s-.2-.268-.326-.46a11.074,11.074,0,0,1-1.873-4.374,12.01,12.01,0,0,1,.159-4.767,43.3,43.3,0,0,1,1.4-4.232c.05-.167.084-.309.125-.468l.151-.56.309-1.071c.209-.694.41-1.388.577-2.074a9.668,9.668,0,0,0,.318-2.819,3.237,3.237,0,0,0-.293-1.213,1.5,1.5,0,0,0-.318-.427c-.067-.059-.109-.142-.192-.176l-.125-.075a.243.243,0,0,0-.326.075,2.911,2.911,0,0,0-.226.284c-.084.142-.176.276-.259.435a20.35,20.35,0,0,0-.912,2.016,31.506,31.506,0,0,1-2.509,5.52,3.161,3.161,0,0,1-1.405,1.221,1.673,1.673,0,0,1-1.154,0,2.133,2.133,0,0,1-.836-.544,5.855,5.855,0,0,1-1.405-3.061,20.19,20.19,0,0,1,.385-7.527,26.1,26.1,0,0,1,.92-3.345c.1-.268.2-.535.309-.836l.251-.611c.059-.142.125-.284.176-.435s.151-.343,0-.435c-.368-.259-.836,0-1.1.276a2.225,2.225,0,0,0-.234.243,5.016,5.016,0,0,0-.318.393,7.452,7.452,0,0,0-.569.836,17.831,17.831,0,0,0-2.267,7.8c0,.6,0,1.179,0,1.773a16.8,16.8,0,0,1,.151,3.429,3.178,3.178,0,0,1-.084.393c-.067.151-.226,0-.493-.343a6.072,6.072,0,0,1-.836-1.89,15.95,15.95,0,0,1,.5-8.037A17.814,17.814,0,0,1,66,70.88a9.969,9.969,0,0,1,.594-.912c.117-.151.217-.3.343-.443l.192-.226a3.774,3.774,0,0,1,.318-.318,4.074,4.074,0,0,1,.744-.594,2.81,2.81,0,0,1,.769-.368,2.091,2.091,0,0,1,1.447.05c.184.092.36.192.544.3.217.326.4.452.435.778a2.216,2.216,0,0,1-.151,1.129c-.142.418-.351.92-.5,1.28l-.259.652a21.494,21.494,0,0,0-.836,2.609,24.673,24.673,0,0,0-.753,5.436Z" transform="translate(-9.217 -9.212)" fill="#231f20"/>
    <path id="Path_20838" data-name="Path 20838" d="M60.088,76.49a28.671,28.671,0,0,1,.192-4.182,12.721,12.721,0,0,1,.234-1.556,8.916,8.916,0,0,1,.577-1.673,4.708,4.708,0,0,1,.468-.836,3.688,3.688,0,0,1,.761-.836,1.23,1.23,0,0,1,.326-.176.769.769,0,0,1,.36-.092,1.514,1.514,0,0,1,.719.159,2.15,2.15,0,0,1,.585.418,2.585,2.585,0,0,1,.376.443A6.432,6.432,0,0,1,65.7,70.519a5.587,5.587,0,0,1-.05,3.145c-.1.309-.376.2-.652-.1a2.258,2.258,0,0,1-.385-.569,1.464,1.464,0,0,1-.234-.711,7.31,7.31,0,0,0-.51-2.509,3.346,3.346,0,0,0-.51-1c-.067-.084-.05-.075-.067-.092a.126.126,0,0,0-.042-.059.142.142,0,0,0-.142,0h0s-.117.1-.2.176l-.226.309a4.232,4.232,0,0,0-.343.736,10.957,10.957,0,0,0-.427,1.673,23.419,23.419,0,0,0-.309,4c0,.836,0,1.673.084,2.509a35.606,35.606,0,0,0,.46,3.78,26.224,26.224,0,0,0,.761,2.81c.059.2.142.4.184.611.192.769.159,1.037-.134,1.3a1.882,1.882,0,0,1-.2.176c-.243.151-.56-.1-.836-.652a19.579,19.579,0,0,1-1.439-5.361,38.958,38.958,0,0,1-.385-4.182Z" transform="translate(-8.652 -9.085)" fill="#231f20"/>
    <path id="Path_20839" data-name="Path 20839" d="M56.034,82.5q-.4-1.355-.728-2.735c-.084-.335-.192-.669-.259-1.012a13.382,13.382,0,0,1-.217-1.865,6.13,6.13,0,0,1,.05-1.02,3.036,3.036,0,0,1,.41-1.029,1.773,1.773,0,0,1,.836-.769,1.388,1.388,0,0,1,1.146.117,3.864,3.864,0,0,1,.937.744,2.935,2.935,0,0,1,.585.836c.092.2-.134.335-.468.376a1.388,1.388,0,0,1-1.045-.226,3.546,3.546,0,0,0-.619-.485h-.05a1.581,1.581,0,0,0-.184.3c-.084.134-.084.184-.142.268a.914.914,0,0,0-.067.4,7.636,7.636,0,0,0,.335,2.35c.2.887.435,1.781.694,2.668.167.544.335,1.087.519,1.623a24.49,24.49,0,0,0,.928,2.409c.142.318.293.569.468.912a4.826,4.826,0,0,1,.36,1.062l.092.418a.728.728,0,0,1-.259.836l-.167.176c-.167.192-.552.075-.836-.393-.326-.686-.385-1.255-.585-1.581-.259-.5-.544-1.121-.778-1.673-.36-.836-.661-1.773-.962-2.676Z" transform="translate(-7.793 -10.206)" fill="#231f20"/>
    <path id="Path_20840" data-name="Path 20840" d="M55.365,92.46A54.438,54.438,0,0,0,59.655,96.3c.552.46,1.129.887,1.673,1.372a40.756,40.756,0,0,1,5.236,5.57c.686.912,1.363,1.832,1.949,2.793a11.374,11.374,0,0,1,1.673,4.023c.084.452-.209.46-.6.192a4.224,4.224,0,0,1-1.271-1.472,31.615,31.615,0,0,0-4.767-6.867,30.945,30.945,0,0,0-3.864-3.58c-1.489-1.255-3.036-2.509-4.491-3.872a27.6,27.6,0,0,1-2.509-2.718A17.037,17.037,0,0,1,51.074,89.4a6.892,6.892,0,0,1-.585-1.338,2.442,2.442,0,0,1,0-1.74,1.288,1.288,0,0,1,1.238-.652,1.313,1.313,0,0,1,.694.2l.326.2.243.184c.585.468,1.087.937,1.614,1.405.226.2.46.385.677.594.836.736.928,1.071.97,1.464a1.673,1.673,0,0,1,0,.268c0,.134-.125.192-.393.167a2.451,2.451,0,0,1-1.02-.368A11.758,11.758,0,0,1,53.3,88.563c-.468-.418-.962-.895-1.372-1.221-.117-.1-.1-.075-.109-.075h0a3.788,3.788,0,0,0,.251.7,17.747,17.747,0,0,0,3.345,4.391Z" transform="translate(-7.057 -12.116)" fill="#231f20"/>
    <path id="Path_20841" data-name="Path 20841" d="M45.674,59.25c.335-.251.669-.485,1.02-.719.125-.075.234-.184.368-.259a14.294,14.294,0,0,1,1.43-.719c.226-.092.435-.2.652-.293A2.066,2.066,0,0,1,49.981,57c.184,0,.142.669-.125.836l-.728.4c-.259.109-.519.226-.795.326a4.558,4.558,0,0,0-.887.569c-.318.226-.652.443-.962.686s-.393.3-.577.46-.569.485-.836.753-.351.46-.552.661a1.079,1.079,0,0,1-.134.142c-.184.159-.284.167-.46.05l-.117-.075a.343.343,0,0,1-.059-.427,3.747,3.747,0,0,1,.937-1.321c.293-.284.611-.544.928-.836Z" transform="translate(-5.973 -7.426)" fill="#231f20"/>
    <path id="Path_20842" data-name="Path 20842" d="M66.8,56.308c-1.447-1.606-2.927-3.161-4.441-4.725L60.683,49.91q-2.944-2.961-6.03-5.771c-.92-.836-1.873-1.623-2.827-2.384-.619-.485-1.255-.953-1.882-1.413s-1.255-.962-1.865-1.321c-.176-.1-.2-.159-.209-.251s.134-.2.393-.209a3.822,3.822,0,0,1,2.124.677,61.238,61.238,0,0,1,7.419,6.381c1.38,1.38,2.9,2.727,4.316,4.132,1.564,1.539,3.086,3.12,4.583,4.725q1.38,1.48,2.727,2.994c1.363,1.522,2.685,3.095,3.989,4.65,1.012,1.179,2.041,2.342,2.994,3.571.217.276.427.535.636.836.761,1.045.836,1.48.786,1.857a.364.364,0,0,1-.059.251c-.109.217-.56-.109-1.188-.836-1.79-2.1-3.6-4.374-5.495-6.591-1.405-1.673-2.844-3.3-4.324-4.9Z" transform="translate(-6.655 -4.408)" fill="#231f20"/>
    <path id="Path_20843" data-name="Path 20843" d="M23.963,84.2c1.807,1.321,3.6,2.676,5.336,4.1.636.5,1.288.987,1.924,1.505q3.345,2.735,6.448,5.712c.912.887,1.865,1.748,2.752,2.651a28.654,28.654,0,0,1,3.237,3.663c.3.418.067.51-.393.343a5.269,5.269,0,0,1-1.773-1.33c-2.233-2.375-4.592-4.633-7.017-6.908-1.439-1.355-3.078-2.618-4.675-3.881q-2.626-2.083-5.328-4.065c-1.112-.836-2.225-1.614-3.345-2.384-1.731-1.171-3.454-2.392-5.135-3.613-1.33-.895-2.643-1.84-3.9-2.835-.276-.217-.56-.418-.836-.661-1-.836-1.2-1.271-1.229-1.673a1.43,1.43,0,0,1,0-.268c.05-.226.552,0,1.33.569,2.258,1.673,4.625,3.479,7.084,5.185,1.815,1.28,3.688,2.509,5.528,3.847Z" transform="translate(-0.462 -10.284)" fill="#231f20"/>
    <path id="Path_20844" data-name="Path 20844" d="M31.332,98.081c-1.455-1.071-2.927-2.124-4.424-3.145-.544-.385-1.112-.719-1.673-1.087q-2.873-1.982-5.855-3.872c-.878-.544-1.773-1.087-2.66-1.606-1.137-.677-2.3-1.313-3.387-2.091-.343-.243-.184-.368.217-.36a4.182,4.182,0,0,1,1.723.519c1.188.652,2.367,1.3,3.529,2.007s2.292,1.447,3.421,2.216c1.347.928,2.81,1.781,4.182,2.71q2.3,1.531,4.533,3.136c.928.652,1.815,1.347,2.727,2.016,1.372,1.037,2.71,2.116,4.015,3.212.527.4,1,.836,1.514,1.28a13.725,13.725,0,0,1,1.5,1.372l.611.627c.677.887.836,1.238.719,1.564a.292.292,0,0,1-.05.209c-.05.05-.527-.067-1.02-.627a65.391,65.391,0,0,0-5.286-4.717L33.515,99.77,31.324,98.1Z" transform="translate(-0.973 -12.158)" fill="#231f20"/>
    <path id="Path_20845" data-name="Path 20845" d="M76.014,109.055a15.056,15.056,0,0,1-1.673.711c-.209.075-.4.184-.611.243a7.251,7.251,0,0,1-2.342.335,3.4,3.4,0,0,1-1.146-.192,1.372,1.372,0,0,1-.677-.544,1.1,1.1,0,0,1-.151-.836c0-.167.293-.117.569,0a3.871,3.871,0,0,0,.611.176c.042.017.067,0,.125.05a1.447,1.447,0,0,0,.309.059,8.419,8.419,0,0,0,1.02,0,4.374,4.374,0,0,0,1.363-.4c.5-.192,1-.41,1.489-.652a6.706,6.706,0,0,0,.836-.5,5.854,5.854,0,0,0,1.171-.937,2.685,2.685,0,0,0,.51-.945,1.675,1.675,0,0,1,0-.2c.059-.209.151-.209.577-.217h.293a.519.519,0,0,1,.569.569,3.387,3.387,0,0,1-1.38,2.308,10.723,10.723,0,0,1-1.539,1.029Z" transform="translate(-10.176 -15.312)" fill="#231f20"/>
    <path id="Path_20846" data-name="Path 20846" d="M77.282,110.2v.385c0,.184.059.343.075.611a1.573,1.573,0,0,1,0,.335,1.371,1.371,0,0,1-.059.192.827.827,0,0,1-1.229.351,1.673,1.673,0,0,1-.36-.393,2.509,2.509,0,0,1-.351-.987c-.05-.259-.092-.493-.151-.694a1.07,1.07,0,0,0-.084-.217c0-.067-.092-.05,0-.109s.109-.184.117-.125a.452.452,0,0,0,0,.209v-.192h0a.837.837,0,0,0,.192.109v.084a1.873,1.873,0,0,0,0,.435c0,.084,0,.159,0,.268l.092.477c.067.318.142.636.184.92a2.007,2.007,0,0,1-.142,1.2.519.519,0,0,1-.209.217.56.56,0,0,1-.3.042,1.405,1.405,0,0,1-.527-.2h-.067a4.182,4.182,0,0,1-1.037-1.012,6.833,6.833,0,0,0-.485-.569l-.142-.125h0a1.347,1.347,0,0,0,.075-.176c.05-.109,0-.159,0-.117a.569.569,0,0,0,.192.1h.092a.393.393,0,0,0,0,.1,1.02,1.02,0,0,0,0,.268,2.927,2.927,0,0,0,.176.544c.167.36.318.753.519,1.146.117.243-.059.343-.393.284a1.673,1.673,0,0,1-1.146-.836,3.721,3.721,0,0,1-.36-1.079,2.325,2.325,0,0,1,0-.736,1.029,1.029,0,0,1,.217-.443.62.62,0,0,1,.644-.268h.176a1.171,1.171,0,0,1,.577.276,2.917,2.917,0,0,1,.226.217c.075.067.05.05.059.067h0a.753.753,0,0,0,.05.117.477.477,0,0,0,.151.159.092.092,0,0,0,.109,0,.276.276,0,0,0,0-.176l-.075-.468a2.451,2.451,0,0,1,.05-1.137,1.154,1.154,0,0,1,.627-.677,1.12,1.12,0,0,1,.435-.084,1.045,1.045,0,0,1,.477.109,1.439,1.439,0,0,1,.652.761,5.118,5.118,0,0,1,.192.661l.125.585a2.059,2.059,0,0,0,.059.243.6.6,0,0,0,0,.117l.059.075h0l-.05.05a1.122,1.122,0,0,0-.092.117c-.059.1-.1.117-.117.167a.517.517,0,0,1,0,.084c0-.075-.669-.084-.485-.1v-.117l-.092-.661a5.779,5.779,0,0,1-.092-1.631,1.773,1.773,0,0,1,.477-1.137,1.839,1.839,0,0,1,.209-.142c.084-.05.167-.092.209-.059l.309.117c.167.209.343.41.527.644l.535.761c.084.117.192.268.268.36a1.622,1.622,0,0,0,.192.217.97.97,0,0,0,.176.159h.042a.309.309,0,0,0,0,.151h0a.184.184,0,0,0,0-.067.176.176,0,0,0-.109-.075.343.343,0,0,1,0-.059.627.627,0,0,0,0-.184,1.673,1.673,0,0,0-.176-.468c-.176-.335-.443-.677-.686-1.1a3,3,0,0,1-.309-.636,1.438,1.438,0,0,1,0-.728.836.836,0,0,1,.284-.485.468.468,0,0,1,.585-.059.837.837,0,0,1,.217.142c.176.159,0,.619.134.644s.167.335.385.636a7.293,7.293,0,0,1,.677,1.129,2.384,2.384,0,0,1,.226.9,1.8,1.8,0,0,1-.075.611,2.675,2.675,0,0,1-.134.326,1.355,1.355,0,0,1-.485.46,1.2,1.2,0,0,1-.753.084l-.268-.092-.151-.084a2.509,2.509,0,0,1-.418-.335,3.846,3.846,0,0,1-.259-.293l-.059-.067h0c0-.05-.05-.05-.05,0Z" transform="translate(-10.591 -15.458)" fill="#231f20"/>
  </g>
</svg>
