<svg xmlns="http://www.w3.org/2000/svg" width="72.412" height="82.897" viewBox="0 0 72.412 82.897">
  <g id="Layer_43" data-name="Layer 43" transform="translate(-13.685 -6.18)">
    <path id="Path_20902" data-name="Path 20902" d="M36.019,68.826a10.266,10.266,0,0,1,3.2,4.581A8.6,8.6,0,0,1,39.7,75.4a9.585,9.585,0,0,1,.036,1.814l-.158.9c-.05.3-.158.581-.237.875a8.724,8.724,0,0,1-1.857,3.025,9.714,9.714,0,0,1-2.509,1.914,8.388,8.388,0,0,1-3.857,1.061c-.416,0-.358-.108,0-.251a13.975,13.975,0,0,1,1.627-.559,8.854,8.854,0,0,0,5.785-4.767,7.613,7.613,0,0,0,.574-2.28,9.212,9.212,0,0,0-.186-2.387,9.442,9.442,0,0,0-2.466-4.61,9.019,9.019,0,0,0-2.638-1.914,7.685,7.685,0,0,0-2.38-.652c-.208,0-.416-.05-.617-.05H30.2a7.313,7.313,0,0,0-1.24.143,10.56,10.56,0,0,0-3.584,1.312l-.717.444c-.437.287-.717.487-.939.609a1.534,1.534,0,0,1-.5.158.853.853,0,0,1-.179,0c-.136,0,.122-.38.717-.875a11.47,11.47,0,0,1,3.176-1.785,12.187,12.187,0,0,1,1.821-.48c.308-.065.617-.108.932-.151l.968-.05a8.6,8.6,0,0,1,5.334,1.907Z" transform="translate(-2.637 -17.173)" fill="#231f20"/>
    <path id="Path_20903" data-name="Path 20903" d="M99.481,90.626A15,15,0,0,1,97,90.368c-.409-.072-.817-.158-1.219-.258q-.3-.072-.6-.172l-.237-.086a.143.143,0,0,1-.065,0h0a6.811,6.811,0,0,0,0,.717,4.806,4.806,0,0,0,.122.9c.344,2.151.867,4.3,1.276,6.452.179.961.366,1.928.516,2.868a19.249,19.249,0,0,1,.3,3.742c0,.387,0,.337-.1,0a4.627,4.627,0,0,1-.136-.674,8.935,8.935,0,0,1-.2-.953c-.323-2.5-.853-4.982-1.333-7.5-.28-1.513-.681-3.061-.853-4.645V89.443c.065,0,.179-.072.2-.043h.143l.057-.057c0-.072.108,0,.165,0l.129.05c.151.043.294.093.444.129.3.086.6.151.9.215A18.083,18.083,0,0,0,98.37,90a9.685,9.685,0,0,0,3.118-.143,10.036,10.036,0,0,0,4.3-1.928,7.083,7.083,0,0,0,1.247-1.212,7.319,7.319,0,0,0,.832-1.57,7,7,0,0,0,.251-.717c.258-.946.308-1.255.495-1.434.043-.043.086-.1.122-.129s.179.344.043,1.1a7.513,7.513,0,0,1-4.136,5.448,11.471,11.471,0,0,1-2.509.918,9.7,9.7,0,0,1-2.653.308Z" transform="translate(-22.871 -21.711)" fill="#231f20"/>
    <path id="Path_20904" data-name="Path 20904" d="M35.712,118.972c-7.291,1.742-19.915.717-21.693-.781C12,116.434,19.84,115,19.84,115a5.491,5.491,0,0,0,5.2,3.814C29.281,118.972,35.712,118.972,35.712,118.972Z" transform="translate(0 -30.808)" fill="#231f20"/>
    <path id="Path_20905" data-name="Path 20905" d="M82.113,118.761c-4.674,1.047-17.75,2.445-20.525-.043-1.742-1.563,8.051-2.868,8.051-2.868s-1.85,1.62-1.527,1.993S82.113,118.761,82.113,118.761Z" transform="translate(-13.503 -31.048)" fill="#231f20"/>
    <path id="Path_20906" data-name="Path 20906" d="M47.68,24.588a7.427,7.427,0,0,0-6.187,6.1,9.4,9.4,0,0,0,.108,3.463,13.5,13.5,0,0,0,.781,2.473c.172.4.366.8.559,1.183l.158.294c.072.136.186.33.287.487.222.33.43.66.674.982l.33.638v.6a.243.243,0,0,1-.1.172,1.513,1.513,0,0,1-.387.208,2.251,2.251,0,0,1-.574.136,5.305,5.305,0,0,1-.76,0,15.152,15.152,0,0,1-1.584-.122c-1.326-.158-2.653-.28-3.979-.38-2-.151-4.015-.229-5.993-.229-1.269,0-2.545.057-3.8.172-.631.05-1.255.1-1.864.2a9.154,9.154,0,0,0-.9.186,3.95,3.95,0,0,0-.875.244c-.33.165-.444.28-.473.244s.05-.222.294-.487a4.086,4.086,0,0,1,1.219-.918,7.8,7.8,0,0,1,2-.66,48.791,48.791,0,0,1,7.965-.38c1.326,0,2.645.079,3.957.158q.989.065,1.979.108h.7l.251.057a1.061,1.061,0,0,0,.394,0l-.194-.287A2.566,2.566,0,0,0,41.529,39L41.35,38.7l-.229-.409a15.922,15.922,0,0,1-.774-1.706,12.517,12.517,0,0,1-.832-3.613A10.818,10.818,0,0,1,39.73,30.1a13.879,13.879,0,0,1,.394-1.391,9.735,9.735,0,0,1,.624-1.326,9.492,9.492,0,0,1,4.215-3.821,10.287,10.287,0,0,1,3.377-.86,12.538,12.538,0,0,1,3.434.108,10.13,10.13,0,0,1,4.739,2.151,9.011,9.011,0,0,1,2.846,4.387,12.072,12.072,0,0,1-.487,7.886,15.686,15.686,0,0,1-.717,1.6,7.836,7.836,0,0,1-1.391,1.828,1.864,1.864,0,0,1-.989.516,2.914,2.914,0,0,0-.373.086c-.287,0-.057-.882.559-2.208.437-1,.889-1.979,1.226-2.989a12.646,12.646,0,0,0,.624-3.133A7.886,7.886,0,0,0,56.233,27.2a7.327,7.327,0,0,0-3.814-2.423,10.381,10.381,0,0,0-4.746-.143Z" transform="translate(-2.663 -4.658)" fill="#231f20"/>
    <path id="Path_20907" data-name="Path 20907" d="M90.869,48.958a.387.387,0,0,1,.043-.151v-.115l-.086-.057-.581-.208a20.167,20.167,0,0,0-2.43-.667c-.609-.115-1.226-.186-1.842-.272a38.483,38.483,0,0,0-6.624-.444,25.093,25.093,0,0,0-2.946.28c-1.247.165-2.459.487-3.714.588-.394,0-.423-.222-.165-.588a2.932,2.932,0,0,1,.574-.609,2.359,2.359,0,0,1,.946-.444A25,25,0,0,1,82,45.71c1.592.136,3.255.158,4.875.4.889.143,1.778.308,2.66.538.437.122.882.237,1.312.394l.33.115.158.057.222.093a5.592,5.592,0,0,1,.839.466,3.585,3.585,0,0,1,.151.495,2.151,2.151,0,0,1-.065.6l-.2.9-.351,1.584a47.307,47.307,0,0,0-.889,4.818,29.572,29.572,0,0,0-.194,3.714v.8c0,1,0,1.3-.38,1.556a1.642,1.642,0,0,1-.237.172c-.265.136-.559-.272-.717-1.061a25.851,25.851,0,0,1,.272-7.119c.265-1.764.631-3.52.975-5.241Z" transform="translate(-16.61 -11.162)" fill="#231f20"/>
    <path id="Path_20908" data-name="Path 20908" d="M26.616,63.057a9.958,9.958,0,0,1,5.068,0,8.918,8.918,0,0,1,4.266,2.774,9.535,9.535,0,0,1,1.885,3.19,9.32,9.32,0,0,1,.466,3.2,9.628,9.628,0,0,1-.688,3.147A9.413,9.413,0,0,1,33.4,79.954a10.89,10.89,0,0,1-5.291,1.3,8.983,8.983,0,0,1-6.366-2.552c-.523-.5-.244-.631.409-.516.337.043.717.2,1.212.315a13.618,13.618,0,0,1,1.52.516,9,9,0,0,0,5.972.337A9.456,9.456,0,0,0,33.577,78a8.961,8.961,0,0,0,2.057-2.23,7.6,7.6,0,0,0,0-7.219,7.793,7.793,0,0,0-2.774-3.032,7.061,7.061,0,0,0-4-.982,12.037,12.037,0,0,0-5.1,1.505c-.308.165-.6.337-.9.516l-.574.366-.645.452-.459.237a1.721,1.721,0,0,1-.358.1c-.229,0-.366-.244-.466-.531a4.9,4.9,0,0,1-.194-1.068l-.086-1.047c-.079-1.083-.136-2.151-.186-3.233-.108-2.215-.244-4.395-.186-6.617a10.507,10.507,0,0,1,.065-1.434,6.316,6.316,0,0,1,.387-1.95,1.556,1.556,0,0,1,.652-.717,1.283,1.283,0,0,1,.323-.151c.158,0,.208.143.237.466a7.886,7.886,0,0,1,0,1.434,55.16,55.16,0,0,0,0,5.864c.079,2.007.186,4.043.358,6.072v.444h.036l.158-.1.33-.2a10.3,10.3,0,0,1,1.362-.717,15.334,15.334,0,0,1,2.954-1.1Z" transform="translate(-1.7 -12.68)" fill="#231f20"/>
    <path id="Path_20909" data-name="Path 20909" d="M42.095,111.643h0V111.6h0l-.1-.215c-.143-.3-.258-.609-.38-.91a14.523,14.523,0,0,1-.581-1.9,11.4,11.4,0,0,1-.215-4.007,9.907,9.907,0,0,1,4.108-6.746,8.46,8.46,0,0,1,2.724-1.276,10.316,10.316,0,0,1,2.925-.387,9.714,9.714,0,0,1,4.968,1.434,8.1,8.1,0,0,1,3.3,3.972,11.578,11.578,0,0,1,.717,5.018,10.108,10.108,0,0,1-.473,2.488,8.926,8.926,0,0,1-.487,1.183,5.392,5.392,0,0,1-.308.566l-.172.272c-.05.072-.136.215-.151.229l-.158.194a1.764,1.764,0,0,1-.158.179c-.043.043-.179.136-.043.158a3.256,3.256,0,0,0,.473.086l.76.086.989.093c1.333.115,2.66.186,3.986.229,1.807.065,3.584.057,5.42,0a27.666,27.666,0,0,0,5.355-.487c.531-.129.717-.208.767-.136s-.208.251-.652.466a14.431,14.431,0,0,1-4.76,1.154,63.945,63.945,0,0,1-7.126.158c-1.19-.036-2.373-.093-3.584-.179l-.9-.079-.717-.072a4.166,4.166,0,0,1-.846-.136,1.147,1.147,0,0,1-.939-.631c-.05-.1,0-.158,0-.244l.043-.237.043-.229v-.122l.165-.172.624-.76a1.082,1.082,0,0,0,.172-.251l.122-.194a7.557,7.557,0,0,0,.409-.8,9.878,9.878,0,0,0,.523-1.771,10.753,10.753,0,0,0,0-3.771,8.251,8.251,0,0,0-1.047-2.868,6.674,6.674,0,0,0-2.215-2.151,8.545,8.545,0,0,0-6.129-.9,7.671,7.671,0,0,0-5.305,4.058,8.388,8.388,0,0,0-.867,3.276,10.244,10.244,0,0,0,.409,3.506,10.474,10.474,0,0,0,.473,1.355c.086.229.194.444.294.667s.358.674.531,1a1,1,0,0,1,.143.459l.072.409v.05h0l-.108-.05h0l-.05.072-.115.143a.867.867,0,0,1-.416.2,10.753,10.753,0,0,1-1.14.2l-.875.1c-1.047.122-2.086.222-3.133.3-2.351.194-4.71.315-7.069.33-1.183,0-2.366,0-3.584-.093q-.9-.065-1.785-.194a7.714,7.714,0,0,1-1.814-.473,4.667,4.667,0,0,1-2.151-2.108,11.155,11.155,0,0,1-1-2.638,26.963,26.963,0,0,1-.717-5.391,22.1,22.1,0,0,1,0-2.387c.093-2.989.43-3.929.889-4.509a2.23,2.23,0,0,1,.315-.373c.165-.108.244.129.308.66a21.863,21.863,0,0,1,.108,2.43c0,1.577.093,3.169.194,4.76a26.275,26.275,0,0,0,.717,4.667c.38,1.434,1.083,2.925,2.014,3.355a4.215,4.215,0,0,0,.925.28c.366.072.717.129,1.147.179.789.086,1.606.129,2.43.158,2.445.065,4.939-.036,7.427-.2,1.24-.086,2.488-.186,3.728-.315l1.477-.165h.057Z" transform="translate(-1.874 -25.379)" fill="#231f20"/>
    <path id="Path_20910" data-name="Path 20910" d="M108,81.078a8.883,8.883,0,0,1-1.154,2.065,7.979,7.979,0,0,1-1.7,1.67A8.6,8.6,0,0,1,100.8,86.4a12.065,12.065,0,0,1-3.3-.108,16.308,16.308,0,0,1-2-.495l-.287-.108h-.129v.437l.1.789c.1.552.2,1.118.323,1.678.229,1.133.5,2.258.717,3.412.308,1.6.624,3.212.832,4.832a20.073,20.073,0,0,1,.2,3.147v.8l-.143.789a14.152,14.152,0,0,1-.33,1.548c-.165.631-.244.516-.337-.043-.05-.28-.086-.674-.172-1.14-.05-.244-.108-.487-.165-.717a1.664,1.664,0,0,0-.086-.409l-.043-.423a51.07,51.07,0,0,0-.81-6.094c-.409-2.029-.867-4.079-1.212-6.215-.065-.437-.151-.86-.2-1.319l-.043-.344a3.434,3.434,0,0,1-.036-.5V84.842l.151-.358.079-.172v-.093h0l.036.05h0a.824.824,0,0,1,.717-.086c.3.057.717.222,1.039.323l.667.194a14.338,14.338,0,0,0,2.43.459,8.058,8.058,0,0,0,3.921-.5,6.76,6.76,0,0,0,3.018-2.459,8.158,8.158,0,0,0,1.319-4.681,7.814,7.814,0,0,0-.968-3.584,6.058,6.058,0,0,0-2.631-2.495,8.481,8.481,0,0,0-5.585-.4c-.409.086-.8.222-1.212.344a15.616,15.616,0,0,1-1.606.48,1.333,1.333,0,0,1-.889-.108,2.085,2.085,0,0,1-.358-.179c-.158-.122-.115-.323.108-.588a3.434,3.434,0,0,1,1.219-.86,11.506,11.506,0,0,1,5.943-1.233,8.187,8.187,0,0,1,5.793,2.939,9.484,9.484,0,0,1,1.169,9.248Z" transform="translate(-22.647 -17.748)" fill="#231f20"/>
    <path id="Path_20911" data-name="Path 20911" d="M94.194,29.263c0,.143-.215.079-.495-.093a1.161,1.161,0,0,1-.3-.3,2.152,2.152,0,0,1,0-.3c0-.057.38-.624.495-.824a1.993,1.993,0,0,1,.4-.5c.308-.308.6-.624.875-.925a.659.659,0,0,1,.222-.172,1.878,1.878,0,0,0,.717-.638c0-.043.072-.079.057-.151a2.817,2.817,0,0,1,.531-.86c.229-.151.43-.323.667-.487,0,0,0-.072.115-.065a.367.367,0,0,0,.258-.136,2.351,2.351,0,0,1,.272-.258,1.133,1.133,0,0,1,.237-.079.54.54,0,0,1,.258.108.727.727,0,0,0,.222.1.2.2,0,0,1,.079,0,3.147,3.147,0,0,1,.093,1l-.065.186-.158.394-.323.617a.38.38,0,0,1-.165.129s-.5.8-.538.817-.229.294-.459.323c-.043,0-.065.043-.086.072a4.359,4.359,0,0,1-.717.581c-.129.093-.237.208-.351.308l-.057.05s-.079,0-.1.05a9.684,9.684,0,0,0-.824.717c-.057.065-.452.2-.509.28S94.2,29.205,94.194,29.263Z" transform="translate(-22.566 -4.895)" fill="#231f20"/>
    <path id="Path_20912" data-name="Path 20912" d="M60.476,6.417c-.072-.136.122-.208.466-.237a1.376,1.376,0,0,1,.466.093,1.434,1.434,0,0,1,.2.237c0,.043.093.717.143.91a2.33,2.33,0,0,1,0,.631c0,.43-.043.86-.057,1.29a.989.989,0,0,1-.065.28,2.423,2.423,0,0,0-.122.982.259.259,0,0,0,.043.172,3.154,3.154,0,0,1,0,1.1c-.108.28-.186.574-.3.86a.119.119,0,0,1-.065.122.5.5,0,0,0-.158.258.975.975,0,0,1-.151.373c0,.065-.122.122-.186.179a.229.229,0,0,1-.229,0c-.057-.057-.136,0-.2,0a.287.287,0,0,1-.079,0,3.411,3.411,0,0,1-.287-.38,1.685,1.685,0,0,1-.208-.437L59.6,12.3a3.658,3.658,0,0,0-.057-.638.21.21,0,0,1,.05-.186,6.357,6.357,0,0,0-.065-.918.812.812,0,0,1,.122-.523.151.151,0,0,0,0-.108A5.578,5.578,0,0,1,59.867,9a1.738,1.738,0,0,1,.043-.466.11.11,0,0,1,.036-.079.631.631,0,0,0,0-.108c0-.366.129-.717.115-1.1,0-.086.2-.473.2-.574S60.5,6.474,60.476,6.417Z" transform="translate(-12.979)" fill="#231f20"/>
    <path id="Path_20913" data-name="Path 20913" d="M85.464,48.064c-.867-.079-1.735-.165-2.617-.179h-.961c-1.126,0-2.258,0-3.391.1-.495.05-1,.1-1.491.179a15.636,15.636,0,0,1-1.907.265c-.2,0-.2-.108-.057-.272a1.505,1.505,0,0,1,.789-.459,20.474,20.474,0,0,1,3.972-.43c.8,0,1.627-.072,2.445-.079s1.8.036,2.7.115a14.429,14.429,0,0,1,1.656.179c.832.129,1.656.28,2.466.473a16.352,16.352,0,0,1,1.871.509l.409.143c.487.229.617.358.638.552a.4.4,0,0,1,0,.129c0,.136-.258.129-.6,0a21.321,21.321,0,0,0-3.312-.86c-.853-.165-1.735-.265-2.61-.351Z" transform="translate(-17.341 -11.61)" fill="#231f20"/>
    <path id="Path_20914" data-name="Path 20914" d="M19.357,22.6c-.143,0-.093-.208.065-.495a1.075,1.075,0,0,1,.323-.308,1.527,1.527,0,0,1,.3,0c.057,0,.645.323.86.423a2.036,2.036,0,0,1,.538.366l1.011.789a.932.932,0,0,1,.186.222,2.531,2.531,0,0,0,.674.717c.043,0,.079.079.158.072a2.825,2.825,0,0,1,.839.717c.136.28.294.523.444.781,0,.043.072.05.05.129a.454.454,0,0,0,.086.294,1.269,1.269,0,0,1,.2.33.774.774,0,0,1,0,.258c0,.086-.186.237-.222.244s-.129.122-.194.2l-.072.072a3.334,3.334,0,0,1-.918-.194l-.452-.33c-.222-.165-.459-.337-.516-.366s-.072-.108-.1-.165-.717-.509-.717-.531c-.108-.136-.28-.208-.3-.43,0-.043,0-.057-.065-.079a4.416,4.416,0,0,1-.581-.681c-.1-.122-.215-.215-.323-.323s0-.057-.036-.079,0-.072-.057-.093a8.524,8.524,0,0,0-.746-.767c-.065-.05-.237-.437-.323-.487S19.421,22.607,19.357,22.6Z" transform="translate(-1.582 -4.419)" fill="#231f20"/>
  </g>
</svg>
