<svg xmlns="http://www.w3.org/2000/svg" width="87.541" height="63.873" viewBox="0 0 87.541 63.873">
  <g id="Layer_22" data-name="Layer 22" transform="translate(-1.3 -17.772)">
    <path id="Path_20847" data-name="Path 20847" d="M66.642,46.357l-3.465.589-1.261.249-4.477.8-1.975.4a14.747,14.747,0,0,1-2.571.416c-.291,0-.236-.159,0-.347a2.377,2.377,0,0,1,1.046-.485c1.7-.353,3.417-.693,5.163-.963,1.04-.159,2.079-.416,3.174-.617l3.465-.638L67.9,45.38l3.285-.52c.845-.125,1.663-.312,2.516-.416l.554-.083c.693-.055.936,0,1.088.208a.949.949,0,0,1,.1.146c.062.166-.215.319-.693.381l-4.595.693-3.465.575Z" transform="translate(-15.778 -8.156)" fill="#231f20"/>
    <path id="Path_20848" data-name="Path 20848" d="M24.619,63.5q2.017,1.026,4.054,2.017l1.5.693,5.26,2.529c.776.374,1.573.735,2.349,1.088a16.431,16.431,0,0,1,2.945,1.559c.291.2.166.291-.159.277a3.637,3.637,0,0,1-.624-.1,3.465,3.465,0,0,1-.818-.256c-2.024-.922-4.11-1.76-6.126-2.772-1.213-.6-2.523-1.137-3.784-1.7q-2.079-.956-4.158-1.947L22.54,63.617c-1.275-.624-2.543-1.3-3.8-1.934-.97-.513-1.961-.956-2.924-1.476a5.62,5.62,0,0,1-.638-.34c-.762-.492-.949-.728-.956-1.053a.811.811,0,0,1,0-.222c0-.2.45-.166,1.04.1,1.739.811,3.465,1.795,5.315,2.71q2.017,1.04,4.061,2.079Z" transform="translate(-3.963 -12.492)" fill="#231f20"/>
    <path id="Path_20849" data-name="Path 20849" d="M51.638,57.045l-.2,2.079a4.9,4.9,0,0,1-.042.776l-.249,2.717c0,.4-.042.8-.049,1.206a9.5,9.5,0,0,1-.076,1.538c-.049.319-.693-.09-.728-.693a18.565,18.565,0,0,1,.146-3.16c.09-.631.069-1.289.1-1.94l.139-2.134.1-1.275c.042-.693.1-1.331.118-1.989V52.3a1.247,1.247,0,0,1,.076-.444.3.3,0,0,1,.1-.111.243.243,0,0,1,.173-.132.111.111,0,0,1,.118.049c0,.062-.042-.083,0,0a.506.506,0,0,0,.062.132.132.132,0,0,0,.159.049c.055-.062.069,0,.09.062a.95.95,0,0,1,.049.2,16.529,16.529,0,0,1,.09,2.821c0,.693-.069,1.421-.118,2.134Z" transform="translate(-15.036 -10.39)" fill="#231f20"/>
    <path id="Path_20850" data-name="Path 20850" d="M32.273,50.88q0,.977-.042,1.954v.693l-.042,2.529v1.123a4.969,4.969,0,0,1-.062,1.462c-.035.152-.208.1-.36-.042a.887.887,0,0,1-.319-.624c0-.942-.062-1.913,0-2.9a14.183,14.183,0,0,0-.035-1.795c-.035-.6,0-1.324,0-1.982v-1.22l.062-1.85V46.8a2.4,2.4,0,0,1,0-.312c.042-.388.111-.506.3-.561l.132-.042c.146,0,.249.152.277.437a22.516,22.516,0,0,1,.062,2.571l-.035,1.961Z" transform="translate(-9.24 -8.632)" fill="#231f20"/>
    <path id="Path_20851" data-name="Path 20851" d="M58.033,19.845a13.93,13.93,0,0,1,1.455-.36c.18-.042.347-.111.527-.139.631-.1,1.275-.152,1.906-.229.284-.035.561-.09.839-.132a6.334,6.334,0,0,1,1.088-.076c.118,0,.1,0,0,0s-.229.187-.409.3a5.773,5.773,0,0,1-2.031.873c-.43.076-.845.27-1.282.381s-.949.236-1.428.347c-.291.069-.589.139-.866.222a1.455,1.455,0,0,0-.492.2.839.839,0,0,0-.222.485c-.055.319,0,.693-.049,1.019v.236a1.58,1.58,0,0,1-.118.45v.042a.866.866,0,0,0-.076-.3c-.166-.617-.693-1.178-.4-2.2a1.386,1.386,0,0,1,.36-.541,1.85,1.85,0,0,1,.457-.3,7.124,7.124,0,0,1,.742-.312Z" transform="translate(-16.912 -0.349)" fill="#231f20"/>
    <path id="Path_20852" data-name="Path 20852" d="M47.6,32.681h-.256l-.485-.035a3.285,3.285,0,0,1-.381,0c-.464,0-.963-.132-1.455-.166h-.651a2.412,2.412,0,0,1-.887-.125c-.083-.042-.069,0,0-.042s.173-.215.3-.333a2.2,2.2,0,0,1,1.5-.818,9.147,9.147,0,0,0,1.012-.222,4.851,4.851,0,0,1,1.261,0,1.58,1.58,0,0,1,.991.485,2.232,2.232,0,0,1,.43,1.24,2.945,2.945,0,0,1,.055.811v.18a1.331,1.331,0,0,1-.083.36h0a1.2,1.2,0,0,0-.2-.18c-.187-.2-.409-.423-.617-.624s-.367-.388-.485-.513a.347.347,0,0,0-.132-.09h-.007a.6.6,0,0,0,.118-.111.242.242,0,0,0,.042-.062h0a1.411,1.411,0,0,0,.076-.222h0v.042L47.7,32.4a2.079,2.079,0,0,0-.055.3Z" transform="translate(-12.933 -4.03)" fill="#231f20"/>
    <path id="Path_20853" data-name="Path 20853" d="M15.464,81.353c2.037,1.282,4.082,2.557,6.147,3.8.748.457,1.532.866,2.28,1.324l7.935,4.851c1.178.693,2.384,1.386,3.576,2.079a47.363,47.363,0,0,1,4.5,2.772c.45.319.284.457-.236.43a6.868,6.868,0,0,1-2.308-.638c-1.636-.755-3.2-1.615-4.768-2.495s-3.119-1.781-4.657-2.772c-1.836-1.137-3.825-2.183-5.738-3.3q-3.146-1.843-6.237-3.735c-1.282-.776-2.557-1.559-3.832-2.363-.478-.3-.956-.61-1.435-.929-.243-.152-.478-.319-.693-.485-.132-.1-.333-.222-.471-.347l-.118-.1a1.15,1.15,0,0,1-.042-.146,2.253,2.253,0,0,1-.076-.291,8.919,8.919,0,0,1-.132-.97l-.069-.859-.125-1.7c-.132-1.746-.34-3.465-.437-5.184,0-.381-.055-.755-.069-1.143a5.108,5.108,0,0,1,.118-1.518A1.566,1.566,0,0,1,9,66.952a1.386,1.386,0,0,1,.208-.2c.111-.069.208.042.34.3a3.576,3.576,0,0,1,.374,1.164c.236,1.532.43,3.1.582,4.7s.236,3.222.388,4.8l.076.693h0c.45.326.984.645,1.476.97l3.077,1.913Z" transform="translate(-2.195 -15.03)" fill="#231f20"/>
    <path id="Path_20854" data-name="Path 20854" d="M53.942,93.192V95.6c0,.3.042.589.042.88L53.942,99.6A11.588,11.588,0,0,0,54,100.989a5.62,5.62,0,0,1,0,1.8c-.042.194-.319.139-.589,0a1.137,1.137,0,0,1-.582-.748,21.7,21.7,0,0,1-.132-3.562,18.2,18.2,0,0,0-.09-2.211l-.062-2.439V90.053c0-.589-.125-1.164-.132-1.76V87.9c0-.492.146-.693.45-.693a1.1,1.1,0,0,1,.208-.042c.236,0,.416.2.478.527.111.492.229,1,.3,1.532s.1,1.06.146,1.594l.069,1.206v1.213Z" transform="translate(-15.69 -21.305)" fill="#231f20"/>
    <path id="Path_20855" data-name="Path 20855" d="M98.842,85.625l-10.4,2.6c-1.261.312-2.509.693-3.77.97L71.288,92.313l-5.925,1.435a56.511,56.511,0,0,1-7.623,1.532c-.839.049-.693-.2-.1-.575a11.2,11.2,0,0,1,3.216-1.3c5.107-1.289,10.236-2.543,15.44-3.694,3.112-.693,6.3-1.6,9.46-2.419l10.4-2.661c2.141-.554,4.276-1.109,6.4-1.7l1.282-.367.36-.1c.042,0,.152,0,.132-.09V75.043c0-2.585-.1-5.114-.083-7.679V65.673c.111-2.079.326-2.772.811-3.195a1.532,1.532,0,0,1,.333-.256c.36-.152.52.693.534,2.225.062,4.518.076,9.314.076,14.13V82.8l-.118.353-.062.173v.132c.125.09-.173-.125-.146-.1h0l-.187.291c-.049.111-.208.152-.3.229a6.183,6.183,0,0,1-.783.27l-.43.125-1.691.464-3.375.908Z" transform="translate(-17.146 -13.64)" fill="#231f20"/>
    <path id="Path_20856" data-name="Path 20856" d="M83.561,65l-7.81,1.684-2.855.693L62.875,69.59c-1.476.333-2.966.693-4.421,1.074-1.885.45-3.763.963-5.676,1.282-.589.111-.541,0-.083-.236.222-.139.554-.326.956-.527a7.4,7.4,0,0,1,1.386-.6l2.841-.88c.949-.284,1.913-.534,2.869-.783q2.883-.769,5.807-1.386c2.342-.492,4.733-1.157,7.11-1.726l7.845-1.83,4.851-1.116c2.439-.561,4.9-1.1,7.311-1.691,1.878-.45,3.7-.977,5.544-1.455.409-.111.8-.229,1.22-.326a5.849,5.849,0,0,1,1.67-.187,1.518,1.518,0,0,1,.8.229,1.733,1.733,0,0,1,.263.18c.194.194-.381.568-1.462,1-3.257,1.04-6.75,1.857-10.27,2.654l-7.866,1.76Z" transform="translate(-15.67 -12.72)" fill="#231f20"/>
    <path id="Path_20857" data-name="Path 20857" d="M21.739,62.9q2.079,1.074,4.234,2.079l1.566.693,5.5,2.627c.818.388,1.642.755,2.46,1.123a15.814,15.814,0,0,1,3.084,1.629c.3.215.152.326-.2.333a4.387,4.387,0,0,1-.693-.062,3.146,3.146,0,0,1-.866-.243c-2.079-.942-4.3-1.795-6.4-2.876-1.261-.638-2.64-1.164-3.957-1.76-1.448-.651-2.9-1.324-4.331-2.01l-2.654-1.282c-1.331-.651-2.654-1.386-3.971-2.024-1.019-.534-2.079-.984-3.063-1.545-.222-.118-.45-.229-.693-.367-.783-.547-.963-.825-.929-1.192a1.344,1.344,0,0,1,0-.249c.069-.236.52-.2,1.116.09,1.788.859,3.611,1.878,5.5,2.834,1.386.693,2.814,1.448,4.234,2.148Z" transform="translate(-2.92 -12.232)" fill="#231f20"/>
    <path id="Path_20858" data-name="Path 20858" d="M112.081,47.765v2.148c0,.256.055.513.062.776v2.772a11.9,11.9,0,0,0,.076,1.227,4.851,4.851,0,0,1,0,1.58c0,.166-.249.152-.492,0a1.185,1.185,0,0,1-.6-.651,7.11,7.11,0,0,1-.256-1.566,9.481,9.481,0,0,1,0-1.6,13.45,13.45,0,0,0-.132-1.961l-.139-2.134-.049-1.338a17.776,17.776,0,0,0-.076-2.024c-.042-.52-.173-1.026-.236-1.545a2.876,2.876,0,0,1,0-.34,1.489,1.489,0,0,1,0-.277.736.736,0,0,1,.45-.381l.173-.062c.18-.042.381.132.6.43.083.229.173.45.249.693a5.032,5.032,0,0,1,.125.693c.069.464.111.942.152,1.386.055.693.1,1.428.125,2.141Z" transform="translate(-33.441 -7.555)" fill="#231f20"/>
    <path id="Path_20859" data-name="Path 20859" d="M70.863,45.315c-2.772.485-5.544.963-8.316,1.476l-3.008.624c-1.76.353-3.541.693-5.253,1.143l-.644.159-.547.18-.132.042h-.069v.444l-.139,2.7c-.076,1.6-.118,3.216-.146,4.8,0,2.079,0,4.1-.187,6.14-.09,1.268-1.171-.353-1.192-2.724,0-2.079,0-4.158.076-6.272,0-1.046.076-2.079.132-3.139l.1-1.58v-.229a1.026,1.026,0,0,1,.083-.326,2.772,2.772,0,0,1,.215-.575h0l-.069-.083h0l.055-.049.118-.1a.638.638,0,0,1,.277-.159l.575-.194c1.275-.374,2.523-.693,3.791-.97s2.536-.6,3.8-.859c2.772-.575,5.544-1.095,8.358-1.615l5.142-.942c2.6-.485,5.211-.949,7.769-1.5,1.989-.423,3.922-.936,5.863-1.428l1.275-.347c1.6-.388,2.079-.464,2.557-.187a1.386,1.386,0,0,1,.3.18c.236.229-.347.644-1.518,1.06a91.943,91.943,0,0,1-10.908,2.772c-2.772.561-5.544,1.088-8.365,1.615Z" transform="translate(-15.328 -6.698)" fill="#231f20"/>
    <path id="Path_20860" data-name="Path 20860" d="M53.041,31.728l7.124-1.178c.866-.139,1.726-.319,2.592-.45,1.538-.229,3.077-.437,4.629-.61.776-.069,1.552-.146,2.356-.159h1a2.946,2.946,0,0,1,.43.083c.367-.035.381.347.492.6.042.132.118.291.139.4l.069.3a18.829,18.829,0,0,1,.367,4.158c0,1.767-.083,3.507-.09,5.225,0,.541-.208.492-.457.049a5.6,5.6,0,0,1-.589-2.273c-.062-1.809-.076-3.576-.236-5.267-.042-.416-.111-.832-.187-1.234-.042-.2-.1-.4-.146-.6v-.09H69.84c-.423,0-.859.042-1.3.076-2.079.159-4.3.617-6.466.991l-7.138,1.282-4.4.8c-2.218.409-4.456.79-6.653,1.213-1.719.326-3.375.748-5.08,1.06-.374.076-.742.152-1.123.208a5.89,5.89,0,0,1-1.518.1,1.157,1.157,0,0,1-.693-.34,1.213,1.213,0,0,1-.229-.236c-.159-.256.374-.6,1.386-.852,2.966-.735,6.133-1.351,9.328-1.954,2.28-.464,4.692-.929,7.076-1.344Z" transform="translate(-10.41 -3.548)" fill="#231f20"/>
    <path id="Path_20861" data-name="Path 20861" d="M33.407,49.761l-.069,2.308v.845l-.125,2.973v1.324a5.156,5.156,0,0,1-.1,1.719c-.049.187-.3.118-.541-.055a1.019,1.019,0,0,1-.478-.742,29.424,29.424,0,0,1,.062-3.4,19.461,19.461,0,0,0,0-2.079V46.719c0-.561-.1-1.109-.09-1.67v-.374c.035-.464.132-.61.416-.693a.352.352,0,0,0,.2-.042c.215,0,.381.18.444.5a14.823,14.823,0,0,1,.208,1.49c0,.506.049,1.019.055,1.532v2.315Z" transform="translate(-9.446 -8.033)" fill="#231f20"/>
    <path id="Path_20862" data-name="Path 20862" d="M25.211,40.769l-.083,3.1V45l-.146,3.992v1.774a8.316,8.316,0,0,1-.069,2.3c-.062.243-.347.159-.617-.062a1.386,1.386,0,0,1-.541-.984,44.213,44.213,0,0,1,.062-4.588c.083-.929,0-1.885,0-2.834V36.638c0-.755-.111-1.49-.118-2.238v-.5c0-.617.152-.825.471-.922a1.178,1.178,0,0,1,.222-.069c.243,0,.43.236.492.693.1.651.215,1.317.249,2s.062,1.386.076,2.079V40.8Z" transform="translate(-6.877 -4.647)" fill="#231f20"/>
    <path id="Path_20863" data-name="Path 20863" d="M44.814,24.94l-4.706.783-1.7.34-6.057,1.046c-.894.159-1.788.353-2.668.554a29.965,29.965,0,0,1-3.41.693c-.693.083,0-1.012,1.282-1.331,2.294-.554,4.609-1.053,6.965-1.421,1.386-.208,2.855-.575,4.29-.852l4.733-.887,2.918-.527c1.476-.263,2.959-.5,4.414-.79,1.137-.222,2.231-.52,3.354-.769.243-.055.485-.125.735-.173.922-.173,1.234-.125,1.49.222a1.754,1.754,0,0,1,.173.243c.132.284-.208.582-.866.776a58.614,58.614,0,0,1-6.2,1.31l-4.74.818Z" transform="translate(-7.581 -1.147)" fill="#231f20"/>
    <path id="Path_20864" data-name="Path 20864" d="M57.691,18.713l1.795-.277c.222-.035.43-.1.651-.125l2.3-.263c.347-.042.693-.111,1.019-.159a4.435,4.435,0,0,1,1.344-.1c.152,0,.118.194,0,.374a.936.936,0,0,1-.513.444,12.737,12.737,0,0,1-2.592.437,11.559,11.559,0,0,0-1.594.312l-1.753.36c-.36.076-.693.159-1.06.256l-.492.146a.693.693,0,0,0-.166.069c-.055.042,0,.111-.042.166v.3a9.571,9.571,0,0,0,.166,1.275,1.933,1.933,0,0,1,.049.263c0,.166,0,.263-.083.34a1.746,1.746,0,0,1-.36.18l-.18.09a.333.333,0,0,1-.319,0c-.125-.062-.3-.173-.326-.326a3.125,3.125,0,0,1-.208-1.13V20.321a1.8,1.8,0,0,1,0-.277,1.151,1.151,0,0,1,.083-.353c.146-.069.1-.263.236-.326a1.878,1.878,0,0,1,.36-.229c.146-.049.284-.111.43-.146l.263-.076c.312-.083.617-.146.922-.208Z" transform="translate(-16.584)" fill="#231f20"/>
    <path id="Path_20865" data-name="Path 20865" d="M47.288,31.473c-.589.049-1.192.125-1.795.208a6.01,6.01,0,0,0-.693.132c-.776.1-1.559.215-2.335.353-.347.062-.693.152-1.019.229a6.091,6.091,0,0,1-1.331.243c-.146,0-.152-.173-.076-.367a.9.9,0,0,1,.485-.513,11.088,11.088,0,0,1,2.654-.624c.554-.062,1.095-.249,1.649-.367s1.22-.236,1.836-.333l.575-.083A5.447,5.447,0,0,1,48,30.288a.693.693,0,0,1,.471.118c.152.076.159.263.215.423.09.52.139.762.208,1.095.1.437.27.845.409,1.282a1.386,1.386,0,0,1,.09.291.554.554,0,0,1-.055.416.811.811,0,0,1-.374.215.693.693,0,0,1-.194.042.631.631,0,0,1-.3-.069c-.111-.049-.277-.118-.319-.236a7.263,7.263,0,0,1-.527-2.294H47.3Z" transform="translate(-11.878 -3.841)" fill="#231f20"/>
    <path id="Path_20866" data-name="Path 20866" d="M92.451,88.126c-1.386.3-2.71.575-4.068.839-.492.09-.977.229-1.476.312-.873.152-1.753.291-2.633.409q-.693.1-1.331.166l-.693.055h-.811a1.629,1.629,0,0,1-.416-.069.305.305,0,0,1-.1,0l-.062-.076-.139-.159a2.773,2.773,0,0,1-.374-.776,4.948,4.948,0,0,1-.187-1.282,12.522,12.522,0,0,1,.042-1.538c.049-.492.132-.97.173-1.441,0-.284.243-.3.506-.042a2.259,2.259,0,0,1,.582,1.386c.042.52,0,1.012,0,1.469a4.477,4.477,0,0,0,.069.644,1.712,1.712,0,0,0,.062.284.694.694,0,0,0,0,.125c0,.042,0,0,0,0v.055h.284c.485-.049.984-.1,1.49-.139a32.661,32.661,0,0,0,3.666-.693c1.386-.277,2.7-.554,4.033-.866.825-.187,1.649-.388,2.46-.61a22.87,22.87,0,0,0,3.576-1.22l.291-.159.173-.125a.3.3,0,0,0,.125-.326c0-.076-.035-.4-.062-.624l-.083-.693a3.41,3.41,0,0,0-.118-.589c-.1-.735,0-.887.326-1.2l.215-.229c.215-.263.693,0,1,.693a5.544,5.544,0,0,1,.333,1.421c0,.243.055.478.069.693a7.8,7.8,0,0,1,0,.922,1.5,1.5,0,0,1-.6,1.123,4.213,4.213,0,0,1-.561.381l-.374.187A13,13,0,0,1,96.456,87c-1.386.464-2.73.79-4.082,1.137Z" transform="translate(-24.206 -19.384)" fill="#231f20"/>
    <path id="Path_20867" data-name="Path 20867" d="M7.281,80.048s-3.541-1.046-5.7.645c-1.913,1.5,5.877,9.286,21.83,12.017L7.62,83.125Z" transform="translate(0 -19.02)" fill="#231f20"/>
    <path id="Path_20868" data-name="Path 20868" d="M82.294,64.2l-6.979,1.587-2.529.624-8.954,2.093c-1.331.319-2.654.693-3.957,1.012-1.684.416-3.354.894-5.066,1.206-.527.1-.478,0-.076-.208.208-.118.5-.284.852-.471a6.931,6.931,0,0,1,1.261-.534c1.684-.561,3.382-1.088,5.1-1.538s3.465-.908,5.184-1.282c2.079-.464,4.227-1.074,6.348-1.608l6.986-1.712,4.324-1.033c2.176-.527,4.373-1.026,6.528-1.566,1.677-.423,3.306-.9,4.962-1.344.36-.1.693-.208,1.081-.3a5.835,5.835,0,0,1,1.49-.2,1.386,1.386,0,0,1,.693.187,1.06,1.06,0,0,1,.236.146c.18.166-.34.5-1.3.894-2.911.949-6.036,1.712-9.182,2.446l-6.986,1.629Z" transform="translate(-16.308 -12.635)" fill="#231f20"/>
    <path id="Path_20869" data-name="Path 20869" d="M70.979,37.213l1.123-.139a3.741,3.741,0,0,0,.4-.069l1.448-.166a6.3,6.3,0,0,0,.631-.1,2.952,2.952,0,0,1,.811-.125c.173,0,.062.547-.236.644a7.339,7.339,0,0,1-1.656.291,7.333,7.333,0,0,0-1.012.166l-1.123.18L70.674,38c-.388.062-.693.049-1.06.118a7.215,7.215,0,0,0-.783.208l-.173.049c-.215.049-.291,0-.374-.187a.158.158,0,0,0-.049-.132.3.3,0,0,1,.18-.36,5.2,5.2,0,0,1,1.469-.367,1.821,1.821,0,0,0,.541-.049l.547-.083Z" transform="translate(-20.545 -5.783)" fill="#231f20"/>
    <path id="Path_20870" data-name="Path 20870" d="M66.56,42.8l2-.277.693-.139,2.578-.416c.381-.062.762-.152,1.137-.236a10.306,10.306,0,0,1,1.448-.291c.312,0,.042.561-.506.693a22.28,22.28,0,0,1-2.966.61c-.6.069-1.22.236-1.83.347l-2.017.353-1.247.215c-.631.1-1.261.2-1.878.326-.485.1-.949.236-1.421.353l-.312.076c-.388.083-.527.055-.645-.125a.645.645,0,0,1-.076-.132c-.069-.146.069-.3.353-.4a18.4,18.4,0,0,1,2.627-.631l2.017-.347Z" transform="translate(-18.482 -7.266)" fill="#231f20"/>
  </g>
</svg>
